<?xml version="1.0" standalone="no"?>
<!DOCTYPE svg PUBLIC "-//W3C//DTD SVG 1.1//EN" "http://www.w3.org/Graphics/SVG/1.1/DTD/svg11.dtd" >
<svg>
<metadata>
Created by FontForge 20090914 at Wed Oct 20 02:47:22 2021
 By www-data
</metadata>
<defs>
<font id="PokemonDPPt" horiz-adv-x="686" >
  <font-face 
    font-family="Pokemon DPPt"
    font-weight="400"
    font-stretch="normal"
    units-per-em="1000"
    panose-1="2 0 0 0 0 0 0 0 0 0"
    ascent="750"
    descent="-250"
    x-height="437"
    cap-height="624"
    bbox="0 -63 687 812"
    underline-thickness="50"
    underline-position="-50"
    unicode-range="U+0020-U+FF5E"
  />
<missing-glyph horiz-adv-x="250" 
 />
    <glyph glyph-name=".notdef" horiz-adv-x="250" 
 />
    <glyph glyph-name="space" unicode=" " horiz-adv-x="250" 
 />
    <glyph glyph-name="exclam" unicode="!" horiz-adv-x="375" 
d="M125 687h62v-375h-62v375v0zM125 187h62v-125h-62v125v0z" />
    <glyph glyph-name="numbersign" unicode="#" horiz-adv-x="375" 
d="M62 562h63v-125h62v125h63v-125h62v-63h-62v-125h62v-62h-62v-125h-63v125h-62v-125h-63v125h-62v62h62v125h-62v63h62v125v0zM187 374h-62v-125h62v125v0z" />
    <glyph glyph-name="dollar" unicode="$" horiz-adv-x="437" 
d="M124 625h188v-63h62v-187h-187v-63h125v-62h-125v-63h125v-62h-125v-125h-63v125h-62v62h62v63h-62v62h62v313v0zM312 562h-125v-125h125v125v0z" />
    <glyph glyph-name="percent" unicode="%" horiz-adv-x="375" 
d="M0 624h125v-62h62v62h63v-187h-63v-63h125v-250h-125v63h-62v-125h-63v187h63v125h-125v250v0zM125 562h-63v-125h63v125v0zM250 312h-63v-125h63v125v0z" />
    <glyph glyph-name="ampersand" unicode="&#x26;" horiz-adv-x="375" 
d="M62 562h125v-63h63v-125h-63v-125h63v63h62v-63h-62v-125h62v-62h-62v62h-63v-62h-125v62h-62v188h62v62h-62v125h62v63v0zM187 499h-125v-125h125v125v0zM125 312h-63v-188h125v125h-62v63v0z" />
    <glyph glyph-name="parenleft" unicode="(" horiz-adv-x="375" 
d="M187 625h62v-63h-62v-125h-63v-250h63v-125h62v-62h-62v62h-63v125h-62v250h62v125h63v63v0z" />
    <glyph glyph-name="parenright" unicode=")" horiz-adv-x="375" 
d="M125 625h62v-63h63v-125h62v-250h-62v-125h-63v-62h-62v62h62v125h63v250h-63v125h-62v63v0z" />
    <glyph glyph-name="asterisk" unicode="*" horiz-adv-x="375" 
d="M125 687h62v-62h125v-63h-125v-62h63v-125h-63v125h-62v-125h-63v125h63v62h-125v63h125v62v0z" />
    <glyph glyph-name="plus" unicode="+" horiz-adv-x="375" 
d="M125 562h62v-187h125v-63h-125v-187h-62v187h-125v63h125v187v0z" />
    <glyph glyph-name="comma" unicode="," horiz-adv-x="312" 
d="M62 187h125v-188h-63v-62h-62v62h62v63h-62v125v0z" />
    <glyph glyph-name="hyphen.uni002D" unicode="-" horiz-adv-x="375" 
d="M0 374h312v-62h-312v62v0z" />
    <glyph glyph-name="period" unicode="." horiz-adv-x="312" 
d="M62 187h125v-125h-125v125v0z" />
    <glyph glyph-name="slash" unicode="/" horiz-adv-x="375" 
d="M250 625h62v-125h-62v-125h-63v-125h-62v-125h-63v-125h-62v125h62v125h63v125h62v125h63v125v0z" />
    <glyph glyph-name="zero" unicode="0" horiz-adv-x="375" 
d="M125 624h62v-62h63v-63h62v-312h-62v-63h-63v-62h-62v62h-63v63h-62v312h62v63h63v62v0zM187 562h-62v-63h-63v-312h63v-63h62v63h63v312h-63v63v0z" />
    <glyph glyph-name="one" unicode="1" horiz-adv-x="375" 
d="M187 624h62v-562h-62v437h-125v63h125v62v0z" />
    <glyph glyph-name="two" unicode="2" horiz-adv-x="375" 
d="M62 624h188v-62h62v-188h-62v-62h-63v-63h-62v-62h-63v-63h250v-62h-312v125h62v62h63v63h62v62h63v188h-188v-125h-62v125h62v62v0z" />
    <glyph glyph-name="three" unicode="3" horiz-adv-x="375" 
d="M62 624h188v-62h62v-188h-62v-62h62v-188h-62v-62h-188v62h-62v125h62v-125h188v188h-125v62h125v188h-188v-125h-62v125h62v62v0z" />
    <glyph glyph-name="four" unicode="4" horiz-adv-x="375" 
d="M125 624h125v-375h62v-62h-62v-125h-63v125h-187v250h62v125h63v62v0zM187 562h-62v-125h-63v-188h125v313v0z" />
    <glyph glyph-name="five" unicode="5" horiz-adv-x="375" 
d="M0 624h312v-62h-250v-188h188v-62h62v-188h-62v-62h-188v62h-62v63h62v-63h188v188h-250v312v0z" />
    <glyph glyph-name="six" unicode="6" horiz-adv-x="375" 
d="M62 624h188v-62h62v-63h-62v63h-188v-188h188v-62h62v-188h-62v-62h-188v62h-62v438h62v62v0zM250 312h-188v-188h188v188v0z" />
    <glyph glyph-name="seven" unicode="7" horiz-adv-x="375" 
d="M0 624h312v-187h-62v-125h-63v-125h-62v-125h-63v125h63v125h62v125h63v125h-250v62v0z" />
    <glyph glyph-name="eight" unicode="8" horiz-adv-x="375" 
d="M62 624h188v-62h62v-188h-62v-62h62v-188h-62v-62h-188v62h-62v188h62v62h-62v188h62v62v0zM250 562h-188v-188h188v188v0zM250 312h-188v-188h188v188v0z" />
    <glyph glyph-name="nine" unicode="9" horiz-adv-x="375" 
d="M62 624h188v-62h62v-438h-62v-62h-188v62h-62v63h62v-63h188v188h-188v62h-62v188h62v62v0zM250 562h-188v-188h188v188v0z" />
    <glyph glyph-name="colon" unicode=":" horiz-adv-x="312" 
d="M62 499h125v-125h-125v125v0zM62 187h125v-125h-125v125v0z" />
    <glyph glyph-name="semicolon.uni003B" unicode=";" horiz-adv-x="312" 
d="M62 499h125v-125h-125v125v0zM62 187h125v-188h-63v-62h-62v62h62v63h-62v125v0z" />
    <glyph glyph-name="equal" unicode="=" horiz-adv-x="375" 
d="M0 437h312v-63h-312v63v0zM0 249h312v-62h-312v62v0z" />
    <glyph glyph-name="question" unicode="?" horiz-adv-x="375" 
d="M62 687h188v-63h62v-187h-62v-63h-63v-125h-62v125h62v63h63v187h-188v-125h-62v125h62v63v0zM125 187h62v-125h-62v125v0z" />
    <glyph glyph-name="at" unicode="@" horiz-adv-x="375" 
d="M125 624h125v-62h62v-313h-62v-62h-125v-63h125v-62h-125v62h-63v63h-62v312h62v63h63v62v0zM250 562h-125v-63h62v-62h63v125v0zM125 499h-63v-62h63v62v0zM187 437h-62v-188h62v188v0zM125 249h-63v-62h63v62v0z" />
    <glyph glyph-name="A" unicode="A" horiz-adv-x="375" 
d="M62 624h188v-62h62v-500h-62v250h-188v-250h-62v500h62v62v0zM250 562h-188v-188h188v188v0z" />
    <glyph glyph-name="B" unicode="B" horiz-adv-x="375" 
d="M0 624h250v-62h62v-188h-62v-62h62v-188h-62v-62h-250v562v0zM250 562h-188v-188h188v188v0zM250 312h-188v-188h188v188v0z" />
    <glyph glyph-name="C" unicode="C" horiz-adv-x="375" 
d="M62 624h188v-62h62v-125h-62v125h-188v-438h188v125h62v-125h-62v-62h-188v62h-62v438h62v62v0z" />
    <glyph glyph-name="D" unicode="D" horiz-adv-x="375" 
d="M0 624h250v-62h62v-438h-62v-62h-250v562v0zM250 562h-188v-438h188v438v0z" />
    <glyph glyph-name="E" unicode="E" horiz-adv-x="375" 
d="M0 624h312v-62h-250v-188h250v-62h-250v-188h250v-62h-312v562v0z" />
    <glyph glyph-name="F" unicode="F" horiz-adv-x="375" 
d="M0 624h312v-62h-250v-188h188v-62h-188v-250h-62v562v0z" />
    <glyph glyph-name="G" unicode="G" horiz-adv-x="375" 
d="M62 624h188v-62h62v-63h-62v63h-188v-438h188v188h-63v62h125v-250h-62v-62h-188v62h-62v438h62v62v0z" />
    <glyph glyph-name="H" unicode="H" horiz-adv-x="375" 
d="M0 624h62v-250h188v250h62v-562h-62v250h-188v-250h-62v562v0z" />
    <glyph glyph-name="I" unicode="I" horiz-adv-x="375" 
d="M62 624h187v-62h-62v-438h62v-62h-187v62h62v438h-62v62v0z" />
    <glyph glyph-name="J" unicode="J" horiz-adv-x="375" 
d="M250 624h62v-500h-62v-62h-188v62h-62v125h62v-125h188v500v0z" />
    <glyph glyph-name="K" unicode="K" horiz-adv-x="375" 
d="M0 624h62v-187h63v62h62v63h63v62h62v-62h-62v-63h-63v-187h63v-125h62v-125h-62v125h-63v125h-62v62h-63v-312h-62v562v0z" />
    <glyph glyph-name="L" unicode="L" horiz-adv-x="375" 
d="M0 624h62v-500h250v-62h-312v562v0z" />
    <glyph glyph-name="M" unicode="M" horiz-adv-x="375" 
d="M0 624h62v-125h63v-125h62v125h63v125h62v-562h-62v312h-63v-125h-62v125h-63v-312h-62v562v0z" />
    <glyph glyph-name="N" unicode="N" horiz-adv-x="375" 
d="M0 624h62v-125h63v-125h62v-62h63v312h62v-562h-62v125h-63v125h-62v62h-63v-312h-62v562v0z" />
    <glyph glyph-name="O" unicode="O" horiz-adv-x="375" 
d="M62 624h188v-62h62v-438h-62v-62h-188v62h-62v438h62v62v0zM250 562h-188v-438h188v438v0z" />
    <glyph glyph-name="P" unicode="P" horiz-adv-x="375" 
d="M0 624h250v-62h62v-188h-62v-62h-188v-250h-62v562v0zM250 562h-188v-188h188v188v0z" />
    <glyph glyph-name="Q" unicode="Q" horiz-adv-x="375" 
d="M62 625h188v-63h62v-437h-62v-63h62v-62h-62v62h-188v63h-62v437h62v63v0zM250 562h-188v-437h63v62h62v-62h63v437v0z" />
    <glyph glyph-name="R" unicode="R" horiz-adv-x="375" 
d="M0 624h250v-62h62v-188h-62v-125h62v-187h-62v187h-63v63h-125v-250h-62v562v0zM250 562h-188v-188h188v188v0z" />
    <glyph glyph-name="S" unicode="S" horiz-adv-x="375" 
d="M62 624h188v-62h62v-63h-62v63h-188v-188h188v-62h62v-188h-62v-62h-188v62h-62v63h62v-63h188v188h-188v62h-62v188h62v62v0z" />
    <glyph glyph-name="T" unicode="T" horiz-adv-x="375" 
d="M0 624h312v-62h-125v-500h-62v500h-125v62v0z" />
    <glyph glyph-name="U" unicode="U" horiz-adv-x="375" 
d="M0 624h62v-500h188v500h62v-500h-62v-62h-188v62h-62v500v0z" />
    <glyph glyph-name="V" unicode="V" horiz-adv-x="375" 
d="M0 624h62v-312h63v-125h62v125h63v312h62v-312h-62v-125h-63v-125h-62v125h-63v125h-62v312v0z" />
    <glyph glyph-name="W" unicode="W" horiz-adv-x="375" 
d="M0 624h62v-437h63v62h62v-62h63v437h62v-562h-62v62h-63v63h-62v-63h-63v-62h-62v562v0z" />
    <glyph glyph-name="X" unicode="X" horiz-adv-x="375" 
d="M0 624h62v-125h63v-125h62v125h63v125h62v-125h-62v-125h-63v-62h63v-125h62v-125h-62v125h-63v125h-62v-125h-63v-125h-62v125h62v125h63v62h-63v125h-62v125v0z" />
    <glyph glyph-name="Y" unicode="Y" horiz-adv-x="375" 
d="M0 624h62v-187h63v-125h62v125h63v187h62v-187h-62v-125h-63v-250h-62v250h-63v125h-62v187v0z" />
    <glyph glyph-name="Z" unicode="Z" horiz-adv-x="375" 
d="M0 624h312v-125h-62v-125h-63v-62h-62v-125h-63v-63h250v-62h-312v125h62v125h63v62h62v125h63v63h-250v62v0z" />
    <glyph glyph-name="underscore" unicode="_" horiz-adv-x="375" 
d="M0 124h312v-62h-312v62v0z" />
    <glyph glyph-name="a" unicode="a" horiz-adv-x="375" 
d="M62 437h188v-63h62v-312h-250v62h-62v125h62v63h188v62h-188v63v0zM250 249h-188v-125h188v125v0z" />
    <glyph glyph-name="b" unicode="b" horiz-adv-x="375" 
d="M0 624h62v-187h188v-63h62v-250h-62v-62h-250v562v0zM250 374h-188v-250h188v250v0z" />
    <glyph glyph-name="c" unicode="c" horiz-adv-x="375" 
d="M62 437h188v-63h62v-62h-62v62h-188v-250h188v63h62v-63h-62v-62h-188v62h-62v250h62v63v0z" />
    <glyph glyph-name="d" unicode="d" horiz-adv-x="375" 
d="M250 624h62v-562h-250v62h-62v250h62v63h188v187v0zM250 374h-188v-250h188v250v0z" />
    <glyph glyph-name="e" unicode="e" horiz-adv-x="375" 
d="M62 437h188v-63h62v-187h-250v-63h250v-62h-250v62h-62v250h62v63v0zM250 374h-188v-125h188v125v0z" />
    <glyph glyph-name="f" unicode="f" horiz-adv-x="312" 
d="M125 624h125v-62h-125v-125h125v-63h-125v-312h-63v312h-62v63h62v125h63v62v0z" />
    <glyph glyph-name="g" unicode="g" horiz-adv-x="375" 
d="M62 437h250v-438h-62v-62h-188v62h188v125h-188v63h-62v187h62v63v0zM250 374h-188v-187h188v187v0z" />
    <glyph glyph-name="h" unicode="h" horiz-adv-x="375" 
d="M0 624h62v-187h188v-63h62v-312h-62v312h-188v-312h-62v562v0z" />
    <glyph glyph-name="i" unicode="i" horiz-adv-x="187" 
d="M0 562h62v-63h-62v63v0zM0 437h62v-375h-62v375v0z" />
    <glyph glyph-name="j" unicode="j" horiz-adv-x="312" 
d="M125 562h62v-63h-62v63v0zM125 437h62v-438h-62v-62h-125v62h125v438v0z" />
    <glyph glyph-name="k" unicode="k" horiz-adv-x="375" 
d="M0 624h62v-312h125v62h63v63h62v-63h-62v-62h-63v-125h63v-63h62v-62h-62v62h-63v63h-62v62h-63v-187h-62v562v0z" />
    <glyph glyph-name="l" unicode="l" horiz-adv-x="250" 
d="M0 624h125v-562h-63v500h-62v62v0z" />
    <glyph glyph-name="m" unicode="m" horiz-adv-x="375" 
d="M0 437h250v-63h62v-312h-62v312h-63v-312h-62v312h-63v-312h-62v375v0z" />
    <glyph glyph-name="n" unicode="n" horiz-adv-x="375" 
d="M0 437h62v-63h63v63h125v-63h62v-312h-62v312h-125v-62h-63v-250h-62v375v0z" />
    <glyph glyph-name="o" unicode="o" horiz-adv-x="375" 
d="M62 437h188v-63h62v-250h-62v-62h-188v62h-62v250h62v63v0zM250 374h-188v-250h188v250v0z" />
    <glyph glyph-name="p" unicode="p" horiz-adv-x="375" 
d="M0 437h250v-63h62v-187h-62v-63h-188v-187h-62v500v0zM250 374h-188v-187h188v187v0z" />
    <glyph glyph-name="q" unicode="q" horiz-adv-x="375" 
d="M62 437h250v-500h-62v187h-188v63h-62v187h62v63v0zM250 374h-188v-187h188v187v0z" />
    <glyph glyph-name="r" unicode="r" horiz-adv-x="375" 
d="M0 437h62v-63h63v63h125v-63h62v-62h-62v62h-125v-62h-63v-250h-62v375v0z" />
    <glyph glyph-name="s" unicode="s" horiz-adv-x="375" 
d="M62 437h250v-63h-250v-62h188v-63h62v-125h-62v-62h-188v62h-62v63h62v-63h188v125h-188v63h-62v62h62v63v0z" />
    <glyph glyph-name="t" unicode="t" horiz-adv-x="375" 
d="M62 499h63v-62h125v-63h-125v-250h125v-62h-125v62h-63v250h-62v63h62v62v0z" />
    <glyph glyph-name="u" unicode="u" horiz-adv-x="375" 
d="M0 437h62v-313h188v313h62v-375h-250v62h-62v313v0z" />
    <glyph glyph-name="v" unicode="v" horiz-adv-x="375" 
d="M0 437h62v-125h63v-125h62v125h63v125h62v-125h-62v-125h-63v-125h-62v125h-63v125h-62v125v0z" />
    <glyph glyph-name="w" unicode="w" horiz-adv-x="375" 
d="M0 437h62v-313h63v188h62v-188h63v313h62v-313h-62v-62h-63v62h-62v-62h-63v62h-62v313v0z" />
    <glyph glyph-name="x" unicode="x" horiz-adv-x="375" 
d="M0 437h62v-63h63v-62h62v62h63v63h62v-63h-62v-62h-63v-125h63v-63h62v-62h-62v62h-63v63h-62v-63h-63v-62h-62v62h62v63h63v125h-63v62h-62v63v0z" />
    <glyph glyph-name="y" unicode="y" horiz-adv-x="375" 
d="M0 437h62v-250h188v250h62v-438h-62v-62h-188v62h188v125h-188v63h-62v250v0z" />
    <glyph glyph-name="z" unicode="z" horiz-adv-x="375" 
d="M0 437h312v-125h-62v-63h-63v-62h-62v-63h187v-62h-312v62h62v63h63v62h62v63h63v62h-250v63v0z" />
    <glyph glyph-name="asciitilde" unicode="~" horiz-adv-x="375" 
d="M0 375h62v-63h125v63h125v-63h63v-62h-63v62h-125v-62h-125v62h-62v63v0z" />
    <glyph glyph-name="exclamdown" unicode="&#xa1;" horiz-adv-x="250" 
d="M62 562h62v-125h-62v125v0zM62 312h62v-375h-62v375v0z" />
    <glyph glyph-name="yen" unicode="&#xa5;" horiz-adv-x="500" 
d="M0 562h437v-438h-62v-62h-63v62h63v188h-313v-250h-62v500v0zM187 499h-125v-125h125v125v0zM375 499h-125v-125h125v125v0z" />
    <glyph glyph-name="ordfeminine" unicode="&#xaa;" horiz-adv-x="375" 
d="M62 750h188v-63h62v-312h-250v62h-62v125h62v63h188v62h-188v63v0zM250 562h-188v-125h188v125v0z" />
    <glyph glyph-name="degree" unicode="&#xb0;" horiz-adv-x="312" 
d="M62 625h125v-63h63v-125h-63v-62h-125v62h-62v125h62v63v0zM187 562h-125v-125h125v125v0z" />
    <glyph glyph-name="twosuperior" unicode="&#xb2;" horiz-adv-x="500" 
d="M0 750h62v-63h63v63h62v-63h63v63h125v-63h62v-187h-187v-63h125v-62h-125v62h-63v250h-62v-62h-63v-250h-62v375v0zM375 687h-125v-125h125v125v0z" />
    <glyph glyph-name="threesuperior" unicode="&#xb3;" horiz-adv-x="312" 
d="M0 749h62v-62h63v62h125v-62h-125v-63h-63v-187h-62v312v0z" />
    <glyph glyph-name="middot.uni00B7" unicode="&#xb7;" horiz-adv-x="375" 
d="M125 374h62v-62h-62v62v0z" />
    <glyph glyph-name="onesuperior" unicode="&#xb9;" horiz-adv-x="500" 
d="M62 750h125v-63h63v63h62v-63h63v63h62v-63h-62v-62h-63v-250h-62v125h-188v-63h125v-62h-125v62h-62v250h62v63v0zM187 687h-125v-125h125v125v0z" />
    <glyph glyph-name="ordmasculine" unicode="&#xba;" horiz-adv-x="375" 
d="M62 750h188v-63h62v-250h-62v-62h-188v62h-62v250h62v63v0zM250 687h-188v-250h188v250v0z" />
    <glyph glyph-name="questiondown" unicode="&#xbf;" horiz-adv-x="375" 
d="M125 562h62v-125h-62v125v0zM125 374h62v-187h-125v-188h188v188h62v-188h-62v-62h-188v62h-62v188h62v62h63v125v0z" />
    <glyph glyph-name="Agrave" unicode="&#xc0;" horiz-adv-x="375" 
d="M62 812h63v-63h62v-62h-62v62h-63v63v0zM62 624h188v-62h62v-500h-62v250h-188v-250h-62v500h62v62v0zM250 562h-188v-188h188v188v0z" />
    <glyph glyph-name="Aacute" unicode="&#xc1;" horiz-adv-x="375" 
d="M187 812h63v-63h-63v-62h-62v62h62v63v0zM62 624h188v-62h62v-500h-62v250h-188v-250h-62v500h62v62v0zM250 562h-188v-188h188v188v0z" />
    <glyph glyph-name="Acircumflex" unicode="&#xc2;" horiz-adv-x="375" 
d="M125 812h62v-63h63v-62h-63v62h-62v-62h-63v62h63v63v0zM62 624h188v-62h62v-500h-62v250h-188v-250h-62v500h62v62v0zM250 562h-188v-188h188v188v0z" />
    <glyph glyph-name="Atilde" unicode="&#xc3;" horiz-adv-x="375" 
d="M125 812h62v-63h63v63h62v-63h-62v-62h-63v62h-62v-62h-63v62h63v63v0zM62 624h188v-62h62v-500h-62v250h-188v-250h-62v500h62v62v0zM250 562h-188v-188h188v188v0z" />
    <glyph glyph-name="Adieresis" unicode="&#xc4;" horiz-adv-x="375" 
d="M62 749h63v-62h-63v62v0zM187 749h63v-62h-63v62v0zM62 624h188v-62h62v-500h-62v250h-188v-250h-62v500h62v62v0zM250 562h-188v-188h188v188v0z" />
    <glyph glyph-name="Aring" unicode="&#xc5;" horiz-adv-x="375" 
d="M125 812h62v-63h63v-62h-63v-63h63v-62h62v-500h-62v250h-188v-250h-62v500h62v62h63v63h-63v62h63v63v0zM187 749h-62v-62h62v62v0zM250 562h-188v-188h188v188v0z" />
    <glyph glyph-name="AE" unicode="&#xc6;" horiz-adv-x="625" 
d="M62 624h500v-62h-250v-188h250v-62h-250v-188h250v-62h-312v250h-188v-250h-62v500h62v62v0zM250 562h-188v-188h188v188v0z" />
    <glyph glyph-name="Ccedilla" unicode="&#xc7;" horiz-adv-x="375" 
d="M62 624h188v-62h62v-125h-62v125h-188v-438h188v125h62v-125h-62v-62h-63v-125h-125v62h63v63h-63v62h-62v438h62v62v0z" />
    <glyph glyph-name="Egrave" unicode="&#xc8;" horiz-adv-x="375" 
d="M62 812h63v-63h62v-62h-62v62h-63v63v0zM0 624h312v-62h-250v-188h250v-62h-250v-188h250v-62h-312v562v0z" />
    <glyph glyph-name="Eacute" unicode="&#xc9;" horiz-adv-x="375" 
d="M187 812h63v-63h-63v-62h-62v62h62v63v0zM0 624h312v-62h-250v-188h250v-62h-250v-188h250v-62h-312v562v0z" />
    <glyph glyph-name="Ecircumflex" unicode="&#xca;" horiz-adv-x="375" 
d="M125 812h62v-63h63v-62h-63v62h-62v-62h-63v62h63v63v0zM0 624h312v-62h-250v-188h250v-62h-250v-188h250v-62h-312v562v0z" />
    <glyph glyph-name="Edieresis" unicode="&#xcb;" horiz-adv-x="375" 
d="M62 749h63v-62h-63v62v0zM187 749h63v-62h-63v62v0zM0 624h312v-62h-250v-188h250v-62h-250v-188h250v-62h-312v562v0z" />
    <glyph glyph-name="Igrave" unicode="&#xcc;" horiz-adv-x="375" 
d="M62 812h62v-63h63v-62h-63v62h-62v63v0zM62 624h187v-62h-62v-438h62v-62h-187v62h62v438h-62v62v0z" />
    <glyph glyph-name="Iacute" unicode="&#xcd;" horiz-adv-x="375" 
d="M187 812h62v-63h-62v-62h-63v62h63v63v0zM62 624h187v-62h-62v-438h62v-62h-187v62h62v438h-62v62v0z" />
    <glyph glyph-name="Icircumflex" unicode="&#xce;" horiz-adv-x="375" 
d="M124 812h63v-63h62v-62h-62v62h-63v-62h-62v62h62v63v0zM62 624h187v-62h-62v-438h62v-62h-187v62h62v438h-62v62v0z" />
    <glyph glyph-name="Idieresis" unicode="&#xcf;" horiz-adv-x="375" 
d="M62 749h62v-62h-62v62v0zM187 749h62v-62h-62v62v0zM62 624h187v-62h-62v-438h62v-62h-187v62h62v438h-62v62v0z" />
    <glyph glyph-name="Eth" unicode="&#xd0;" horiz-adv-x="375" 
d="M0 624h250v-62h62v-438h-62v-62h-250v562v0zM250 562h-188v-188h125v-62h-125v-188h188v438v0z" />
    <glyph glyph-name="Ntilde" unicode="&#xd1;" horiz-adv-x="375" 
d="M125 812h62v-63h63v63h62v-63h-62v-62h-63v62h-62v-62h-63v62h63v63v0zM0 624h62v-125h63v-125h62v-62h63v312h62v-562h-62v125h-63v125h-62v62h-63v-312h-62v562v0z" />
    <glyph glyph-name="Ograve" unicode="&#xd2;" horiz-adv-x="375" 
d="M62 812h63v-63h62v-62h-62v62h-63v63v0zM62 624h188v-62h62v-438h-62v-62h-188v62h-62v438h62v62v0zM250 562h-188v-438h188v438v0z" />
    <glyph glyph-name="Oacute" unicode="&#xd3;" horiz-adv-x="375" 
d="M187 812h63v-63h-63v-62h-62v62h62v63v0zM62 624h188v-62h62v-438h-62v-62h-188v62h-62v438h62v62v0zM250 562h-188v-438h188v438v0z" />
    <glyph glyph-name="Ocircumflex" unicode="&#xd4;" horiz-adv-x="375" 
d="M125 812h62v-63h63v-62h-63v62h-62v-62h-63v62h63v63v0zM62 624h188v-62h62v-438h-62v-62h-188v62h-62v438h62v62v0zM250 562h-188v-438h188v438v0z" />
    <glyph glyph-name="Otilde" unicode="&#xd5;" horiz-adv-x="375" 
d="M125 812h62v-63h63v63h62v-63h-62v-62h-63v62h-62v-62h-63v62h63v63v0zM62 624h188v-62h62v-438h-62v-62h-188v62h-62v438h62v62v0zM250 562h-188v-438h188v438v0z" />
    <glyph glyph-name="Odieresis" unicode="&#xd6;" horiz-adv-x="375" 
d="M62 749h63v-62h-63v62v0zM187 749h63v-62h-63v62v0zM62 624h188v-62h62v-438h-62v-62h-188v62h-62v438h62v62v0zM250 562h-188v-438h188v438v0z" />
    <glyph glyph-name="multiply" unicode="&#xd7;" horiz-adv-x="375" 
d="M0 499h62v-62h63v-63h62v63h63v62h62v-62h-62v-63h-63v-62h63v-63h62v-62h-62v62h-63v63h-62v-63h-63v-62h-62v62h62v63h63v62h-63v63h-62v62v0z" />
    <glyph glyph-name="Oslash" unicode="&#xd8;" horiz-adv-x="375" 
d="M250 625h62v-63h-62v-62h62v-375h-62v-63h-188v-62h-62v62h62v63h-62v375h62v62h188v63v0zM187 500h-125v-250h63v125h62v125v0zM250 375h-63v-125h-62v-125h125v250v0z" />
    <glyph glyph-name="Ugrave" unicode="&#xd9;" horiz-adv-x="375" 
d="M62 812h63v-63h62v-62h-62v62h-63v63v0zM0 624h62v-500h188v500h62v-500h-62v-62h-188v62h-62v500v0z" />
    <glyph glyph-name="Uacute" unicode="&#xda;" horiz-adv-x="375" 
d="M187 812h63v-63h-63v-62h-62v62h62v63v0zM0 624h62v-500h188v500h62v-500h-62v-62h-188v62h-62v500v0z" />
    <glyph glyph-name="Ucircumflex" unicode="&#xdb;" horiz-adv-x="375" 
d="M125 812h62v-63h63v-62h-63v62h-62v-62h-63v62h63v63v0zM0 624h62v-500h188v500h62v-500h-62v-62h-188v62h-62v500v0z" />
    <glyph glyph-name="Udieresis" unicode="&#xdc;" horiz-adv-x="375" 
d="M62 749h63v-62h-63v62v0zM187 749h63v-62h-63v62v0zM0 624h62v-500h188v500h62v-500h-62v-62h-188v62h-62v500v0z" />
    <glyph glyph-name="Yacute" unicode="&#xdd;" horiz-adv-x="375" 
d="M187 812h63v-63h-63v-62h-62v62h62v63v0zM0 624h62v-187h63v-125h62v125h63v187h62v-187h-62v-125h-63v-250h-62v250h-63v125h-62v187v0z" />
    <glyph glyph-name="Thorn" unicode="&#xde;" horiz-adv-x="375" 
d="M0 624h62v-125h188v-62h62v-188h-62v-62h-188v-125h-62v562v0zM250 437h-188v-188h188v188v0z" />
    <glyph glyph-name="germandbls" unicode="&#xdf;" horiz-adv-x="375" 
d="M62 562h125v-62h63v-188h62v-187h-62v-63h-125v63h125v187h-125v63h62v125h-125v-500h-62v500h62v62v0z" />
    <glyph glyph-name="agrave" unicode="&#xe0;" horiz-adv-x="375" 
d="M62 624h63v-62h62v-63h-62v63h-63v62v0zM62 437h188v-63h62v-312h-250v62h-62v125h62v63h188v62h-188v63v0zM250 249h-188v-125h188v125v0z" />
    <glyph glyph-name="aacute" unicode="&#xe1;" horiz-adv-x="375" 
d="M187 624h63v-62h-63v-63h-62v63h62v62v0zM62 437h188v-63h62v-312h-250v62h-62v125h62v63h188v62h-188v63v0zM250 249h-188v-125h188v125v0z" />
    <glyph glyph-name="acircumflex" unicode="&#xe2;" horiz-adv-x="375" 
d="M125 624h62v-62h63v-63h-63v63h-62v-63h-63v63h63v62v0zM62 437h188v-63h62v-312h-250v62h-62v125h62v63h188v62h-188v63v0zM250 249h-188v-125h188v125v0z" />
    <glyph glyph-name="atilde" unicode="&#xe3;" horiz-adv-x="375" 
d="M125 624h62v-62h63v62h62v-62h-62v-63h-63v63h-62v-63h-63v63h63v62v0zM62 437h188v-63h62v-312h-250v62h-62v125h62v63h188v62h-188v63v0zM250 249h-188v-125h188v125v0z" />
    <glyph glyph-name="adieresis" unicode="&#xe4;" horiz-adv-x="375" 
d="M62 562h63v-63h-63v63v0zM187 562h63v-63h-63v63v0zM62 437h188v-63h62v-312h-250v62h-62v125h62v63h188v62h-188v63v0zM250 249h-188v-125h188v125v0z" />
    <glyph glyph-name="aring" unicode="&#xe5;" horiz-adv-x="375" 
d="M125 624h62v-62h63v-63h-63v-62h63v-63h62v-312h-250v62h-62v125h62v63h188v62h-188v63h63v62h-63v63h63v62v0zM187 562h-62v-63h62v63v0zM250 249h-188v-125h188v125v0z" />
    <glyph glyph-name="ae" unicode="&#xe6;" horiz-adv-x="625" 
d="M62 437h188v-63h62v63h188v-63h62v-187h-250v-63h250v-62h-500v62h-62v125h62v63h188v62h-188v63v0zM500 374h-188v-125h188v125v0zM250 249h-188v-125h188v125v0z" />
    <glyph glyph-name="ccedilla" unicode="&#xe7;" horiz-adv-x="375" 
d="M62 437h188v-63h62v-62h-62v62h-188v-250h188v63h62v-63h-62v-62h-63v-125h-125v62h63v63h-63v62h-62v250h62v63v0z" />
    <glyph glyph-name="egrave" unicode="&#xe8;" horiz-adv-x="375" 
d="M62 624h63v-62h62v-63h-62v63h-63v62v0zM62 437h188v-63h62v-187h-250v-63h250v-62h-250v62h-62v250h62v63v0zM250 374h-188v-125h188v125v0z" />
    <glyph glyph-name="eacute" unicode="&#xe9;" horiz-adv-x="375" 
d="M187 624h63v-62h-63v-63h-62v63h62v62v0zM62 437h188v-63h62v-187h-250v-63h250v-62h-250v62h-62v250h62v63v0zM250 374h-188v-125h188v125v0z" />
    <glyph glyph-name="ecircumflex" unicode="&#xea;" horiz-adv-x="375" 
d="M125 624h62v-62h63v-63h-63v63h-62v-63h-63v63h63v62v0zM62 437h188v-63h62v-187h-250v-63h250v-62h-250v62h-62v250h62v63v0zM250 374h-188v-125h188v125v0z" />
    <glyph glyph-name="edieresis" unicode="&#xeb;" horiz-adv-x="375" 
d="M62 562h63v-63h-63v63v0zM187 562h63v-63h-63v63v0zM62 437h188v-63h62v-187h-250v-63h250v-62h-250v62h-62v250h62v63v0zM250 374h-188v-125h188v125v0z" />
    <glyph glyph-name="igrave" unicode="&#xec;" horiz-adv-x="250" 
d="M62 687h62v-63h63v-62h-63v62h-62v63v0zM62 437h62v-375h-62v375v0z" />
    <glyph glyph-name="iacute" unicode="&#xed;" horiz-adv-x="250" 
d="M124 687h63v-63h-63v-62h-62v62h62v63v0zM62 437h62v-375h-62v375v0z" />
    <glyph glyph-name="icircumflex" unicode="&#xee;" horiz-adv-x="250" 
d="M62 687h63v-63h62v-62h-62v62h-63v-62h-62v62h62v63v0zM62 437h63v-375h-63v375v0z" />
    <glyph glyph-name="idieresis" unicode="&#xef;" horiz-adv-x="250" 
d="M0 624h62v-62h-62v62v0zM125 624h62v-62h-62v62v0zM62 437h63v-375h-63v375v0z" />
    <glyph glyph-name="eth" unicode="&#xf0;" horiz-adv-x="375" 
d="M62 624h125v-62h63v62h62v-62h-62v-63h62v-375h-62v-62h-188v62h-62v188h62v62h188v125h-63v-62h-62v62h62v63h-125v62v0zM250 312h-188v-188h188v188v0z" />
    <glyph glyph-name="ntilde" unicode="&#xf1;" horiz-adv-x="375" 
d="M125 624h62v-62h63v62h62v-62h-62v-63h-63v63h-62v-63h-63v63h63v62v0zM0 437h62v-63h63v63h125v-63h62v-312h-62v312h-125v-62h-63v-250h-62v375v0z" />
    <glyph glyph-name="ograve" unicode="&#xf2;" horiz-adv-x="375" 
d="M62 624h63v-62h62v-63h-62v63h-63v62v0zM62 437h188v-63h62v-250h-62v-62h-188v62h-62v250h62v63v0zM250 374h-188v-250h188v250v0z" />
    <glyph glyph-name="oacute" unicode="&#xf3;" horiz-adv-x="375" 
d="M187 624h63v-62h-63v-63h-62v63h62v62v0zM62 437h188v-63h62v-250h-62v-62h-188v62h-62v250h62v63v0zM250 374h-188v-250h188v250v0z" />
    <glyph glyph-name="ocircumflex" unicode="&#xf4;" horiz-adv-x="375" 
d="M125 624h62v-62h63v-63h-63v63h-62v-63h-63v63h63v62v0zM62 437h188v-63h62v-250h-62v-62h-188v62h-62v250h62v63v0zM250 374h-188v-250h188v250v0z" />
    <glyph glyph-name="otilde" unicode="&#xf5;" horiz-adv-x="375" 
d="M125 624h62v-62h63v62h62v-62h-62v-63h-63v63h-62v-63h-63v63h63v62v0zM62 437h188v-63h62v-250h-62v-62h-188v62h-62v250h62v63v0zM250 374h-188v-250h188v250v0z" />
    <glyph glyph-name="odieresis" unicode="&#xf6;" horiz-adv-x="375" 
d="M62 562h63v-63h-63v63v0zM187 562h63v-63h-63v63v0zM62 437h188v-63h62v-250h-62v-62h-188v62h-62v250h62v63v0zM250 374h-188v-250h188v250v0z" />
    <glyph glyph-name="divide" unicode="&#xf7;" horiz-adv-x="375" 
d="M125 562h62v-62h-62v62v0zM0 375h312v-63h-312v63v0zM125 187h62v-62h-62v62v0z" />
    <glyph glyph-name="oslash" unicode="&#xf8;" horiz-adv-x="375" 
d="M250 500h62v-63h-62v-62h62v-250h-62v-63h-188v-62h-62v62h62v63h-62v250h62v62h188v63v0zM187 375h-125v-188h63v125h62v63v0zM250 312h-63v-125h-62v-62h125v187v0z" />
    <glyph glyph-name="ugrave" unicode="&#xf9;" horiz-adv-x="375" 
d="M62 624h63v-62h62v-63h-62v63h-63v62v0zM0 437h62v-313h188v313h62v-375h-250v62h-62v313v0z" />
    <glyph glyph-name="uacute" unicode="&#xfa;" horiz-adv-x="375" 
d="M187 624h63v-62h-63v-63h-62v63h62v62v0zM0 437h62v-313h188v313h62v-375h-250v62h-62v313v0z" />
    <glyph glyph-name="ucircumflex" unicode="&#xfb;" horiz-adv-x="375" 
d="M125 624h62v-62h63v-63h-63v63h-62v-63h-63v63h63v62v0zM0 437h62v-313h188v313h62v-375h-250v62h-62v313v0z" />
    <glyph glyph-name="udieresis" unicode="&#xfc;" horiz-adv-x="375" 
d="M62 562h63v-63h-63v63v0zM187 562h63v-63h-63v63v0zM0 437h62v-313h188v313h62v-375h-250v62h-62v313v0z" />
    <glyph glyph-name="yacute" unicode="&#xfd;" horiz-adv-x="375" 
d="M187 624h63v-62h-63v-63h-62v63h62v62v0zM0 437h62v-250h188v250h62v-438h-62v-62h-188v62h188v125h-188v63h-62v250v0z" />
    <glyph glyph-name="thorn" unicode="&#xfe;" horiz-adv-x="375" 
d="M0 624h62v-187h188v-63h62v-187h-62v-63h-188v-187h-62v687v0zM250 374h-188v-187h188v187v0z" />
    <glyph glyph-name="ydieresis" unicode="&#xff;" horiz-adv-x="375" 
d="M62 562h63v-63h-63v63v0zM187 562h63v-63h-63v63v0zM0 437h62v-250h188v250h62v-438h-62v-62h-188v62h188v125h-188v63h-62v250v0z" />
    <glyph glyph-name="OE" unicode="&#x152;" horiz-adv-x="625" 
d="M62 624h500v-62h-250v-188h250v-62h-250v-188h250v-62h-500v62h-62v438h62v62v0zM250 562h-188v-438h188v438v0z" />
    <glyph glyph-name="oe" unicode="&#x153;" horiz-adv-x="625" 
d="M62 437h188v-63h62v63h188v-63h62v-187h-250v-63h250v-62h-250v62h-62v-62h-188v62h-62v250h62v63v0zM250 374h-188v-250h188v250v0zM500 374h-188v-125h188v125v0z" />
    <glyph glyph-name="Scedilla" unicode="&#x15e;" horiz-adv-x="375" 
d="M62 624h188v-62h62v-63h-62v63h-188v-188h188v-62h62v-188h-62v-62h-63v-125h-125v62h63v63h-63v62h-62v63h62v-63h188v188h-188v62h-62v188h62v62v0z" />
    <glyph glyph-name="scedilla" unicode="&#x15f;" horiz-adv-x="375" 
d="M62 437h250v-63h-250v-62h188v-63h62v-125h-62v-62h-63v-125h-125v62h63v63h-63v62h-62v63h62v-63h188v125h-188v63h-62v62h62v63v0z" />
    <glyph glyph-name="uni1100" unicode="&#x1100;" horiz-adv-x="687" 
d="M62 687h500v-562h-63v500h-437v62v0z" />
    <glyph glyph-name="uni1101" unicode="&#x1101;" horiz-adv-x="687" 
d="M0 687h250v-562h-63v500h-187v62v0zM312 687h250v-562h-62v500h-188v62v0z" />
    <glyph glyph-name="uni1102" unicode="&#x1102;" horiz-adv-x="687" 
d="M62 687h62v-500h438v-62h-500v562v0z" />
    <glyph glyph-name="uni1103" unicode="&#x1103;" horiz-adv-x="687" 
d="M62 687h500v-62h-438v-438h438v-62h-500v562v0z" />
    <glyph glyph-name="uni1104" unicode="&#x1104;" 
d="M0 687h250v-62h-188v-438h188v-62h-250v562v0zM312 687h250v-62h-187v-438h187v-62h-250v562v0z" />
    <glyph glyph-name="uni1105" unicode="&#x1105;" horiz-adv-x="687" 
d="M62 687h500v-312h-438v-188h438v-62h-500v312h437v188h-437v62v0z" />
    <glyph glyph-name="uni1106" unicode="&#x1106;" horiz-adv-x="687" 
d="M62 687h500v-562h-500v562v0zM499 625h-375v-438h375v438v0z" />
    <glyph glyph-name="uni1107" unicode="&#x1107;" horiz-adv-x="687" 
d="M62 687h62v-187h375v187h63v-562h-500v562v0zM499 437h-375v-250h375v250v0z" />
    <glyph glyph-name="uni1108" unicode="&#x1108;" horiz-adv-x="687" 
d="M0 687h62v-187h125v187h63v-562h-250v562v0zM312 687h63v-187h125v187h62v-562h-250v562v0zM187 437h-125v-250h125v250v0zM500 437h-125v-250h125v250v0z" />
    <glyph glyph-name="uni1109" unicode="&#x1109;" 
d="M250 687h62v-187h63v-125h62v-125h63v-63h62v-62h-62v62h-63v63h-62v125h-63v125h-62v-125h-63v-125h-62v-63h-63v-62h-62v62h62v63h63v125h62v125h63v187v0z" />
    <glyph glyph-name="uni110A" unicode="&#x110a;" 
d="M125 687h62v-187h63v-250h62v250h63v187h62v-187h63v-250h62v-125h-62v125h-63v250h-62v-250h-63v-125h-62v125h-63v250h-62v-250h-63v-125h-62v125h62v250h63v187v0z" />
    <glyph glyph-name="uni110B" unicode="&#x110b;" 
d="M125 687h312v-62h63v-63h62v-312h-62v-63h-63v-62h-312v62h-63v63h-62v312h62v63h63v62v0zM437 625h-312v-63h-63v-312h63v-63h312v63h63v312h-63v63v0z" />
    <glyph glyph-name="uni110C" unicode="&#x110c;" 
d="M0 687h562v-62h-250v-125h63v-125h62v-125h63v-63h62v-62h-62v62h-63v63h-62v125h-63v125h-62v-125h-63v-125h-62v-63h-63v-62h-62v62h62v63h63v125h62v125h63v125h-250v62v0z" />
    <glyph glyph-name="uni110D" unicode="&#x110d;" 
d="M0 687h562v-62h-125v-125h63v-250h62v-125h-62v125h-63v250h-62v-250h-63v-125h-62v125h-63v250h-62v-250h-63v-125h-62v125h62v250h63v125h-125v62v0zM375 625h-188v-125h63v-250h62v250h63v125v0z" />
    <glyph glyph-name="uni110E" unicode="&#x110e;" 
d="M125 687h312v-62h-312v62v0zM0 562h562v-62h-250v-125h63v-63h62v-62h63v-63h62v-62h-62v62h-63v63h-62v62h-63v63h-62v-63h-63v-62h-62v-63h-63v-62h-62v62h62v63h63v62h62v63h63v125h-250v62v0z" />
    <glyph glyph-name="uni110F" unicode="&#x110f;" horiz-adv-x="687" 
d="M62 687h500v-375h-63v-62h-62v-63h-63v-62h-62v62h62v63h63v62h62v125h-437v63h437v125h-437v62v0z" />
    <glyph glyph-name="uni1110" unicode="&#x1110;" horiz-adv-x="687" 
d="M62 687h500v-62h-438v-188h375v-62h-375v-188h438v-62h-500v562v0z" />
    <glyph glyph-name="uni1111" unicode="&#x1111;" horiz-adv-x="687" 
d="M62 687h500v-62h-500v62v0zM124 562h63v-187h62v-188h125v188h63v187h62v-187h-62v-188h125v-62h-500v62h125v188h-63v187v0z" />
    <glyph glyph-name="uni1112" unicode="&#x1112;" 
d="M125 687h312v-62h-312v62v0zM0 562h562v-62h-562v62v0zM125 437h312v-62h63v-188h-63v-62h-312v62h-63v188h63v62v0zM437 375h-312v-188h312v188v0z" />
    <glyph glyph-name="uni1161" unicode="&#x1161;" 
d="M187 687h62v-250h188v-63h-188v-312h-62v625v0z" />
    <glyph glyph-name="uni1162" unicode="&#x1162;" 
d="M187 687h62v-250h125v250h63v-625h-63v312h-125v-250h-62v563v0z" />
    <glyph glyph-name="uni1163" unicode="&#x1163;" 
d="M187 687h62v-188h188v-62h-188v-125h188v-63h-188v-187h-62v625v0z" />
    <glyph glyph-name="uni1164" unicode="&#x1164;" 
d="M187 687h62v-188h125v188h63v-625h-63v187h-125v-125h-62v563v0zM374 437h-125v-125h125v125v0z" />
    <glyph glyph-name="uni1165" unicode="&#x1165;" 
d="M374 687h63v-625h-63v312h-187v63h187v250v0z" />
    <glyph glyph-name="uni1166" unicode="&#x1166;" horiz-adv-x="687" 
d="M250 687h62v-563h-62v250h-125v63h125v250v0zM437 687h63v-625h-63v625v0z" />
    <glyph glyph-name="uni1167" unicode="&#x1167;" 
d="M374 687h63v-625h-63v187h-187v63h187v125h-187v62h187v188v0z" />
    <glyph glyph-name="uni1168" unicode="&#x1168;" horiz-adv-x="687" 
d="M250 687h62v-563h-62v125h-125v63h125v125h-125v62h125v188v0zM437 687h63v-625h-63v625v0z" />
    <glyph glyph-name="uni1169" unicode="&#x1169;" 
d="M250 499h62v-250h250v-62h-562v62h250v250v0z" />
    <glyph glyph-name="uni116D" unicode="&#x116d;" 
d="M125 499h62v-250h188v250h62v-250h125v-62h-562v62h125v250v0z" />
    <glyph glyph-name="uni116E" unicode="&#x116e;" 
d="M0 499h562v-62h-250v-250h-62v250h-250v62v0z" />
    <glyph glyph-name="uni1172" unicode="&#x1172;" 
d="M0 499h562v-62h-125v-250h-62v250h-188v-250h-62v250h-125v62v0z" />
    <glyph glyph-name="uni1173" unicode="&#x1173;" horiz-adv-x="687" 
d="M0 312h562v-62h-562v62v0z" />
    <glyph glyph-name="uni1175" unicode="&#x1175;" horiz-adv-x="687" 
d="M312 687h62v-625h-62v625v0z" />
    <glyph glyph-name="quoteleft" unicode="&#x2018;" horiz-adv-x="312" 
d="M124 687h63v-63h-63v-62h63v-125h-125v187h62v63v0z" />
    <glyph glyph-name="quoteright" unicode="&#x2019;" horiz-adv-x="312" 
d="M62 687h125v-188h-63v-62h-62v62h62v63h-62v125v0z" />
    <glyph glyph-name="quotedblleft" unicode="&#x201c;" horiz-adv-x="375" 
d="M62 687h63v-63h-63v-62h63v-125h-125v187h62v63v0zM250 687h62v-63h-62v-62h62v-125h-125v187h63v63v0z" />
    <glyph glyph-name="quotedblright" unicode="&#x201d;" horiz-adv-x="375" 
d="M0 687h125v-188h-63v-62h-62v62h62v63h-62v125v0zM187 687h125v-188h-62v-62h-63v62h63v63h-63v125v0z" />
    <glyph glyph-name="quotedblbase" unicode="&#x201e;" horiz-adv-x="375" 
d="M0 187h125v-188h-63v-62h-62v62h62v63h-62v125v0zM187 187h125v-188h-62v-62h-63v62h63v63h-63v125v0z" />
    <glyph glyph-name="uni2023" unicode="&#x2023;" horiz-adv-x="375" 
d="M0 624h62v-62h63v-63h62v-62h63v-63h62v-62h-62v-63h-63v-62h-62v-63h-63v-62h-62v562v0z" />
    <glyph glyph-name="ellipsis" unicode="&#x2026;" horiz-adv-x="375" 
d="M0 124h62v-62h-62v62v0zM125 124h62v-62h-62v62v0zM250 124h62v-62h-62v62v0z" />
    <glyph glyph-name="uni2074" unicode="&#x2074;" horiz-adv-x="312" 
d="M62 750h125v-63h63v-187h-188v-63h125v-62h-125v62h-62v250h62v63v0zM187 687h-125v-125h125v125v0z" />
    <glyph glyph-name="uni20A6" unicode="&#x20a6;" horiz-adv-x="750" 
d="M0 749h62v-125h63v-125h62v125h63v125h62v-500h-62v250h-63v-125h-62v125h-63v-250h-62v500v0zM375 437h62v-63h63v-125h62v-125h63v313h62v-500h-62v62h-63v125h-62v125h-63v-312h-62v500v0z" />
    <glyph glyph-name="peseta" unicode="&#x20a7;" horiz-adv-x="750" 
d="M0 749h250v-62h62v-188h-62v-62h-188v-188h-62v500v0zM250 687h-188v-188h188v188v0zM375 437h62v-188h63v63h62v62h63v63h62v-63h-62v-62h-63v-63h-62v-62h62v-63h63v-62h62v-125h-62v125h-63v62h-62v63h-63v-250h-62v500v0z" />
    <glyph glyph-name="arrowleft" unicode="&#x2190;" horiz-adv-x="437" 
d="M125 499h62v-125h188v-62h-188v-125h-62v62h-63v63h-62v62h62v63h63v62v0z" />
    <glyph glyph-name="arrowup" unicode="&#x2191;" horiz-adv-x="375" 
d="M125 562h62v-63h63v-62h62v-63h-125v-187h-62v187h-125v63h62v62h63v63v0z" />
    <glyph glyph-name="arrowright" unicode="&#x2192;" horiz-adv-x="437" 
d="M187 499h63v-62h62v-63h63v-62h-63v-63h-62v-62h-63v125h-187v62h187v125v0z" />
    <glyph glyph-name="arrowdown" unicode="&#x2193;" horiz-adv-x="375" 
d="M125 500h62v-188h125v-62h-62v-63h-63v-62h-62v62h-63v63h-62v62h125v188v0z" />
    <glyph glyph-name="uni2197" unicode="&#x2197;" horiz-adv-x="375" 
d="M125 624h62v-62h63v-63h62v-62h-125v-250h-62v-63h-63v-62h-62v62h62v63h63v250h-125v62h62v63h63v62v0z" />
    <glyph glyph-name="uni2198" unicode="&#x2198;" horiz-adv-x="375" 
d="M0 624h62v-62h63v-63h62v-250h125v-62h-62v-63h-63v-62h-62v62h-63v63h-62v62h125v250h-63v63h-62v62v0z" />
    <glyph glyph-name="uni21D7" unicode="&#x21d7;" horiz-adv-x="500" 
d="M250 624h62v-62h63v-63h62v-62h-125v-250h-62v-63h-63v-62h-187v62h187v63h63v250h-125v62h62v63h63v62v0z" />
    <glyph glyph-name="uni21D8" unicode="&#x21d8;" horiz-adv-x="500" 
d="M0 624h187v-62h63v-63h62v-250h125v-62h-62v-63h-63v-62h-62v62h-63v63h-62v62h125v250h-63v63h-187v62v0z" />
    <glyph glyph-name="circlemultiply" unicode="&#x2297;" horiz-adv-x="500" 
d="M0 562h62v-62h63v-63h62v-62h63v62h62v63h63v62h62v-62h-62v-63h-63v-62h-62v-63h62v-62h63v-63h62v-62h-62v62h-63v63h-62v62h-63v-62h-62v-63h-63v-62h-62v62h62v63h63v62h62v63h-62v62h-63v63h-62v62v0z" />
    <glyph glyph-name="uni2298" unicode="&#x2298;" horiz-adv-x="500" 
d="M187 562h63v-62h-63v62v0zM0 375h437v-63h-437v63v0zM187 187h63v-62h-63v62v0z" />
    <glyph glyph-name="uni22EF" unicode="&#x22ef;" horiz-adv-x="562" 
d="M0 374h62v-62h-62v62v0zM187 374h63v-62h-63v62v0zM375 374h62v-62h-62v62v0z" />
    <glyph glyph-name="filledbox" unicode="&#x25a0;" horiz-adv-x="375" 
d="M0 625h312v-500h-312v500v0zM250 562h-188v-375h188v375v0z" />
    <glyph glyph-name="H22073" unicode="&#x25a1;" horiz-adv-x="500" 
d="M0 625h437v-500h-437v500v0zM375 562h-313v-375h313v375v0z" />
    <glyph glyph-name="triagup" unicode="&#x25b2;" horiz-adv-x="375" 
d="M125 625h62v-63h63v-250h62v-187h-312v187h62v250h63v63v0zM187 562h-62v-250h-63v-125h188v125h-63v250v0z" />
    <glyph glyph-name="uni25B3" unicode="&#x25b3;" horiz-adv-x="500" 
d="M187 625h63v-63h62v-125h63v-187h62v-125h-437v125h62v187h63v125h62v63v0zM250 562h-63v-125h-62v-187h-63v-63h313v63h-63v187h-62v125v0z" />
    <glyph glyph-name="uni25C6" unicode="&#x25c6;" horiz-adv-x="375" 
d="M125 625h62v-63h63v-125h62v-125h-62v-125h-63v-62h-62v62h-63v125h-62v125h62v125h63v63v0zM187 562h-62v-125h-63v-125h63v-125h62v125h63v125h-63v125v0z" />
    <glyph glyph-name="uni25C7" unicode="&#x25c7;" horiz-adv-x="500" 
d="M187 625h63v-63h62v-62h63v-63h62v-125h-62v-62h-63v-63h-62v-62h-63v62h-62v63h-63v62h-62v125h62v63h63v62h62v63v0zM250 562h-63v-62h-62v-63h-63v-125h63v-62h62v-63h63v63h62v62h63v125h-63v63h-62v62v0z" />
    <glyph glyph-name="uni25C9" unicode="&#x25c9;" horiz-adv-x="375" 
d="M62 624h188v-62h62v-438h-62v-62h-188v62h-62v438h62v62v0zM250 562h-188v-438h188v438v0zM125 437h62v-188h-62v188v0z" />
    <glyph glyph-name="circle" unicode="&#x25cb;" horiz-adv-x="500" 
d="M125 624h187v-62h63v-63h62v-312h-62v-63h-63v-62h-187v62h-63v63h-62v312h62v63h63v62v0zM312 562h-187v-63h-63v-312h63v-63h187v63h63v312h-63v63v0z" />
    <glyph glyph-name="uni25CE" unicode="&#x25ce;" horiz-adv-x="500" 
d="M125 624h187v-62h63v-63h62v-312h-62v-63h-63v-62h-187v62h-63v63h-62v312h62v63h63v62v0zM312 562h-187v-63h-63v-312h63v-63h187v63h63v312h-63v63v0zM187 499h63v-62h62v-188h-62v-62h-63v62h-62v188h62v62v0zM250 437h-63v-188h63v188v0z" />
    <glyph glyph-name="H18533" unicode="&#x25cf;" horiz-adv-x="375" 
d="M62 624h188v-62h62v-438h-62v-62h-188v62h-62v438h62v62v0zM250 562h-188v-438h188v438v0z" />
    <glyph glyph-name="uni2600" unicode="&#x2600;" horiz-adv-x="375" 
d="M62 562h63v-62h-63v62v0zM250 562h62v-62h-62v62v0zM125 437h125v-187h-125v187v0zM0 375h62v-63h-62v63v0zM312 375h63v-63h-63v63v0zM62 187h63v-62h-63v62v0zM250 187h62v-62h-62v62v0z" />
    <glyph glyph-name="uni2601" unicode="&#x2601;" horiz-adv-x="375" 
d="M125 624h125v-62h62v-188h-62v-62h62v-125h-62v-63h62v-62h-187v62h-63v63h-62v187h62v188h63v62v0z" />
    <glyph glyph-name="uni2602" unicode="&#x2602;" horiz-adv-x="375" 
d="M125 624h62v-62h63v-125h62v-188h-62v63h-63v-188h63v63h62v-63h-62v-62h-63v62h-62v188h-63v-63h-62v188h62v125h63v62v0z" />
    <glyph glyph-name="uni2603" unicode="&#x2603;" horiz-adv-x="375" 
d="M62 624h188v-62h62v-188h-62v-62h62v-188h-62v-62h-188v62h-62v188h62v62h-62v188h62v62v0z" />
    <glyph glyph-name="uni2605" unicode="&#x2605;" horiz-adv-x="375" 
d="M125 625h62v-125h125v-63h-62v-62h-63v-63h63v-187h-63v62h-62v-62h-63v187h63v63h-63v62h-62v63h125v125v0z" />
    <glyph glyph-name="uni2606" unicode="&#x2606;" horiz-adv-x="500" 
d="M187 625h63v-125h187v-63h-62v-62h-63v-125h63v-125h-63v62h-62v63h-63v-63h-62v-62h-63v125h63v125h-63v62h-62v63h187v125v0z" />
    <glyph glyph-name="uni260A" unicode="&#x260a;" horiz-adv-x="500" 
d="M0 500h62v-63h63v-62h-63v62h-62v63v0zM375 500h62v-63h-62v-62h-63v62h63v63v0zM125 250h187v-63h63v-62h-63v62h-187v-62h-63v62h63v63v0z" />
    <glyph glyph-name="uni260B" unicode="&#x260b;" horiz-adv-x="500" 
d="M62 562h63v-187h-63v187v0zM312 562h63v-187h-63v187v0zM0 250h62v-63h313v63h62v-63h-62v-62h-313v62h-62v63v0z" />
    <glyph glyph-name="uni2614" unicode="&#x2614;" horiz-adv-x="500" 
d="M125 624h125v-125h62v-125h63v-125h-63v-125h125v-62h-250v62h-125v63h-62v187h62v188h63v62v0z" />
    <glyph glyph-name="uni2630" unicode="&#x2630;" horiz-adv-x="500" 
d="M187 624h63v-62h62v-63h63v-62h62v-188h-62v63h-63v-63h-62v-125h62v63h63v-63h-63v-62h-62v62h-63v125h-62v63h-63v-63h-62v188h62v62h63v63h62v62v0z" />
    <glyph glyph-name="uni2639" unicode="&#x2639;" horiz-adv-x="375" 
d="M0 500h62v-63h63v-62h-63v62h-62v63v0zM250 500h62v-63h-62v-62h-63v62h63v63v0zM125 250h62v-63h63v-62h-63v62h-62v-62h-63v62h63v63v0z" />
    <glyph glyph-name="smileface" unicode="&#x263a;" horiz-adv-x="375" 
d="M0 562h62v-187h-62v187v0zM187 562h63v-187h-63v187v0zM0 250h62v-63h188v63h62v-63h-62v-62h-188v62h-62v63v0z" />
    <glyph glyph-name="sun" unicode="&#x263c;" horiz-adv-x="500" 
d="M187 624h63v-62h-63v62v0zM62 562h63v-63h-63v63v0zM312 562h63v-63h-63v63v0zM187 499h63v-62h62v-188h-62v-62h-63v62h-62v188h62v62v0zM0 374h62v-62h-62v62v0zM375 374h62v-62h-62v62v0zM62 187h63v-63h-63v63v0zM312 187h63v-63h-63v63v0zM187 124h63v-62h-63v62v0z
" />
    <glyph glyph-name="uni263D" unicode="&#x263d;" horiz-adv-x="375" 
d="M0 624h250v-62h-63v-63h-62v-62h125v-63h-250v63h62v62h63v63h-125v62v0zM62 312h250v-63h-62v-62h-63v-63h125v-62h-250v62h63v63h62v62h-125v63v0z" />
    <glyph glyph-name="uni263E" unicode="&#x263e;" horiz-adv-x="500" 
d="M0 624h250v-62h-63v-63h-62v-62h125v-63h-250v63h62v62h63v63h-125v62v0zM187 312h250v-63h-62v-62h-63v-63h125v-62h-250v62h63v63h62v62h-125v63v0z" />
    <glyph glyph-name="female" unicode="&#x2640;" horiz-adv-x="375" 
d="M62 624h188v-62h62v-188h-62v-62h-63v-63h125v-62h-125v-125h-62v125h-125v62h125v63h-63v62h-62v188h62v62v0zM250 562h-188v-188h188v188v0z" />
    <glyph glyph-name="male" unicode="&#x2642;" horiz-adv-x="375" 
d="M125 624h62v-62h63v-63h62v-62h-62v62h-63v-125h63v-62h62v-188h-62v-62h-188v62h-62v188h62v62h63v125h-63v-62h-62v62h62v63h63v62v0zM250 312h-188v-188h188v188v0z" />
    <glyph glyph-name="uni2648" unicode="&#x2648;" horiz-adv-x="687" 
d="M124 624h375v-125h-62v-62h-250v62h-63v125v0zM124 374h375v-62h63v-188h-63v-62h-375v62h-62v188h62v62v0z" />
    <glyph glyph-name="uni2649" unicode="&#x2649;" horiz-adv-x="750" 
d="M437 624h125v-62h62v-63h63v-125h-63v63h-62v-125h-63v62h-62v-250h-63v-62h-250v62h-62v250h62v63h188v62h62v63h63v62v0zM562 499h-63v-62h63v62v0zM437 437h-63v-63h63v63v0zM312 312h-125v-125h125v125v0z" />
    <glyph glyph-name="uni264A" unicode="&#x264a;" horiz-adv-x="687" 
d="M187 624h312v-62h63v-63h62v-312h-62v-63h-63v-62h-312v62h-63v63h-62v312h62v63h63v62v0zM437 562h-125v-188h-188v-125h63v-62h62v-63h125v188h188v125h-63v62h-62v63v0z" />
    <glyph glyph-name="uni264B" unicode="&#x264b;" horiz-adv-x="687" 
d="M62 624h562v-562h-562v562v0zM562 562h-438v-63h63v-62h62v-63h188v63h62v62h63v63v0zM187 437h-63v-313h438v313h-63v-63h-62v-62h-188v62h-62v63v0z" />
    <glyph glyph-name="uni264C" unicode="&#x264c;" horiz-adv-x="687" 
d="M187 624h250v-125h-250v125v0zM125 437h375v-125h-375v125v0zM125 249h375v-187h-375v187v0z" />
    <glyph glyph-name="uni264D" unicode="&#x264d;" horiz-adv-x="687" 
d="M312 624h187v-62h63v-63h62v-62h-62v62h-250v-62h-125v62h62v63h63v62v0zM124 374h188v-62h62v-188h-62v-62h-188v62h-62v188h62v62v0zM187 312h-63v-63h63v63v0z" />
    <glyph glyph-name="uni264E" unicode="&#x264e;" horiz-adv-x="687" 
d="M187 624h250v-62h62v-63h63v-125h-188v63h-125v-63h-187v125h62v63h63v62v0zM62 312h187v-63h125v63h188v-125h-63v-63h-62v-62h-250v62h-63v63h-62v125v0z" />
    <glyph glyph-name="uni264F" unicode="&#x264f;" horiz-adv-x="750" 
d="M187 625h63v-63h62v-62h125v62h188v-62h-63v-63h-62v-125h62v-62h125v-63h-187v-187h-63v62h-62v63h-125v-63h-188v63h63v62h62v125h-62v63h-125v62h187v188v0zM437 437h-187v-125h62v-62h-62v-63h187v125h-62v63h62v62v0z" />
    <glyph glyph-name="uni2654" unicode="&#x2654;" horiz-adv-x="500" 
d="M62 562h63v-62h62v-125h-62v125h-63v-125h-62v125h62v62v0zM312 562h63v-62h62v-125h-62v125h-63v-125h-62v125h62v62v0zM0 250h437v-63h-62v-62h-313v62h-62v63v0z" />
    <glyph glyph-name="uni2655" unicode="&#x2655;" horiz-adv-x="500" 
d="M0 562h62v-63h63v-62h-63v-63h-62v63h62v62h-62v63v0zM375 562h62v-63h-62v-62h62v-63h-62v63h-63v62h63v63v0zM125 312h187v-63h63v-187h-313v187h63v63v0z" />
    <glyph glyph-name="uni265A" unicode="&#x265a;" horiz-adv-x="375" 
d="M62 562h63v-62h125v62h62v-62h63v-125h-63v125h-62v-125h-125v125h-63v-125h-62v125h62v62v0zM0 250h375v-63h-63v-62h-250v62h-62v63v0z" />
    <glyph glyph-name="uni265B" unicode="&#x265b;" horiz-adv-x="375" 
d="M0 562h62v-63h63v-62h-63v-63h-62v63h62v62h-62v63v0zM250 562h62v-63h-62v-62h62v-63h-62v63h-63v62h63v63v0zM125 312h62v-63h63v-187h-188v187h63v63v0z" />
    <glyph glyph-name="spade" unicode="&#x2660;" horiz-adv-x="375" 
d="M125 625h62v-63h63v-125h62v-187h-125v-63h63v-62h-188v62h63v63h-125v187h62v125h63v63v0zM187 312h-62v-62h62v62v0z" />
    <glyph glyph-name="uni2661" unicode="&#x2661;" horiz-adv-x="500" 
d="M62 625h125v-125h63v125h125v-63h62v-187h-62v-63h-63v-62h-62v-125h-63v125h-62v62h-63v63h-62v187h62v63v0z" />
    <glyph glyph-name="uni2662" unicode="&#x2662;" horiz-adv-x="500" 
d="M187 625h63v-63h62v-62h63v-63h62v-125h-62v-62h-63v-63h-62v-62h-63v62h-62v63h-63v62h-62v125h62v63h63v62h62v63v0z" />
    <glyph glyph-name="club" unicode="&#x2663;" horiz-adv-x="375" 
d="M62 625h188v-188h62v-187h-125v-63h63v-62h-188v62h63v63h-125v187h62v188v0zM187 312h-62v-62h62v62v0z" />
    <glyph glyph-name="uni2664" unicode="&#x2664;" horiz-adv-x="500" 
d="M187 625h63v-63h62v-62h63v-63h62v-187h-125v-125h-187v125h-125v187h62v63h63v62h62v63v0zM187 312h-62v-62h62v62v0zM312 312h-62v-62h62v62v0z" />
    <glyph glyph-name="heart" unicode="&#x2665;" horiz-adv-x="375" 
d="M62 625h63v-125h62v125h63v-63h62v-187h-62v-125h-63v-125h-62v125h-63v125h-62v187h62v63v0z" />
    <glyph glyph-name="diamond" unicode="&#x2666;" horiz-adv-x="375" 
d="M125 625h62v-63h63v-125h62v-125h-62v-125h-63v-62h-62v62h-63v125h-62v125h62v125h63v63v0z" />
    <glyph glyph-name="uni2667" unicode="&#x2667;" horiz-adv-x="500" 
d="M125 625h187v-188h125v-187h-125v-125h-187v125h-125v187h125v188v0zM187 312h-62v-62h62v62v0zM312 312h-62v-62h62v62v0z" />
    <glyph glyph-name="musicalnote" unicode="&#x266a;" horiz-adv-x="375" 
d="M125 687h62v-63h63v-62h62v-188h-62v125h-63v-375h-62v-62h-63v62h-62v125h125v438v0z" />
    <glyph glyph-name="musicalnotedbl" unicode="&#x266b;" horiz-adv-x="500" 
d="M187 687h63v-63h62v-62h63v-63h62v-125h-62v63h-63v62h-62v-375h-63v-62h-125v62h-62v63h62v62h125v438v0z" />
    <glyph glyph-name="uni2744" unicode="&#x2744;" horiz-adv-x="500" 
d="M125 624h187v-62h63v-188h-63v-62h63v-63h62v-125h-62v-62h-313v62h-62v125h62v63h63v62h-63v188h63v62v0z" />
    <glyph glyph-name="uni3000" unicode="&#x3000;" horiz-adv-x="437" 
 />
    <glyph glyph-name="uni3001" unicode="&#x3001;" horiz-adv-x="312" 
d="M62 187h62v-63h63v-62h-63v62h-62v63v0z" />
    <glyph glyph-name="uni3002" unicode="&#x3002;" horiz-adv-x="375" 
d="M62 249h187v-187h-187v187v0zM187 187h-63v-63h63v63v0z" />
    <glyph glyph-name="uni300A" unicode="&#x300a;" horiz-adv-x="375" 
d="M125 625h62v-125h63v125h62v-125h-62v-125h-63v-125h63v-125h62v-125h-62v125h-63v-125h-62v125h-63v125h-62v125h62v125h63v125v0zM187 500h-62v-125h62v125v0zM125 375h-63v-125h63v125v0zM187 250h-62v-125h62v125v0z" />
    <glyph glyph-name="uni300B" unicode="&#x300b;" horiz-adv-x="375" 
d="M0 625h62v-125h63v125h62v-125h63v-125h62v-125h-62v-125h-63v-125h-62v125h-63v-125h-62v125h62v125h63v125h-63v125h-62v125v0zM187 500h-62v-125h62v125v0zM250 375h-63v-125h63v125v0zM187 250h-62v-125h62v125v0z" />
    <glyph glyph-name="uni300C" unicode="&#x300c;" horiz-adv-x="437" 
d="M62 687h250v-62h-188v-375h-62v437v0z" />
    <glyph glyph-name="uni300D" unicode="&#x300d;" horiz-adv-x="437" 
d="M249 437h63v-437h-250v62h187v375v0z" />
    <glyph glyph-name="uni300E" unicode="&#x300e;" horiz-adv-x="500" 
d="M62 687h312v-188h-125v-312h-187v500v0zM312 624h-188v-375h63v313h125v62v0z" />
    <glyph glyph-name="uni300F" unicode="&#x300f;" horiz-adv-x="500" 
d="M187 500h187v-500h-312v187h125v313v0zM312 437h-63v-312h-125v-63h188v375v0z" />
    <glyph glyph-name="uni3041" unicode="&#x3041;" horiz-adv-x="625" 
d="M187 499h62v-62h188v-63h-188v-62h188v-63h62v-125h-62v-62h-63v62h-125v-62h-125v62h-62v125h62v63h63v62h-125v63h125v62v0zM187 249h-63v-125h125v63h-62v62v0zM312 249h-63v-62h63v62v0zM437 249h-63v-125h63v125v0z" />
    <glyph glyph-name="uni3042" unicode="&#x3042;" horiz-adv-x="625" 
d="M187 687h63v-125h250v-63h-250v-62h187v-63h63v-62h62v-188h-62v-62h-63v62h63v188h-63v62h-62v-187h-63v-63h-62v-62h-125v62h-63v63h-62v125h62v62h63v63h62v62h-187v63h187v125v0zM187 374h-62v-62h-63v-125h63v-63h125v63h-63v187v0zM312 374h-62v-187h62v187v0z" />
    <glyph glyph-name="uni3043" unicode="&#x3043;" horiz-adv-x="625" 
d="M62 437h62v-313h125v63h63v-63h-63v-62h-125v62h-62v313v0zM374 437h63v-63h62v-187h-62v187h-63v63v0z" />
    <glyph glyph-name="uni3044" unicode="&#x3044;" horiz-adv-x="625" 
d="M437 624h63v-125h62v-250h-62v250h-63v125v0zM0 562h62v-375h63v-63h125v63h62v-63h-62v-62h-125v62h-63v63h-62v375v0z" />
    <glyph glyph-name="uni3045" unicode="&#x3045;" horiz-adv-x="562" 
d="M124 499h188v-62h-188v62v0zM62 374h312v-62h63v-188h-63v-62h-250v62h250v188h-312v62v0z" />
    <glyph glyph-name="uni3046" unicode="&#x3046;" horiz-adv-x="625" 
d="M124 687h188v-63h125v-62h-125v62h-188v63v0zM124 499h375v-62h63v-250h-63v-63h-62v-62h-250v62h250v63h62v250h-375v-63h-62v63h62v62v0z" />
    <glyph glyph-name="uni3047" unicode="&#x3047;" horiz-adv-x="562" 
d="M187 499h125v-62h-125v62v0zM62 374h375v-62h-63v-63h-125v-62h125v-63h125v-62h-125v62h-125v63h-62v-63h-63v-62h-62v62h62v63h63v62h62v63h-187v62v0z" />
    <glyph glyph-name="uni3048" unicode="&#x3048;" horiz-adv-x="625" 
d="M125 624h250v-62h-250v62v0zM62 499h438v-62h-63v-63h-62v-62h-63v-63h63v-125h187v-62h-187v62h-63v63h-125v-63h-62v-62h-125v62h125v63h62v62h63v63h62v62h63v63h-313v62v0z" />
    <glyph glyph-name="uni3049" unicode="&#x3049;" horiz-adv-x="625" 
d="M249 499h63v-62h62v62h63v-62h62v-125h-62v-63h62v-125h-62v-62h-63v62h63v125h-125v-187h-188v62h-62v125h62v63h125v62h-125v63h125v62v0zM437 437h-63v-63h-62v-62h125v125v0zM249 249h-125v-125h125v125v0z" />
    <glyph glyph-name="uni304A" unicode="&#x304a;" horiz-adv-x="625" 
d="M187 687h63v-125h125v-63h-125v-62h187v-63h63v-62h62v-188h-62v-62h-63v62h63v188h-63v62h-187v-312h-125v62h-63v63h-62v125h62v62h63v63h62v62h-187v63h187v125v0zM437 624h63v-62h62v-125h-62v125h-63v62v0zM187 374h-62v-62h-63v-125h63v-63h62v250v0z" />
    <glyph glyph-name="uni304B" unicode="&#x304b;" horiz-adv-x="687" 
d="M187 687h63v-125h125v-63h62v-375h-62v-62h-125v62h125v375h-188v-187h-62v-125h-63v125h63v187h-125v63h187v125v0zM500 562h62v-63h63v-250h-63v250h-62v63v0z" />
    <glyph glyph-name="uni304C" unicode="&#x304c;" horiz-adv-x="687" 
d="M187 687h63v-125h125v-63h62v-375h-62v-62h-125v62h125v375h-188v-187h-62v-125h-63v125h63v187h-125v63h187v125v0zM437 687h63v-125h62v125h63v-125h-63v-63h63v-250h-63v250h-62v63h-63v125v0z" />
    <glyph glyph-name="uni304D" unicode="&#x304d;" horiz-adv-x="562" 
d="M250 687h62v-125h125v-63h-62v-62h125v-63h-125v-62h62v-63h-312v-125h250v-62h-250v62h-63v125h63v63h187v62h-250v63h250v62h-312v63h250v125v0z" />
    <glyph glyph-name="uni304E" unicode="&#x304e;" horiz-adv-x="687" 
d="M250 687h62v-125h125v125h63v-125h-63v-63h-62v-62h125v-63h-125v-62h62v-63h-312v-125h250v-62h-250v62h-63v125h63v63h187v62h-250v63h250v62h-312v63h250v125v0zM562 687h63v-125h-63v125v0z" />
    <glyph glyph-name="uni304F" unicode="&#x304f;" horiz-adv-x="562" 
d="M437 624h63v-62h-63v-63h-125v-62h-125v-63h-62v-62h62v-63h125v-62h125v-63h63v-62h-63v62h-125v63h-125v62h-125v63h-62v62h62v63h125v62h125v63h125v62v0z" />
    <glyph glyph-name="uni3050" unicode="&#x3050;" horiz-adv-x="687" 
d="M437 687h63v-125h-63v-63h-125v-62h-125v-63h-62v-62h62v-63h125v-62h125v-63h63v-62h-63v62h-125v63h-125v62h-125v63h-62v62h62v63h125v62h125v63h125v125v0zM562 687h63v-125h-63v125v0z" />
    <glyph glyph-name="uni3051" unicode="&#x3051;" horiz-adv-x="625" 
d="M437 687h63v-125h62v-63h-62v-375h-63v-62h-125v62h125v375h-250v63h250v125v0zM0 624h62v-500h63v-62h-63v62h-62v500v0z" />
    <glyph glyph-name="uni3052" unicode="&#x3052;" horiz-adv-x="687" 
d="M437 687h63v-125h62v125h63v-125h-63v-63h-62v-375h-63v-62h-125v62h125v375h-250v63h250v125v0zM0 624h62v-500h63v-62h-63v62h-62v500v0z" />
    <glyph glyph-name="uni3053" unicode="&#x3053;" horiz-adv-x="562" 
d="M62 624h375v-62h-375v-63h-62v63h62v62v0zM0 249h62v-125h375v63h63v-63h-63v-62h-375v62h-62v125v0z" />
    <glyph glyph-name="uni3054" unicode="&#x3054;" horiz-adv-x="687" 
d="M437 687h63v-125h-438v-63h-62v63h62v62h375v63v0zM562 687h63v-125h-63v125v0zM0 249h62v-125h375v63h63v-63h-63v-62h-375v62h-62v125v0z" />
    <glyph glyph-name="uni3055" unicode="&#x3055;" horiz-adv-x="625" 
d="M312 687h63v-125h187v-63h-125v-62h63v-125h-63v125h-62v62h-375v63h312v125v0zM62 249h63v-125h375v-62h-375v62h-63v125v0z" />
    <glyph glyph-name="uni3056" unicode="&#x3056;" horiz-adv-x="687" 
d="M312 687h63v-125h62v125h63v-125h62v125h63v-125h-63v-63h-125v-62h63v-125h-63v125h-62v62h-375v63h312v125v0zM62 249h63v-125h375v-62h-375v62h-63v125v0z" />
    <glyph glyph-name="uni3057" unicode="&#x3057;" horiz-adv-x="562" 
d="M0 624h62v-437h63v-63h250v63h62v125h63v-125h-63v-63h-62v-62h-250v62h-63v63h-62v437v0z" />
    <glyph glyph-name="uni3058" unicode="&#x3058;" horiz-adv-x="625" 
d="M375 687h62v-125h-62v125v0zM500 687h62v-125h-62v125v0zM0 624h62v-437h63v-63h250v63h62v125h63v-125h-63v-63h-62v-62h-250v62h-63v63h-62v437v0z" />
    <glyph glyph-name="uni3059" unicode="&#x3059;" horiz-adv-x="687" 
d="M437 687h63v-125h125v-63h-125v-375h-63v-62h-187v62h187v63h-250v62h-62v125h62v63h250v62h-437v63h437v125v0zM437 374h-250v-125h250v125v0z" />
    <glyph glyph-name="uni305A" unicode="&#x305a;" horiz-adv-x="687" 
d="M437 687h63v-125h62v125h63v-125h-63v-63h-62v-375h-63v-62h-187v62h187v63h-250v62h-62v125h62v63h250v62h-437v63h437v125v0zM437 374h-250v-125h250v125v0z" />
    <glyph glyph-name="uni305B" unicode="&#x305b;" horiz-adv-x="625" 
d="M437 687h63v-125h62v-63h-62v-187h-63v-63h-62v63h62v187h-250v-375h313v-62h-313v62h-62v375h-125v63h125v62h62v-62h250v125v0z" />
    <glyph glyph-name="uni305C" unicode="&#x305c;" horiz-adv-x="687" 
d="M437 687h63v-125h62v125h63v-125h-63v-63h-62v-187h-63v-63h-62v63h62v187h-250v-375h313v-62h-313v62h-62v375h-125v63h125v62h62v-62h250v125v0z" />
    <glyph glyph-name="uni305D" unicode="&#x305d;" horiz-adv-x="625" 
d="M125 624h375v-62h-63v-63h-62v-62h187v-63h-250v-62h-62v-125h62v-63h188v-62h-188v62h-62v63h-63v125h-187v62h187v63h63v62h125v63h-250v62v0z" />
    <glyph glyph-name="uni305E" unicode="&#x305e;" horiz-adv-x="687" 
d="M437 687h63v-125h-63v-63h-62v-62h187v-63h-250v-62h-62v-125h62v-63h188v-62h-188v62h-62v63h-63v125h-187v62h187v63h63v62h125v63h-250v62h312v63v0zM562 687h63v-125h-63v125v0z" />
    <glyph glyph-name="uni305F" unicode="&#x305f;" horiz-adv-x="687" 
d="M187 687h63v-125h187v-63h-187v-62h-63v-188h-62v-187h-63v187h63v188h62v62h-187v63h187v125v0zM312 437h250v-63h-250v63v0zM250 187h62v-63h313v-62h-313v62h-62v63v0z" />
    <glyph glyph-name="uni3060" unicode="&#x3060;" horiz-adv-x="687" 
d="M187 687h63v-125h187v125h63v-125h-63v-63h-187v-62h-63v-188h-62v-187h-63v187h63v188h62v62h-187v63h187v125v0zM562 687h63v-125h-63v125v0zM312 437h250v-63h-250v63v0zM250 187h62v-63h313v-62h-313v62h-62v63v0z" />
    <glyph glyph-name="uni3061" unicode="&#x3061;" horiz-adv-x="625" 
d="M187 687h63v-125h312v-63h-312v-62h-63v-63h313v-62h62v-188h-62v-62h-313v62h313v188h-313v-63h-62v188h62v62h-187v63h187v125v0z" />
    <glyph glyph-name="uni3062" unicode="&#x3062;" horiz-adv-x="687" 
d="M187 687h63v-125h187v125h63v-125h62v125h63v-125h-63v-63h-312v-62h-63v-63h313v-62h62v-188h-62v-62h-313v62h313v188h-313v-63h-62v188h62v62h-187v63h187v125v0z" />
    <glyph glyph-name="uni3063" unicode="&#x3063;" horiz-adv-x="625" 
d="M62 437h375v-63h62v-62h63v-125h-63v-63h-62v-62h-188v62h188v63h62v125h-62v62h-375v63v0z" />
    <glyph glyph-name="uni3064" unicode="&#x3064;" horiz-adv-x="625" 
d="M125 562h312v-63h63v-62h62v-250h-62v-63h-63v-62h-187v62h187v63h63v250h-63v62h-312v-62h-125v62h125v63v0z" />
    <glyph glyph-name="uni3065" unicode="&#x3065;" horiz-adv-x="687" 
d="M437 687h63v-125h-63v-63h63v-62h62v-250h-62v-63h-63v-62h-187v62h187v63h63v250h-63v62h-312v-62h-125v62h125v63h312v125v0zM562 687h63v-125h-63v125v0z" />
    <glyph glyph-name="uni3066" unicode="&#x3066;" horiz-adv-x="625" 
d="M250 624h312v-62h-62v-63h-125v-62h-63v-63h-62v-187h62v-63h188v-62h-188v62h-62v63h-63v187h63v63h62v62h63v63h-125v-63h-250v63h250v62v0z" />
    <glyph glyph-name="uni3067" unicode="&#x3067;" horiz-adv-x="687" 
d="M437 687h63v-188h-125v-62h-63v-63h-62v-187h62v-63h188v-62h-188v62h-62v63h-63v187h63v63h62v62h63v63h-125v-63h-250v63h250v62h187v63v0zM562 687h63v-125h-63v125v0z" />
    <glyph glyph-name="uni3068" unicode="&#x3068;" horiz-adv-x="562" 
d="M62 687h63v-250h125v62h125v63h125v-63h-125v-62h-125v-63h-125v-62h-63v-125h63v-63h375v-62h-375v62h-63v63h-62v125h62v62h63v63h-63v250v0z" />
    <glyph glyph-name="uni3069" unicode="&#x3069;" horiz-adv-x="687" 
d="M62 687h63v-250h125v62h125v63h62v125h63v-188h-125v-62h-125v-63h-125v-62h-63v-125h63v-63h375v-62h-375v62h-63v63h-62v125h62v62h63v63h-63v250v0zM562 687h63v-125h-63v125v0z" />
    <glyph glyph-name="uni306A" unicode="&#x306a;" horiz-adv-x="625" 
d="M125 687h62v-63h188v-62h-188v-63h-62v-125h-63v-125h-62v125h62v125h63v63h-125v62h125v63v0zM437 624h63v-62h62v-63h-62v63h-63v62v0zM375 499h62v-250h125v-62h-125v-63h-62v-62h-188v62h-62v125h62v63h188v187v0zM375 249h-188v-125h188v125v0z" />
    <glyph glyph-name="uni306B" unicode="&#x306b;" horiz-adv-x="562" 
d="M0 624h62v-500h63v-62h-63v62h-62v500v0zM250 624h250v-62h-250v62v0zM187 249h63v-125h312v-62h-312v62h-63v125v0z" />
    <glyph glyph-name="uni306C" unicode="&#x306c;" horiz-adv-x="625" 
d="M62 687h63v-188h62v63h125v125h63v-125h62v-63h63v-62h62v-313h-62v-62h-125v62h-63v125h-62v-125h-63v-62h-125v62h-62v250h62v313v0zM312 499h-125v-250h63v125h62v125v0zM437 499h-62v-125h-63v-125h63v63h125v125h-63v62v0zM125 374h-63v-250h125v125h-62v125v0z
M500 249h-125v-125h125v125v0z" />
    <glyph glyph-name="uni306D" unicode="&#x306d;" horiz-adv-x="625" 
d="M125 687h62v-188h63v63h62v62h125v-62h63v-63h62v-375h-62v-62h-188v62h-62v125h62v63h188v187h-63v63h-125v-63h-62v-62h-63v-375h-62v187h-63v-62h-62v62h62v63h63v187h-125v63h125v125v0zM500 249h-188v-125h188v125v0z" />
    <glyph glyph-name="uni306E" unicode="&#x306e;" horiz-adv-x="625" 
d="M125 624h312v-62h63v-63h62v-312h-62v-63h-63v-62h-62v62h62v63h63v312h-63v63h-125v-313h-62v-62h-63v-63h-125v63h-62v312h62v63h63v62v0zM250 562h-125v-63h-63v-312h125v62h63v313v0z" />
    <glyph glyph-name="uni306F" unicode="&#x306f;" horiz-adv-x="625" 
d="M437 687h63v-125h62v-63h-62v-250h62v-62h-62v-63h-63v-62h-187v62h-63v125h63v63h187v187h-250v63h250v125v0zM0 624h62v-500h63v-62h-63v62h-62v500v0zM437 249h-187v-125h187v125v0z" />
    <glyph glyph-name="uni3070" unicode="&#x3070;" horiz-adv-x="687" 
d="M437 687h63v-125h62v125h63v-125h-63v-63h-62v-250h62v-62h-62v-63h-63v-62h-187v62h-63v125h63v63h187v187h-250v63h250v125v0zM0 624h62v-500h63v-62h-63v62h-62v500v0zM437 249h-187v-125h187v125v0z" />
    <glyph glyph-name="uni3071" unicode="&#x3071;" horiz-adv-x="687" 
d="M437 687h188v-188h-125v-250h62v-62h-62v-63h-63v-62h-187v62h-63v125h63v63h187v187h-250v63h250v125v0zM0 624h62v-500h63v-62h-63v62h-62v500v0zM562 624h-62v-62h62v62v0zM437 249h-187v-125h187v125v0z" />
    <glyph glyph-name="uni3072" unicode="&#x3072;" horiz-adv-x="625" 
d="M0 624h250v-62h-63v-63h-62v-125h-63v-187h63v-63h187v63h63v125h62v187h-62v63h62v-63h125v-62h-62v-125h-63v-125h-62v-63h-63v-62h-187v62h-63v63h-62v187h62v125h63v63h-125v62v0z" />
    <glyph glyph-name="uni3073" unicode="&#x3073;" horiz-adv-x="687" 
d="M437 687h63v-125h-63v-63h125v-62h-62v-125h-63v-125h-62v-63h-63v-62h-187v62h-63v63h-62v187h62v125h63v63h-125v62h250v-62h-63v-63h-62v-125h-63v-187h63v-63h187v63h63v125h62v187h-62v63h62v125v0zM562 687h63v-125h-63v125v0z" />
    <glyph glyph-name="uni3074" unicode="&#x3074;" horiz-adv-x="687" 
d="M437 687h188v-188h-63v-62h-62v-125h-63v-125h-62v-63h-63v-62h-187v62h-63v63h-62v187h62v125h63v63h-125v62h250v-62h-63v-63h-62v-125h-63v-187h63v-63h187v63h63v125h62v187h-62v63h62v125v0zM562 624h-62v-62h62v62v0zM500 562h-63v-63h63v63v0z" />
    <glyph glyph-name="uni3075" unicode="&#x3075;" horiz-adv-x="625" 
d="M62 687h188v-63h125v-62h-125v62h-188v63v0zM187 499h63v-125h62v-62h63v-188h-63v-62h-187v62h187v188h-62v62h-63v125v0zM62 374h63v-125h-63v-125h-62v125h62v125v0zM437 374h63v-62h62v-188h-62v188h-63v62v0z" />
    <glyph glyph-name="uni3076" unicode="&#x3076;" horiz-adv-x="687" 
d="M62 687h188v-63h125v-62h-125v62h-188v63v0zM437 687h63v-125h-63v125v0zM562 687h63v-125h-63v125v0zM187 499h63v-125h62v-62h63v-188h-63v-62h-187v62h187v188h-62v62h-63v125v0zM62 374h63v-125h-63v-125h-62v125h62v125v0zM437 374h63v-62h62v-188h-62v188h-63v62v0
z" />
    <glyph glyph-name="uni3077" unicode="&#x3077;" horiz-adv-x="687" 
d="M62 687h188v-63h125v-62h-125v62h-188v63v0zM437 687h188v-188h-188v188v0zM562 624h-62v-62h62v62v0zM187 499h63v-125h62v-62h63v-188h-63v-62h-187v62h187v188h-62v62h-63v125v0zM62 374h63v-125h-63v-125h-62v125h62v125v0zM437 374h63v-62h62v-188h-62v188h-63v62v0
z" />
    <glyph glyph-name="uni3078" unicode="&#x3078;" horiz-adv-x="687" 
d="M187 624h125v-62h63v-125h62v-125h63v-125h62v-63h63v-62h-63v62h-62v63h-63v125h-62v125h-63v125h-125v-125h-62v-125h-63v-63h-62v63h62v125h63v125h62v62v0z" />
    <glyph glyph-name="uni3079" unicode="&#x3079;" horiz-adv-x="687" 
d="M437 687h63v-125h-63v125v0zM562 687h63v-125h-63v125v0zM187 624h125v-62h63v-125h62v-125h63v-125h62v-63h63v-62h-63v62h-62v63h-63v125h-62v125h-63v125h-125v-125h-62v-125h-63v-63h-62v63h62v125h63v125h62v62v0z" />
    <glyph glyph-name="uni307A" unicode="&#x307a;" horiz-adv-x="687" 
d="M437 687h188v-188h-188v188v0zM187 624h125v-62h63v-125h62v-125h63v-125h62v-63h63v-62h-63v62h-62v63h-63v125h-62v125h-63v125h-125v-125h-62v-125h-63v-63h-62v63h62v125h63v125h62v62v0zM562 624h-62v-62h62v62v0z" />
    <glyph glyph-name="uni307B" unicode="&#x307b;" horiz-adv-x="625" 
d="M187 687h375v-63h-62v-125h62v-62h-62v-188h62v-62h-62v-63h-63v-62h-187v62h-63v125h63v63h187v125h-250v62h250v125h-250v63v0zM0 624h62v-500h63v-62h-63v62h-62v500v0zM437 249h-187v-125h187v125v0z" />
    <glyph glyph-name="uni307C" unicode="&#x307c;" horiz-adv-x="687" 
d="M187 687h313v-188h62v-62h-62v-188h62v-62h-62v-63h-63v-62h-187v62h-63v125h63v63h187v125h-250v62h250v125h-250v63v0zM562 687h63v-125h-63v125v0zM0 624h62v-500h63v-62h-63v62h-62v500v0zM437 249h-187v-125h187v125v0z" />
    <glyph glyph-name="uni307D" unicode="&#x307d;" horiz-adv-x="687" 
d="M187 687h438v-188h-125v-250h62v-62h-62v-63h-63v-62h-187v62h-63v125h63v63h187v125h-250v62h250v125h-250v63v0zM0 624h62v-500h63v-62h-63v62h-62v500v0zM562 624h-62v-62h62v62v0zM437 249h-187v-125h187v125v0z" />
    <glyph glyph-name="uni307E" unicode="&#x307e;" horiz-adv-x="625" 
d="M250 687h62v-63h250v-62h-250v-63h188v-62h-188v-125h63v-63h125v-62h62v-63h-62v63h-125v62h-63v-125h-62v-62h-188v62h-62v125h62v63h188v125h-188v62h188v63h-250v62h250v63v0zM250 249h-188v-125h188v125v0z" />
    <glyph glyph-name="uni307F" unicode="&#x307f;" horiz-adv-x="625" 
d="M62 687h188v-63h62v-187h125v62h63v-125h62v-62h-62v-188h-63v-62h-62v62h62v250h-125v-250h-62v-62h-125v62h-63v63h-62v125h62v62h63v63h125v187h-188v63v0zM250 374h-125v-62h-63v-125h63v-63h125v250v0z" />
    <glyph glyph-name="uni3080" unicode="&#x3080;" horiz-adv-x="625" 
d="M187 687h63v-125h125v-63h-125v-250h-63v-125h313v125h62v-125h-62v-62h-313v62h-62v63h-63v62h-62v125h62v63h125v62h-187v63h187v125v0zM437 562h63v-63h62v-62h-62v62h-63v63v0zM187 374h-125v-125h125v125v0z" />
    <glyph glyph-name="uni3081" unicode="&#x3081;" horiz-adv-x="625" 
d="M62 687h63v-188h62v63h125v125h63v-125h62v-63h63v-62h62v-313h-62v-62h-63v62h63v313h-63v62h-62v-250h-63v-125h-62v-62h-188v62h-62v250h62v313v0zM312 499h-125v-187h63v-63h62v250v0zM125 374h-63v-250h188v63h-63v125h-62v62v0z" />
    <glyph glyph-name="uni3082" unicode="&#x3082;" horiz-adv-x="625" 
d="M125 687h62v-63h313v-62h-313v-125h313v-63h-313v-187h63v-63h250v63h62v-63h-62v-62h-250v62h-63v63h-62v187h-125v63h125v125h-125v62h125v63v0z" />
    <glyph glyph-name="uni3083" unicode="&#x3083;" horiz-adv-x="625" 
d="M124 499h63v-125h125v125h62v-125h63v-62h62v-125h-62v-63h-63v63h63v125h-250v-63h62v-187h-62v187h-125v63h62v187v0z" />
    <glyph glyph-name="uni3084" unicode="&#x3084;" horiz-adv-x="625" 
d="M125 687h62v-188h63v63h125v125h62v-125h63v-63h62v-250h-62v-62h-63v62h63v250h-250v-250h62v-187h-62v187h-63v188h-62v-63h-125v63h125v250v0z" />
    <glyph glyph-name="uni3085" unicode="&#x3085;" horiz-adv-x="625" 
d="M249 499h63v-62h125v-63h62v-187h-62v-63h-125v-62h-63v62h-62v63h62v187h-62v-62h-63v-125h-62v250h62v-63h63v63h62v62v0zM437 374h-125v-187h125v187v0z" />
    <glyph glyph-name="uni3086" unicode="&#x3086;" horiz-adv-x="625" 
d="M250 687h62v-125h125v-63h63v-62h62v-188h-62v-62h-63v-63h-125v-62h-62v437h-63v-62h-62v-125h-63v-63h-62v313h62v-125h63v62h62v63h63v125v0zM437 499h-125v-312h125v62h63v188h-63v62v0z" />
    <glyph glyph-name="uni3087" unicode="&#x3087;" horiz-adv-x="625" 
d="M249 499h63v-62h187v-63h-187v-62h125v-63h62v-62h-62v62h-125v-125h-63v-62h-125v62h-62v125h62v63h125v187v0zM249 249h-125v-125h125v125v0z" />
    <glyph glyph-name="uni3088" unicode="&#x3088;" horiz-adv-x="625" 
d="M250 687h62v-125h250v-63h-250v-187h125v-63h63v-62h62v-63h-62v63h-63v62h-125v-125h-62v-62h-188v62h-62v125h62v63h188v375v0zM250 249h-188v-125h188v125v0z" />
    <glyph glyph-name="uni3089" unicode="&#x3089;" horiz-adv-x="562" 
d="M187 687h125v-63h63v-62h-63v62h-125v63v0zM0 624h62v-250h63v63h250v-63h62v-62h63v-125h-63v-63h-62v-62h-313v62h313v63h62v125h-62v62h-250v-62h-125v312v0z" />
    <glyph glyph-name="uni308A" unicode="&#x308a;" horiz-adv-x="562" 
d="M62 687h63v-63h-63v-250h63v-62h-63v62h-62v250h62v63v0zM375 687h62v-63h63v-437h-63v-63h-62v-62h-188v62h188v63h62v437h-62v63v0z" />
    <glyph glyph-name="uni308B" unicode="&#x308b;" horiz-adv-x="625" 
d="M0 687h500v-63h-125v-62h-63v-63h125v-62h63v-63h62v-187h-62v-63h-63v-62h-250v62h-62v125h62v63h188v-63h62v-62h63v187h-63v63h-250v-63h-62v-62h-63v-63h-62v63h62v62h63v63h62v62h63v63h62v62h-312v63v0zM375 249h-188v-125h188v125v0z" />
    <glyph glyph-name="uni308C" unicode="&#x308c;" horiz-adv-x="625" 
d="M125 687h62v-188h63v63h62v62h125v-62h63v-250h-63v-188h125v-62h-125v62h-62v188h62v250h-125v-63h-62v-62h-63v-375h-62v187h-63v-62h-62v62h62v63h63v187h-125v63h125v125v0z" />
    <glyph glyph-name="uni308D" unicode="&#x308d;" horiz-adv-x="625" 
d="M0 687h500v-63h-125v-62h-63v-63h125v-62h63v-63h62v-187h-62v-63h-63v-62h-250v62h250v63h63v187h-63v63h-250v-63h-62v-62h-63v-63h-62v63h62v62h63v63h62v62h63v63h62v62h-312v63v0z" />
    <glyph glyph-name="uni308F" unicode="&#x308f;" horiz-adv-x="625" 
d="M125 687h62v-188h63v63h62v62h125v-62h63v-63h62v-375h-62v-62h-125v62h125v375h-63v63h-125v-63h-62v-62h-63v-375h-62v187h-63v-62h-62v62h62v63h63v187h-125v63h125v125v0z" />
    <glyph glyph-name="uni3092" unicode="&#x3092;" horiz-adv-x="625" 
d="M250 687h62v-63h188v-62h-250v-63h62v-62h250v-63h-125v-125h-62v125h-63v-62h-62v-63h-63v-125h375v-62h-375v62h-62v125h62v63h63v62h62v63h-125v-63h-62v-62h-63v62h63v63h62v125h-187v62h250v63v0z" />
    <glyph glyph-name="uni3093" unicode="&#x3093;" horiz-adv-x="625" 
d="M250 687h62v-125h-62v-125h-63v-63h63v-62h62v-63h63v-125h125v188h62v-188h-62v-62h-125v62h-63v125h-62v63h-125v-125h-63v-125h-62v125h62v125h63v125h62v125h63v125v0z" />
    <glyph glyph-name="uni30A1" unicode="&#x30a1;" horiz-adv-x="625" 
d="M62 499h437v-187h-62v-63h-125v63h125v125h-375v62v0zM187 312h62v-188h-62v-62h-63v62h63v188v0z" />
    <glyph glyph-name="uni30A2" unicode="&#x30a2;" horiz-adv-x="625" 
d="M0 687h562v-188h-62v-62h-63v-63h-62v63h62v62h63v125h-500v63v0zM250 499h62v-375h-62v-62h-125v62h125v375v0z" />
    <glyph glyph-name="uni30A3" unicode="&#x30a3;" horiz-adv-x="625" 
d="M437 499h62v-62h-62v-63h-125v-312h-63v250h-62v-63h-125v63h125v62h125v63h125v62v0z" />
    <glyph glyph-name="uni30A4" unicode="&#x30a4;" horiz-adv-x="625" 
d="M500 687h62v-125h-62v-63h-63v-62h-62v-375h-63v312h-62v-62h-250v62h250v63h125v62h62v63h63v125v0z" />
    <glyph glyph-name="uni30A5" unicode="&#x30a5;" horiz-adv-x="625" 
d="M249 562h63v-125h187v-250h-62v-63h-63v-62h-250v62h250v63h63v187h-313v-125h-62v188h187v125v0z" />
    <glyph glyph-name="uni30A6" unicode="&#x30a6;" horiz-adv-x="625" 
d="M250 687h62v-125h250v-313h-62v-62h-63v-63h-62v-62h-250v62h250v63h62v62h63v250h-438v-125h-62v188h250v125v0z" />
    <glyph glyph-name="uni30A7" unicode="&#x30a7;" horiz-adv-x="625" 
d="M124 437h313v-63h-125v-250h187v-62h-437v62h187v250h-125v63v0z" />
    <glyph glyph-name="uni30A8" unicode="&#x30a8;" horiz-adv-x="625" 
d="M62 624h438v-62h-188v-438h250v-62h-562v62h250v438h-188v62v0z" />
    <glyph glyph-name="uni30A9" unicode="&#x30a9;" horiz-adv-x="625" 
d="M312 499h62v-62h125v-63h-125v-312h-125v62h63v250h-63v-125h-62v-62h-63v-63h-62v63h62v62h63v125h-125v63h250v62v0z" />
    <glyph glyph-name="uni30AA" unicode="&#x30aa;" horiz-adv-x="625" 
d="M375 687h62v-125h125v-63h-125v-437h-125v62h63v250h-63v-62h-62v-63h-63v-62h-62v-63h-63v-62h-62v62h62v63h63v62h62v63h63v62h62v63h63v62h-375v63h375v125v0z" />
    <glyph glyph-name="uni30AB" unicode="&#x30ab;" horiz-adv-x="625" 
d="M187 687h63v-125h312v-438h-62v-62h-188v62h188v375h-250v-250h-63v-125h-62v-62h-63v62h63v125h62v250h-187v63h187v125v0z" />
    <glyph glyph-name="uni30AC" unicode="&#x30ac;" horiz-adv-x="687" 
d="M187 687h63v-125h187v125h63v-125h62v125h63v-125h-63v-438h-62v-62h-188v62h188v375h-250v-250h-63v-125h-62v-62h-63v62h63v125h62v250h-187v63h187v125v0z" />
    <glyph glyph-name="uni30AD" unicode="&#x30ad;" horiz-adv-x="625" 
d="M312 687h63v-125h125v-63h-125v-125h187v-62h-125v-250h-62v250h-375v62h312v125h-250v63h250v125v0z" />
    <glyph glyph-name="uni30AE" unicode="&#x30ae;" horiz-adv-x="687" 
d="M312 687h63v-125h62v125h63v-188h-125v-125h187v-62h-125v-250h-62v250h-375v62h312v125h-250v63h250v125v0zM562 687h63v-125h-63v125v0z" />
    <glyph glyph-name="uni30AF" unicode="&#x30af;" horiz-adv-x="562" 
d="M125 624h375v-375h-63v-62h-62v-63h-63v-62h-125v62h125v63h63v62h62v313h-312v-125h-63v-63h-62v63h62v125h63v62v0z" />
    <glyph glyph-name="uni30B0" unicode="&#x30b0;" horiz-adv-x="687" 
d="M437 687h63v-438h-63v-62h-62v-63h-63v-62h-125v62h125v63h63v62h62v313h-312v-125h-63v-63h-62v63h62v125h63v62h312v63v0zM562 687h63v-125h-63v125v0z" />
    <glyph glyph-name="uni30B1" unicode="&#x30b1;" horiz-adv-x="625" 
d="M125 687h62v-125h375v-63h-125v-312h-62v-63h-63v-62h-187v62h187v63h63v312h-250v-62h-63v-63h-62v63h62v62h63v188v0z" />
    <glyph glyph-name="uni30B2" unicode="&#x30b2;" horiz-adv-x="687" 
d="M125 687h62v-125h250v125h63v-125h62v125h63v-125h-63v-63h-125v-312h-62v-63h-63v-62h-187v62h187v63h63v312h-250v-62h-63v-63h-62v63h62v62h63v188v0z" />
    <glyph glyph-name="uni30B3" unicode="&#x30b3;" horiz-adv-x="562" 
d="M62 624h437v-562h-437v62h375v438h-375v62v0z" />
    <glyph glyph-name="uni30B4" unicode="&#x30b4;" horiz-adv-x="687" 
d="M437 687h62v-625h-437v62h375v438h-375v62h375v63v0zM562 687h62v-125h-62v125v0z" />
    <glyph glyph-name="uni30B5" unicode="&#x30b5;" horiz-adv-x="625" 
d="M125 687h62v-125h250v125h63v-125h62v-63h-62v-312h-63v-63h-62v-62h-188v62h188v63h62v312h-250v-187h-62v187h-125v63h125v125v0z" />
    <glyph glyph-name="uni30B6" unicode="&#x30b6;" horiz-adv-x="687" 
d="M125 687h62v-125h250v125h63v-125h62v125h63v-125h-63v-63h-62v-312h-63v-63h-62v-62h-188v62h188v63h62v312h-250v-187h-62v187h-125v63h125v125v0z" />
    <glyph glyph-name="uni30B7" unicode="&#x30b7;" horiz-adv-x="625" 
d="M0 687h250v-63h-250v63v0zM0 499h250v-62h-250v62v0zM500 437h62v-188h-62v-62h-63v-63h-125v-62h-250v62h250v63h125v62h63v188v0z" />
    <glyph glyph-name="uni30B8" unicode="&#x30b8;" horiz-adv-x="687" 
d="M0 687h250v-63h-250v63v0zM437 687h63v-125h-63v125v0zM562 687h63v-125h-63v125v0zM0 499h250v-62h-250v62v0zM500 437h62v-188h-62v-62h-63v-63h-125v-62h-250v62h250v63h125v62h63v188v0z" />
    <glyph glyph-name="uni30B9" unicode="&#x30b9;" horiz-adv-x="625" 
d="M0 624h500v-187h-63v-63h-62v-62h62v-63h63v-62h62v-125h-62v125h-63v62h-62v63h-63v-63h-62v-62h-63v-63h-62v-62h-125v62h125v63h62v62h63v63h62v62h63v63h62v125h-437v62v0z" />
    <glyph glyph-name="uni30BA" unicode="&#x30ba;" horiz-adv-x="687" 
d="M437 687h63v-250h-63v-63h-62v-62h62v-63h63v-62h62v-125h-62v125h-63v62h-62v63h-63v-63h-62v-62h-63v-63h-62v-62h-125v62h125v63h62v62h63v63h62v62h63v63h62v125h-437v62h437v63v0zM562 687h63v-125h-63v125v0z" />
    <glyph glyph-name="uni30BB" unicode="&#x30bb;" horiz-adv-x="625" 
d="M125 687h62v-125h375v-125h-62v-63h-63v63h63v62h-313v-375h313v-62h-313v62h-62v375h-125v63h125v125v0z" />
    <glyph glyph-name="uni30BC" unicode="&#x30bc;" horiz-adv-x="687" 
d="M125 687h62v-125h250v125h63v-125h62v125h63v-125h-63v-125h-62v-63h-63v63h63v62h-313v-375h313v-62h-313v62h-62v375h-125v63h125v125v0z" />
    <glyph glyph-name="uni30BD" unicode="&#x30bd;" horiz-adv-x="562" 
d="M0 624h62v-125h63v-125h-63v125h-62v125v0zM437 624h63v-375h-63v-62h-62v-63h-63v-62h-187v62h187v63h63v62h62v375v0z" />
    <glyph glyph-name="uni30BE" unicode="&#x30be;" horiz-adv-x="687" 
d="M437 687h63v-125h-63v125v0zM562 687h63v-125h-63v125v0zM0 624h62v-125h63v-125h-63v125h-62v125v0zM437 499h63v-250h-63v-62h-62v-63h-63v-62h-187v62h187v63h63v62h62v250v0z" />
    <glyph glyph-name="uni30BF" unicode="&#x30bf;" horiz-adv-x="562" 
d="M62 624h438v-375h-63v-62h-62v-63h-63v-62h-187v62h187v63h63v125h-63v62h-125v63h125v-63h63v-62h62v250h-312v-125h-63v-63h-62v63h62v187v0z" />
    <glyph glyph-name="uni30C0" unicode="&#x30c0;" horiz-adv-x="687" 
d="M437 687h63v-438h-63v-62h-62v-63h-63v-62h-187v62h187v63h63v125h-63v62h-125v63h125v-63h63v-62h62v250h-312v-125h-63v-63h-62v63h62v187h375v63v0zM562 687h63v-125h-63v125v0z" />
    <glyph glyph-name="uni30C1" unicode="&#x30c1;" horiz-adv-x="625" 
d="M437 687h63v-63h-63v-62h-62v-125h187v-63h-187v-250h-63v-62h-125v62h125v250h-312v63h312v125h-250v62h375v63v0z" />
    <glyph glyph-name="uni30C2" unicode="&#x30c2;" horiz-adv-x="687" 
d="M437 687h63v-125h-125v-125h187v-63h-187v-250h-63v-62h-125v62h125v250h-312v63h312v125h-250v62h375v63v0zM562 687h63v-125h-63v125v0z" />
    <glyph glyph-name="uni30C3" unicode="&#x30c3;" horiz-adv-x="625" 
d="M62 499h62v-187h-62v187v0zM187 499h62v-187h-62v187v0zM437 437h62v-250h-62v-63h-63v-62h-187v62h187v63h63v250v0z" />
    <glyph glyph-name="uni30C4" unicode="&#x30c4;" horiz-adv-x="625" 
d="M0 624h62v-187h-62v187v0zM187 624h63v-187h-63v187v0zM500 624h62v-375h-62v-62h-63v-63h-62v-62h-313v62h313v63h62v62h63v375v0z" />
    <glyph glyph-name="uni30C5" unicode="&#x30c5;" horiz-adv-x="687" 
d="M437 687h63v-125h62v125h63v-125h-63v-313h-62v-62h-63v-63h-62v-62h-313v62h313v63h62v62h63v313h-63v125v0zM0 624h62v-187h-62v187v0zM187 624h63v-187h-63v187v0z" />
    <glyph glyph-name="uni30C6" unicode="&#x30c6;" horiz-adv-x="625" 
d="M62 687h438v-63h-438v63v0zM0 499h562v-62h-125v-250h-62v-63h-63v-62h-187v62h187v63h63v250h-375v62v0z" />
    <glyph glyph-name="uni30C7" unicode="&#x30c7;" horiz-adv-x="687" 
d="M62 687h313v-63h-313v63v0zM437 687h63v-125h-63v125v0zM562 687h63v-125h-63v125v0zM0 499h562v-62h-125v-250h-62v-63h-63v-62h-187v62h187v63h63v250h-375v62v0z" />
    <glyph glyph-name="uni30C8" unicode="&#x30c8;" horiz-adv-x="562" 
d="M0 687h62v-250h250v-63h188v-62h-188v62h-250v-312h-62v625v0z" />
    <glyph glyph-name="uni30C9" unicode="&#x30c9;" horiz-adv-x="625" 
d="M0 687h62v-250h250v-63h188v-62h-188v62h-250v-312h-62v625v0zM375 687h62v-125h-62v125v0zM500 687h62v-125h-62v125v0z" />
    <glyph glyph-name="uni30CA" unicode="&#x30ca;" horiz-adv-x="625" 
d="M312 687h63v-125h187v-63h-187v-312h-63v-63h-62v-62h-188v62h188v63h62v312h-312v63h312v125v0z" />
    <glyph glyph-name="uni30CB" unicode="&#x30cb;" horiz-adv-x="625" 
d="M62 624h438v-62h-438v62v0zM0 124h562v-62h-562v62v0z" />
    <glyph glyph-name="uni30CC" unicode="&#x30cc;" horiz-adv-x="625" 
d="M62 687h438v-250h-63v-188h63v-62h62v-125h-62v125h-63v62h-62v63h-63v-63h-62v-62h-63v-63h-62v-62h-125v62h125v63h62v62h63v125h-125v63h125v-63h125v63h62v187h-375v63v0z" />
    <glyph glyph-name="uni30CD" unicode="&#x30cd;" horiz-adv-x="562" 
d="M187 687h63v-63h250v-187h-63v-63h-62v-62h62v-63h63v-62h-63v62h-62v63h-63v-250h-62v187h-63v-62h-187v62h187v63h63v62h125v63h62v125h-437v62h187v63v0z" />
    <glyph glyph-name="uni30CE" unicode="&#x30ce;" horiz-adv-x="562" 
d="M437 687h63v-313h-63v-62h-62v-63h-63v-62h-62v-63h-125v-62h-125v62h125v63h125v62h62v63h63v62h62v313v0z" />
    <glyph glyph-name="uni30CF" unicode="&#x30cf;" horiz-adv-x="625" 
d="M125 687h62v-438h-62v-125h-63v-62h-62v62h62v125h63v438v0zM375 624h62v-125h63v-187h62v-250h-62v250h-63v187h-62v125v0z" />
    <glyph glyph-name="uni30D0" unicode="&#x30d0;" horiz-adv-x="687" 
d="M125 687h62v-438h-62v-125h-63v-62h-62v62h62v125h63v438v0zM437 687h63v-125h-63v-63h63v-187h62v-250h-62v250h-63v187h-62v125h62v63v0zM562 687h63v-125h-63v125v0z" />
    <glyph glyph-name="uni30D1" unicode="&#x30d1;" horiz-adv-x="687" 
d="M125 687h62v-438h-62v-125h-63v-62h-62v62h62v125h63v438v0zM437 687h188v-188h-125v-187h62v-250h-62v250h-63v375v0zM562 624h-62v-62h62v62v0z" />
    <glyph glyph-name="uni30D2" unicode="&#x30d2;" horiz-adv-x="562" 
d="M0 687h62v-188h188v63h250v-63h-250v-62h-188v-313h438v-62h-438v62h-62v563v0z" />
    <glyph glyph-name="uni30D3" unicode="&#x30d3;" horiz-adv-x="625" 
d="M0 687h62v-188h188v63h125v125h62v-125h63v125h62v-125h-62v-63h-250v-62h-188v-313h438v-62h-438v62h-62v563v0z" />
    <glyph glyph-name="uni30D4" unicode="&#x30d4;" horiz-adv-x="625" 
d="M0 687h62v-188h188v63h125v125h187v-188h-312v-62h-188v-313h438v-62h-438v62h-62v563v0zM500 624h-63v-62h63v62v0z" />
    <glyph glyph-name="uni30D5" unicode="&#x30d5;" horiz-adv-x="625" 
d="M0 624h562v-250h-62v-125h-63v-62h-62v-63h-125v-62h-188v62h188v63h125v62h62v125h63v188h-500v62v0z" />
    <glyph glyph-name="uni30D6" unicode="&#x30d6;" horiz-adv-x="687" 
d="M437 687h63v-125h62v125h63v-125h-63v-188h-62v-125h-63v-62h-62v-63h-125v-62h-188v62h188v63h125v62h62v125h63v188h-500v62h437v63v0z" />
    <glyph glyph-name="uni30D7" unicode="&#x30d7;" horiz-adv-x="687" 
d="M437 687h188v-188h-63v-125h-62v-125h-63v-62h-62v-63h-125v-62h-188v62h188v63h125v62h62v125h63v125h-63v63h-437v62h437v63v0zM562 624h-62v-62h62v62v0z" />
    <glyph glyph-name="uni30D8" unicode="&#x30d8;" horiz-adv-x="625" 
d="M250 624h62v-62h63v-125h62v-125h63v-125h62v-125h-62v125h-63v125h-62v125h-63v125h-62v-63h-63v-62h-62v-63h-63v-62h-62v62h62v63h63v62h62v63h63v62v0z" />
    <glyph glyph-name="uni30D9" unicode="&#x30d9;" horiz-adv-x="687" 
d="M437 687h63v-125h-63v125v0zM562 687h63v-125h-63v125v0zM250 624h62v-62h63v-125h62v-125h63v-125h62v-125h-62v125h-63v125h-62v125h-63v125h-62v-63h-63v-62h-62v-63h-63v-62h-62v62h62v63h63v62h62v63h63v62v0z" />
    <glyph glyph-name="uni30DA" unicode="&#x30da;" horiz-adv-x="687" 
d="M437 687h188v-188h-188v188v0zM250 624h62v-62h63v-125h62v-125h63v-125h62v-125h-62v125h-63v125h-62v125h-63v125h-62v-63h-63v-62h-62v-63h-63v-62h-62v62h62v63h63v62h62v63h63v62v0zM562 624h-62v-62h62v62v0z" />
    <glyph glyph-name="uni30DB" unicode="&#x30db;" horiz-adv-x="625" 
d="M250 687h62v-125h250v-63h-250v-437h-125v62h63v375h-250v63h250v125v0zM62 374h63v-125h-63v-125h-62v125h62v125v0zM437 374h63v-125h62v-125h-62v125h-63v125v0z" />
    <glyph glyph-name="uni30DC" unicode="&#x30dc;" horiz-adv-x="687" 
d="M250 687h62v-125h125v125h63v-125h62v125h63v-125h-63v-63h-250v-437h-125v62h63v375h-250v63h250v125v0zM62 374h63v-125h-63v-125h-62v125h62v125v0zM437 374h63v-125h62v-125h-62v125h-63v125v0z" />
    <glyph glyph-name="uni30DD" unicode="&#x30dd;" horiz-adv-x="687" 
d="M250 687h62v-125h125v125h188v-188h-313v-437h-125v62h63v375h-250v63h250v125v0zM562 624h-62v-62h62v62v0zM62 374h63v-125h-63v-125h-62v125h62v125v0zM437 374h63v-125h62v-125h-62v125h-63v125v0z" />
    <glyph glyph-name="uni30DE" unicode="&#x30de;" horiz-adv-x="625" 
d="M0 624h562v-187h-62v-63h-63v-62h-62v-63h-63v-125h63v-62h-63v62h-62v63h-63v62h-62v63h-63v62h63v-62h62v-63h125v63h63v62h62v63h63v125h-500v62v0z" />
    <glyph glyph-name="uni30DF" unicode="&#x30df;" horiz-adv-x="562" 
d="M0 687h250v-63h250v-62h-250v62h-250v63v0zM0 499h250v-62h250v-63h-250v63h-250v62v0zM0 249h187v-62h188v-63h187v-62h-187v62h-188v63h-187v62v0z" />
    <glyph glyph-name="uni30E0" unicode="&#x30e0;" horiz-adv-x="625" 
d="M187 687h63v-188h-63v-187h-62v-125h-63v-63h438v125h-63v125h63v-125h62v-187h-562v125h62v125h63v187h62v188v0z" />
    <glyph glyph-name="uni30E1" unicode="&#x30e1;" horiz-adv-x="625" 
d="M500 687h62v-188h-62v-125h-63v-62h63v-125h62v-125h-62v125h-63v125h-62v-63h-63v-62h-62v-63h-125v-62h-125v62h125v63h125v62h62v63h63v62h-125v63h-125v62h125v-62h125v-63h62v125h63v188v0z" />
    <glyph glyph-name="uni30E2" unicode="&#x30e2;" horiz-adv-x="625" 
d="M62 687h438v-63h-250v-187h312v-63h-312v-250h312v-62h-312v62h-63v250h-187v63h187v187h-125v63v0z" />
    <glyph glyph-name="uni30E3" unicode="&#x30e3;" horiz-adv-x="625" 
d="M187 499h62v-62h250v-188h-62v-62h-63v62h63v125h-188v-312h-62v312h-125v63h125v62v0z" />
    <glyph glyph-name="uni30E4" unicode="&#x30e4;" horiz-adv-x="625" 
d="M62 687h63v-125h62v-63h63v63h312v-188h-62v-62h-63v62h63v125h-250v-62h-63v-125h63v-125h62v-125h-62v125h-63v125h-62v125h-125v62h125v63h-63v125v0z" />
    <glyph glyph-name="uni30E5" unicode="&#x30e5;" horiz-adv-x="625" 
d="M124 437h250v-313h125v-62h-437v62h250v250h-188v63v0z" />
    <glyph glyph-name="uni30E6" unicode="&#x30e6;" horiz-adv-x="625" 
d="M62 624h375v-500h125v-62h-562v62h375v438h-313v62v0z" />
    <glyph glyph-name="uni30E7" unicode="&#x30e7;" horiz-adv-x="562" 
d="M62 499h375v-437h-375v62h312v125h-312v63h312v125h-312v62v0z" />
    <glyph glyph-name="uni30E8" unicode="&#x30e8;" horiz-adv-x="625" 
d="M62 624h500v-562h-500v62h437v188h-437v62h437v188h-437v62v0z" />
    <glyph glyph-name="uni30E9" unicode="&#x30e9;" horiz-adv-x="625" 
d="M62 687h438v-63h-438v63v0zM0 499h562v-250h-62v-62h-63v-63h-125v-62h-187v62h187v63h125v62h63v188h-500v62v0z" />
    <glyph glyph-name="uni30EA" unicode="&#x30ea;" horiz-adv-x="562" 
d="M0 687h62v-313h-62v313v0zM437 687h63v-500h-63v-63h-62v-62h-250v62h250v63h62v500v0z" />
    <glyph glyph-name="uni30EB" unicode="&#x30eb;" horiz-adv-x="625" 
d="M62 687h63v-563h-63v-62h-62v62h62v563v0zM250 687h62v-563h125v63h63v125h62v-125h-62v-63h-63v-62h-187v625v0z" />
    <glyph glyph-name="uni30EC" unicode="&#x30ec;" horiz-adv-x="562" 
d="M0 687h62v-563h188v63h125v62h125v-62h-125v-63h-125v-62h-250v625v0z" />
    <glyph glyph-name="uni30ED" unicode="&#x30ed;" horiz-adv-x="625" 
d="M0 624h562v-562h-562v562v0zM500 562h-438v-438h438v438v0z" />
    <glyph glyph-name="uni30EF" unicode="&#x30ef;" horiz-adv-x="625" 
d="M0 624h562v-375h-62v-62h-63v-63h-62v-62h-250v62h250v63h62v62h63v313h-438v-188h-62v250v0z" />
    <glyph glyph-name="uni30F2" unicode="&#x30f2;" horiz-adv-x="625" 
d="M0 624h562v-375h-62v-62h-63v-63h-62v-62h-250v62h250v63h62v62h63v125h-438v63h438v125h-500v62v0z" />
    <glyph glyph-name="uni30F3" unicode="&#x30f3;" horiz-adv-x="625" 
d="M0 624h250v-62h-250v62v0zM500 437h62v-188h-62v-62h-63v-63h-125v-62h-250v62h250v63h125v62h63v188v0z" />
    <glyph glyph-name="uni30FB" unicode="&#x30fb;" horiz-adv-x="312" 
d="M62 375h125v-125h-125v125v0z" />
    <glyph glyph-name="uni329A" unicode="&#x329a;" horiz-adv-x="500" 
d="M187 687h63v-63h62v-62h63v-63h62v-62h-62v62h-63v63h-62v-188h62v-62h63v-188h-63v-62h-187v62h-63v188h63v62h62v188h-62v-63h-63v-62h-62v62h62v63h63v62h62v63v0zM312 312h-187v-188h187v188v0z" />
    <glyph glyph-name="uni329B" unicode="&#x329b;" horiz-adv-x="500" 
d="M125 687h187v-63h63v-187h-63v-63h-62v-62h187v-63h-187v-187h-63v187h-187v63h187v62h-62v63h-63v187h63v63v0zM312 624h-187v-187h187v187v0z" />
    <glyph glyph-name="uniAC00" unicode="&#xac00;" horiz-adv-x="687" 
d="M0 687h312v-313h-62v-125h-63v-62h-62v-63h-125v63h125v62h62v125h63v250h-250v63v0zM500 687h62v-250h63v-63h-63v-312h-62v625v0z" />
    <glyph glyph-name="uniAC01" unicode="&#xac01;" horiz-adv-x="687" 
d="M0 687h312v-188h-62v-62h-63v-63h-187v63h187v62h63v125h-250v63v0zM500 687h62v-125h63v-63h-63v-125h-62v313v0zM62 312h500v-250h-62v187h-438v63v0z" />
    <glyph glyph-name="uniAC04" unicode="&#xac04;" horiz-adv-x="687" 
d="M0 687h312v-188h-62v-62h-63v-63h-187v63h187v62h63v125h-250v63v0zM500 687h62v-188h63v-62h-63v-188h-62v438v0zM62 312h63v-188h437v-62h-500v250v0z" />
    <glyph glyph-name="uniAC07" unicode="&#xac07;" horiz-adv-x="687" 
d="M0 687h312v-188h-62v-62h-63v-63h-187v63h187v62h63v125h-250v63v0zM500 687h62v-125h63v-63h-63v-125h-62v313v0zM62 312h500v-63h-437v-125h437v-62h-500v250v0z" />
    <glyph glyph-name="uniAC08" unicode="&#xac08;" horiz-adv-x="687" 
d="M0 687h312v-188h-62v-62h-63v-63h-187v63h187v62h63v125h-250v63v0zM500 687h62v-125h63v-63h-63v-125h-62v313v0zM62 312h500v-125h-250v-63h250v-62h-500v125h250v62h-250v63v0z" />
    <glyph glyph-name="uniAC09" unicode="&#xac09;" horiz-adv-x="687" 
d="M0 687h312v-188h-62v-62h-63v-63h-187v63h187v62h63v125h-250v63v0zM500 687h62v-125h63v-63h-63v-125h-62v313v0zM62 312h250v-125h-125v-63h125v-62h-250v125h125v62h-125v63v0zM375 312h187v-250h-62v187h-125v63v0z" />
    <glyph glyph-name="uniAC0A" unicode="&#xac0a;" horiz-adv-x="687" 
d="M0 687h312v-188h-62v-62h-63v-63h-187v63h187v62h63v125h-250v63v0zM500 687h62v-125h63v-63h-63v-125h-62v313v0zM62 312h250v-125h-125v-63h125v-62h-250v125h125v62h-125v63v0zM375 312h187v-250h-187v250v0zM500 249h-63v-125h63v125v0z" />
    <glyph glyph-name="uniAC10" unicode="&#xac10;" horiz-adv-x="687" 
d="M0 687h312v-188h-62v-62h-63v-63h-187v63h187v62h63v125h-250v63v0zM500 687h62v-125h63v-63h-63v-125h-62v313v0zM62 312h500v-250h-500v250v0zM500 249h-375v-125h375v125v0z" />
    <glyph glyph-name="uniAC11" unicode="&#xac11;" horiz-adv-x="687" 
d="M0 687h312v-188h-62v-62h-63v-63h-187v63h187v62h63v125h-250v63v0zM500 687h62v-125h63v-63h-63v-125h-62v313v0zM62 312h63v-63h375v63h62v-250h-500v250v0zM500 187h-375v-63h375v63v0z" />
    <glyph glyph-name="uniAC12" unicode="&#xac12;" horiz-adv-x="687" 
d="M0 687h312v-188h-62v-62h-63v-63h-187v63h187v62h63v125h-250v63v0zM500 687h62v-125h63v-63h-63v-187h-62v375v0zM0 312h62v-63h125v63h63v-188h62v63h63v125h62v-125h63v-63h62v-62h-62v62h-63v63h-62v-63h-63v-62h-312v250v0zM187 187h-125v-63h125v63v0z" />
    <glyph glyph-name="uniAC13" unicode="&#xac13;" horiz-adv-x="687" 
d="M0 687h312v-250h-62v-63h-63v-62h-187v62h187v63h63v187h-250v63v0zM500 687h62v-188h63v-62h-63v-188h-62v438v0zM250 312h125v-125h62v-63h125v-62h-125v62h-62v63h-125v-63h-63v-62h-125v62h125v63h63v125v0z" />
    <glyph glyph-name="uniAC14" unicode="&#xac14;" horiz-adv-x="687" 
d="M0 687h312v-188h-62v-62h-63v-63h-187v63h187v62h63v125h-250v63v0zM500 687h62v-125h63v-63h-63v-187h-62v375v0zM125 312h62v-125h63v-63h62v63h63v125h62v-125h63v-63h62v-62h-62v62h-63v63h-62v-63h-63v-62h-62v62h-63v63h-62v-63h-63v-62h-62v62h62v63h63v125v0z
" />
    <glyph glyph-name="uniAC15" unicode="&#xac15;" horiz-adv-x="687" 
d="M0 687h312v-188h-62v-62h-63v-63h-187v63h187v62h63v125h-250v63v0zM500 687h62v-125h63v-63h-63v-125h-62v313v0zM125 312h375v-63h62v-125h-62v-62h-375v62h-63v125h63v63v0zM500 249h-375v-125h375v125v0z" />
    <glyph glyph-name="uniAC16" unicode="&#xac16;" horiz-adv-x="687" 
d="M0 687h312v-188h-62v-62h-63v-63h-187v63h187v62h63v125h-250v63v0zM500 687h62v-125h63v-63h-63v-125h-62v313v0zM62 312h500v-63h-187v-62h62v-63h125v-62h-125v62h-62v63h-125v-63h-63v-62h-125v62h125v63h63v62h-188v63v0z" />
    <glyph glyph-name="uniAC17" unicode="&#xac17;" horiz-adv-x="687" 
d="M0 687h312v-188h-62v-62h-63v-63h-187v63h187v62h63v125h-250v63v0zM500 687h62v-125h63v-63h-63v-125h-62v313v0zM250 312h125v-63h187v-62h-125v-63h125v-62h-125v62h-62v63h-125v-63h-63v-62h-125v62h125v63h-125v62h188v63v0z" />
    <glyph glyph-name="uniAC19" unicode="&#xac19;" horiz-adv-x="687" 
d="M0 687h312v-188h-62v-62h-63v-63h313v313h62v-125h63v-63h-63v-187h-437v-63h375v-62h-375v-63h437v-62h-500v312h-62v63h187v62h63v125h-250v63v0z" />
    <glyph glyph-name="uniAC1A" unicode="&#xac1a;" horiz-adv-x="687" 
d="M0 687h312v-188h-62v-62h-63v-63h-187v63h187v62h63v125h-250v63v0zM500 687h62v-125h63v-63h-63v-125h-62v313v0zM62 312h500v-63h-62v-125h62v-62h-500v62h63v125h-63v63v0zM437 249h-250v-125h250v125v0z" />
    <glyph glyph-name="uniAC1B" unicode="&#xac1b;" horiz-adv-x="687" 
d="M0 687h312v-188h-62v-62h-63v-63h-187v63h187v62h63v125h-250v63v0zM500 687h62v-125h63v-63h-63v-125h-62v313v0zM250 374h125v-62h187v-63h-125v-62h63v-63h-63v-62h-250v62h-62v63h62v62h-125v63h188v62v0zM437 187h-250v-63h250v63v0z" />
    <glyph glyph-name="uniAC1C" unicode="&#xac1c;" horiz-adv-x="687" 
d="M0 687h312v-313h-62v-125h-63v-62h-62v-63h-125v63h125v62h62v125h63v250h-250v63v0zM375 687h62v-250h63v250h62v-625h-62v312h-63v-312h-62v625v0z" />
    <glyph glyph-name="uniAC1D" unicode="&#xac1d;" 
d="M0 687h312v-188h-62v-62h-63v-63h-187v63h187v62h63v125h-250v63v0zM375 687h62v-125h63v125h62v-313h-62v125h-63v-125h-62v313v0zM62 312h500v-250h-62v187h-438v63v0z" />
    <glyph glyph-name="uniAC20" unicode="&#xac20;" 
d="M0 687h312v-188h-62v-62h-63v-63h-187v63h187v62h63v125h-250v63v0zM375 687h62v-188h63v188h62v-438h-62v188h-63v-188h-62v438v0zM62 312h63v-188h437v-62h-500v250v0z" />
    <glyph glyph-name="uniAC24" unicode="&#xac24;" 
d="M0 687h312v-188h-62v-62h-63v-63h-187v63h187v62h63v125h-250v63v0zM375 687h62v-125h63v125h62v-313h-62v125h-63v-125h-62v313v0zM62 312h500v-125h-250v-63h250v-62h-500v125h250v62h-250v63v0z" />
    <glyph glyph-name="uniAC2C" unicode="&#xac2c;" 
d="M0 687h312v-188h-62v-62h-63v-63h-187v63h187v62h63v125h-250v63v0zM375 687h62v-125h63v125h62v-313h-62v125h-63v-125h-62v313v0zM62 312h500v-250h-500v250v0zM500 249h-375v-125h375v125v0z" />
    <glyph glyph-name="uniAC2D" unicode="&#xac2d;" 
d="M0 687h312v-188h-62v-62h-63v-63h-187v63h187v62h63v125h-250v63v0zM375 687h62v-125h63v125h62v-313h-62v125h-63v-125h-62v313v0zM62 312h63v-63h375v63h62v-250h-500v250v0zM500 187h-375v-63h375v63v0z" />
    <glyph glyph-name="uniAC2F" unicode="&#xac2f;" 
d="M0 687h312v-188h-62v-62h-63v-63h-187v63h187v62h63v125h-250v63v0zM375 687h62v-188h63v188h62v-438h-62v188h-63v-188h-62v438v0zM250 312h62v-125h63v-63h125v-62h-125v62h-63v63h-62v-63h-63v-62h-125v62h125v63h63v125v0z" />
    <glyph glyph-name="uniAC30" unicode="&#xac30;" 
d="M0 687h312v-188h-62v-62h-63v-63h-187v63h187v62h63v125h-250v63v0zM375 687h62v-125h63v125h62v-313h-62v125h-63v-125h-62v313v0zM125 312h62v-125h63v-63h62v63h63v125h62v-125h63v-63h62v-62h-62v62h-63v63h-62v-63h-63v-62h-62v62h-63v63h-62v-63h-63v-62h-62v62h62
v63h63v125v0z" />
    <glyph glyph-name="uniAC31" unicode="&#xac31;" 
d="M0 687h312v-188h-62v-62h-63v-63h-187v63h187v62h63v125h-250v63v0zM375 687h62v-125h63v125h62v-313h-62v125h-63v-125h-62v313v0zM125 312h375v-63h62v-125h-62v-62h-375v62h-63v125h63v63v0zM500 249h-375v-125h375v125v0z" />
    <glyph glyph-name="uniAC38" unicode="&#xac38;" horiz-adv-x="687" 
d="M0 687h312v-313h-62v-125h-63v-62h-62v-63h-125v63h125v62h62v125h63v250h-250v63v0zM500 687h62v-188h63v-62h-63v-125h63v-63h-63v-187h-62v625v0z" />
    <glyph glyph-name="uniAC39" unicode="&#xac39;" horiz-adv-x="687" 
d="M0 687h312v-188h-62v-62h-63v-63h-187v63h187v62h63v125h-250v63v0zM500 687h62v-63h63v-62h-63v-63h63v-62h-63v-63h-62v313v0zM62 312h500v-250h-62v187h-438v63v0z" />
    <glyph glyph-name="uniAC3C" unicode="&#xac3c;" horiz-adv-x="687" 
d="M0 687h312v-188h-62v-62h-63v-63h-187v63h187v62h63v125h-250v63v0zM500 687h62v-125h63v-63h-63v-62h63v-63h-63v-125h-62v438v0zM62 312h63v-188h437v-62h-500v250v0z" />
    <glyph glyph-name="uniAC40" unicode="&#xac40;" horiz-adv-x="687" 
d="M0 687h312v-188h-62v-62h-63v-63h-187v63h187v62h63v125h-250v63v0zM500 687h62v-63h63v-62h-63v-63h63v-62h-63v-63h-62v313v0zM62 312h500v-125h-250v-63h250v-62h-500v125h250v62h-250v63v0z" />
    <glyph glyph-name="uniAC4B" unicode="&#xac4b;" horiz-adv-x="687" 
d="M0 687h312v-250h-62v-63h-63v-62h-187v62h187v63h63v187h-250v63v0zM500 687h62v-125h63v-63h-63v-62h63v-63h-63v-125h-62v438v0zM250 312h125v-125h62v-63h125v-62h-125v62h-62v63h-125v-63h-63v-62h-125v62h125v63h63v125v0z" />
    <glyph glyph-name="uniAC4D" unicode="&#xac4d;" horiz-adv-x="687" 
d="M0 687h312v-188h-62v-62h-63v-63h-187v63h187v62h63v125h-250v63v0zM500 687h62v-63h63v-62h-63v-63h63v-62h-63v-63h-62v313v0zM125 312h375v-63h62v-125h-62v-62h-375v62h-63v125h63v63v0zM500 249h-375v-125h375v125v0z" />
    <glyph glyph-name="uniAC54" unicode="&#xac54;" horiz-adv-x="687" 
d="M0 687h312v-313h-62v-125h-63v-62h-62v-63h-125v63h125v62h62v125h63v250h-250v63v0zM375 687h62v-188h63v188h62v-625h-62v187h-63v-187h-62v625v0zM500 437h-63v-125h63v125v0z" />
    <glyph glyph-name="uniAC58" unicode="&#xac58;" 
d="M0 687h312v-188h-62v-62h-63v-63h-187v63h187v62h63v125h-250v63v0zM375 687h62v-125h63v125h62v-438h-62v125h-63v-125h-62v438v0zM500 499h-63v-62h63v62v0zM62 312h63v-188h437v-62h-500v250v0z" />
    <glyph glyph-name="uniAC5C" unicode="&#xac5c;" 
d="M0 687h312v-188h-62v-62h-63v-63h-187v63h187v62h63v125h-250v63v0zM375 687h62v-63h63v63h62v-313h-62v63h-63v-63h-62v313v0zM500 562h-63v-63h63v63v0zM62 312h500v-125h-250v-63h250v-62h-500v125h250v62h-250v63v0z" />
    <glyph glyph-name="uniAC70" unicode="&#xac70;" horiz-adv-x="687" 
d="M0 687h312v-313h-62v-125h-63v-62h-62v-63h-125v63h125v62h62v125h63v250h-250v63v0zM500 687h62v-625h-62v312h-125v63h125v250v0z" />
    <glyph glyph-name="uniAC71" unicode="&#xac71;" 
d="M0 687h312v-188h-62v-62h-63v-63h-187v63h187v62h63v125h-250v63v0zM500 687h62v-313h-62v125h-125v63h125v125v0zM62 312h500v-250h-62v187h-438v63v0z" />
    <glyph glyph-name="uniAC74" unicode="&#xac74;" 
d="M0 687h312v-188h-62v-62h-63v-63h-187v63h187v62h63v125h-250v63v0zM500 687h62v-438h-62v188h-125v62h125v188v0zM62 312h63v-188h437v-62h-500v250v0z" />
    <glyph glyph-name="uniAC77" unicode="&#xac77;" 
d="M0 687h312v-188h-62v-62h-63v-63h-187v63h187v62h63v125h-250v63v0zM500 687h62v-313h-62v125h-125v63h125v125v0zM62 312h500v-63h-437v-125h437v-62h-500v250v0z" />
    <glyph glyph-name="uniAC78" unicode="&#xac78;" 
d="M0 687h312v-188h-62v-62h-63v-63h-187v63h187v62h63v125h-250v63v0zM500 687h62v-313h-62v125h-125v63h125v125v0zM62 312h500v-125h-250v-63h250v-62h-500v125h250v62h-250v63v0z" />
    <glyph glyph-name="uniAC7A" unicode="&#xac7a;" 
d="M0 687h312v-188h-62v-62h-63v-63h-187v63h187v62h63v125h-250v63v0zM500 687h62v-313h-62v125h-125v63h125v125v0zM62 312h250v-125h-125v-63h125v-62h-250v125h125v62h-125v63v0zM375 312h187v-250h-187v250v0zM500 249h-63v-125h63v125v0z" />
    <glyph glyph-name="uniAC80" unicode="&#xac80;" 
d="M0 687h312v-188h-62v-62h-63v-63h-187v63h187v62h63v125h-250v63v0zM500 687h62v-313h-62v125h-125v63h125v125v0zM62 312h500v-250h-500v250v0zM500 249h-375v-125h375v125v0z" />
    <glyph glyph-name="uniAC81" unicode="&#xac81;" 
d="M0 687h312v-188h-62v-62h-63v-63h-187v63h187v62h63v125h-250v63v0zM500 687h62v-313h-62v125h-125v63h125v125v0zM62 312h63v-63h375v63h62v-250h-500v250v0zM500 187h-375v-63h375v63v0z" />
    <glyph glyph-name="uniAC83" unicode="&#xac83;" 
d="M0 687h312v-250h-62v-63h-63v-62h-187v62h187v63h63v187h-250v63v0zM500 687h62v-438h-62v188h-125v62h125v188v0zM250 312h125v-125h62v-63h125v-62h-125v62h-62v63h-125v-63h-63v-62h-125v62h125v63h63v125v0z" />
    <glyph glyph-name="uniAC84" unicode="&#xac84;" 
d="M0 687h312v-188h-62v-62h-63v-63h-187v63h187v62h63v125h-250v63v0zM500 687h62v-375h-62v125h-125v62h125v188v0zM125 312h62v-125h63v-63h62v63h63v125h62v-125h63v-63h62v-62h-62v62h-63v63h-62v-63h-63v-62h-62v62h-63v63h-62v-63h-63v-62h-62v62h62v63h63v125v0z
" />
    <glyph glyph-name="uniAC85" unicode="&#xac85;" 
d="M0 687h312v-188h-62v-62h-63v-63h-187v63h187v62h63v125h-250v63v0zM500 687h62v-313h-62v125h-125v63h125v125v0zM125 312h375v-63h62v-125h-62v-62h-375v62h-63v125h63v63v0zM500 249h-375v-125h375v125v0z" />
    <glyph glyph-name="uniAC86" unicode="&#xac86;" 
d="M0 687h312v-188h-62v-62h-63v-63h-187v63h187v62h63v125h-250v63v0zM500 687h62v-313h-62v125h-125v63h125v125v0zM62 312h500v-63h-187v-62h62v-63h125v-62h-125v62h-62v63h-125v-63h-63v-62h-125v62h125v63h63v62h-188v63v0z" />
    <glyph glyph-name="uniAC89" unicode="&#xac89;" 
d="M0 687h312v-188h-62v-62h-63v-63h313v125h-125v63h125v125h62v-375h-437v-63h375v-62h-375v-63h437v-62h-500v312h-62v63h187v62h63v125h-250v63v0z" />
    <glyph glyph-name="uniAC8A" unicode="&#xac8a;" 
d="M0 687h312v-188h-62v-62h-63v-63h-187v63h187v62h63v125h-250v63v0zM500 687h62v-313h-62v125h-125v63h125v125v0zM62 312h500v-63h-62v-125h62v-62h-500v62h63v125h-63v63v0zM437 249h-250v-125h250v125v0z" />
    <glyph glyph-name="uniAC8B" unicode="&#xac8b;" 
d="M0 687h312v-188h-62v-62h-63v-63h-187v63h187v62h63v125h-250v63v0zM500 687h62v-313h-62v125h-125v63h125v125v0zM250 374h125v-62h187v-63h-125v-62h63v-63h-63v-62h-250v62h-62v63h62v62h-125v63h188v62v0zM437 187h-250v-63h250v63v0z" />
    <glyph glyph-name="uniAC8C" unicode="&#xac8c;" horiz-adv-x="687" 
d="M0 687h312v-250h63v250h62v-625h-62v312h-125v-125h-63v-62h-62v-63h-125v63h125v62h62v125h63v250h-250v63v0zM500 687h62v-625h-62v625v0z" />
    <glyph glyph-name="uniAC90" unicode="&#xac90;" 
d="M0 687h312v-125h63v125h62v-438h-62v250h-125v-62h-63v-63h-187v63h187v62h63v125h-250v63v0zM500 687h62v-438h-62v438v0zM62 312h63v-188h437v-62h-500v250v0z" />
    <glyph glyph-name="uniAC94" unicode="&#xac94;" 
d="M0 687h312v-125h63v125h62v-313h-62v125h-125v-62h-63v-63h-187v63h187v62h63v125h-250v63v0zM500 687h62v-313h-62v313v0zM62 312h500v-125h-250v-63h250v-62h-500v125h250v62h-250v63v0z" />
    <glyph glyph-name="uniAC9C" unicode="&#xac9c;" 
d="M0 687h312v-125h63v125h62v-313h-62v125h-125v-62h-63v-63h-187v63h187v62h63v125h-250v63v0zM500 687h62v-313h-62v313v0zM62 312h500v-250h-500v250v0zM500 249h-375v-125h375v125v0z" />
    <glyph glyph-name="uniAC9D" unicode="&#xac9d;" 
d="M0 687h312v-125h63v125h62v-313h-62v125h-125v-62h-63v-63h-187v63h187v62h63v125h-250v63v0zM500 687h62v-313h-62v313v0zM62 312h63v-63h375v63h62v-250h-500v250v0zM500 187h-375v-63h375v63v0z" />
    <glyph glyph-name="uniAC9F" unicode="&#xac9f;" 
d="M0 687h312v-188h63v188h62v-438h-62v188h-63v62h-62v-62h-63v-63h-187v63h187v62h63v125h-250v63v0zM500 687h62v-438h-62v438v0zM250 312h62v-125h63v-63h125v-62h-125v62h-63v63h-62v-63h-63v-62h-125v62h125v63h63v125v0z" />
    <glyph glyph-name="uniACA0" unicode="&#xaca0;" 
d="M0 687h312v-125h63v125h62v-313h-62v125h-125v-62h-63v-63h-187v63h187v62h63v125h-250v63v0zM500 687h62v-313h-62v313v0zM125 312h62v-125h63v-63h62v63h63v125h62v-125h63v-63h62v-62h-62v62h-63v63h-62v-63h-63v-62h-62v62h-63v63h-62v-63h-63v-62h-62v62h62v63h63
v125v0z" />
    <glyph glyph-name="uniACA1" unicode="&#xaca1;" 
d="M0 687h312v-125h63v125h62v-313h-62v125h-125v-62h-63v-63h-187v63h187v62h63v125h-250v63v0zM500 687h62v-313h-62v313v0zM125 312h375v-63h62v-125h-62v-62h-375v62h-63v125h63v63v0zM500 249h-375v-125h375v125v0z" />
    <glyph glyph-name="uniACA8" unicode="&#xaca8;" horiz-adv-x="687" 
d="M0 687h312v-313h-62v-125h-63v-62h-62v-63h-125v63h125v62h62v125h63v250h-250v63v0zM500 687h62v-625h-62v187h-125v63h125v125h-125v62h125v188v0z" />
    <glyph glyph-name="uniACA9" unicode="&#xaca9;" 
d="M0 687h312v-188h-62v-62h-63v-63h-187v63h187v62h63v125h-250v63v0zM500 687h62v-313h-62v63h-125v62h125v63h-125v62h125v63v0zM62 312h500v-250h-62v187h-438v63v0z" />
    <glyph glyph-name="uniACAA" unicode="&#xacaa;" 
d="M0 687h312v-188h-62v-62h-63v-63h-187v63h187v62h63v125h-250v63v0zM500 687h62v-313h-62v63h-125v62h125v63h-125v62h125v63v0zM62 312h500v-250h-62v187h-188v-187h-62v187h-188v63v0z" />
    <glyph glyph-name="uniACAC" unicode="&#xacac;" 
d="M0 687h312v-188h-62v-62h-63v-63h-187v63h187v62h63v125h-250v63v0zM500 687h62v-438h-62v125h-125v63h125v62h-125v63h125v125v0zM62 312h63v-188h437v-62h-500v250v0z" />
    <glyph glyph-name="uniACAF" unicode="&#xacaf;" 
d="M0 687h312v-188h-62v-62h-63v-63h-187v63h187v62h63v125h-250v63v0zM500 687h62v-313h-62v63h-125v62h125v63h-125v62h125v63v0zM62 312h500v-63h-437v-125h437v-62h-500v250v0z" />
    <glyph glyph-name="uniACB0" unicode="&#xacb0;" 
d="M0 687h312v-188h-62v-62h-63v-63h-187v63h187v62h63v125h-250v63v0zM500 687h62v-313h-62v63h-125v62h125v63h-125v62h125v63v0zM62 312h500v-125h-250v-63h250v-62h-500v125h250v62h-250v63v0z" />
    <glyph glyph-name="uniACB8" unicode="&#xacb8;" 
d="M0 687h312v-188h-62v-62h-63v-63h-187v63h187v62h63v125h-250v63v0zM500 687h62v-313h-62v63h-125v62h125v63h-125v62h125v63v0zM62 312h500v-250h-500v250v0zM500 249h-375v-125h375v125v0z" />
    <glyph glyph-name="uniACB9" unicode="&#xacb9;" 
d="M0 687h312v-188h-62v-62h-63v-63h-187v63h187v62h63v125h-250v63v0zM500 687h62v-313h-62v63h-125v62h125v63h-125v62h125v63v0zM62 312h63v-63h375v63h62v-250h-500v250v0zM500 187h-375v-63h375v63v0z" />
    <glyph glyph-name="uniACBB" unicode="&#xacbb;" 
d="M0 687h312v-188h-62v-62h-63v-63h-187v63h187v62h63v125h-250v63v0zM500 687h62v-438h-62v125h-125v63h125v62h-125v63h125v125v0zM250 312h125v-125h62v-63h125v-62h-125v62h-62v63h-125v-63h-63v-62h-125v62h125v63h63v125v0z" />
    <glyph glyph-name="uniACBC" unicode="&#xacbc;" 
d="M0 687h312v-188h-62v-62h-63v-63h-187v63h187v62h63v125h-250v63v0zM500 687h62v-375h-62v125h-125v62h125v63h-125v62h125v63v0zM125 312h62v-125h63v-63h62v63h63v125h62v-125h63v-63h62v-62h-62v62h-63v63h-62v-63h-63v-62h-62v62h-63v63h-62v-63h-63v-62h-62v62h62
v63h63v125v0z" />
    <glyph glyph-name="uniACBD" unicode="&#xacbd;" 
d="M0 687h312v-188h-62v-62h-63v-63h-187v63h187v62h63v125h-250v63v0zM500 687h62v-313h-62v63h-125v62h125v63h-125v62h125v63v0zM125 312h375v-63h62v-125h-62v-62h-375v62h-63v125h63v63v0zM500 249h-375v-125h375v125v0z" />
    <glyph glyph-name="uniACC1" unicode="&#xacc1;" 
d="M0 687h312v-188h-62v-62h-63v-63h313v63h-125v62h125v63h-125v62h125v63h62v-375h-437v-63h375v-62h-375v-63h437v-62h-500v312h-62v63h187v62h63v125h-250v63v0z" />
    <glyph glyph-name="uniACC4" unicode="&#xacc4;" horiz-adv-x="687" 
d="M0 687h312v-188h63v188h62v-625h-62v187h-63v63h63v125h-63v-63h-62v-125h-63v-62h-62v-63h-125v63h125v62h62v125h63v250h-250v63v0zM500 687h62v-625h-62v625v0z" />
    <glyph glyph-name="uniACC8" unicode="&#xacc8;" 
d="M0 687h312v-125h63v125h62v-438h-62v125h-63v63h63v62h-125v-62h-63v-63h-187v63h187v62h63v125h-250v63v0zM500 687h62v-438h-62v438v0zM62 312h63v-188h437v-62h-500v250v0z" />
    <glyph glyph-name="uniACCC" unicode="&#xaccc;" 
d="M0 687h312v-63h63v63h62v-313h-62v63h-63v62h-62v-62h-63v-63h-187v63h187v62h63v125h-250v63v0zM500 687h62v-313h-62v313v0zM375 562h-63v-63h63v63v0zM62 312h500v-125h-250v-63h250v-62h-500v125h250v62h-250v63v0z" />
    <glyph glyph-name="uniACD5" unicode="&#xacd5;" 
d="M0 687h312v-63h63v63h62v-313h-62v63h-63v62h-62v-62h-63v-63h-187v63h187v62h63v125h-250v63v0zM500 687h62v-313h-62v313v0zM375 562h-63v-63h63v63v0zM62 312h63v-63h375v63h62v-250h-500v250v0zM500 187h-375v-63h375v63v0z" />
    <glyph glyph-name="uniACD7" unicode="&#xacd7;" 
d="M0 687h312v-125h63v125h62v-438h-62v125h-63v63h63v62h-125v-62h-63v-63h-187v63h187v62h63v125h-250v63v0zM500 687h62v-438h-62v438v0zM250 312h62v-125h63v-63h125v-62h-125v62h-63v63h-62v-63h-63v-62h-125v62h125v63h63v125v0z" />
    <glyph glyph-name="uniACE0" unicode="&#xace0;" 
d="M62 687h438v-437h-63v375h-375v62v0zM250 437h62v-250h250v-62h-562v62h250v250v0z" />
    <glyph glyph-name="uniACE1" unicode="&#xace1;" 
d="M62 687h438v-188h-63v125h-375v63v0zM250 562h62v-125h250v-63h-562v63h250v125v0zM62 312h438v-250h-63v187h-375v63v0z" />
    <glyph glyph-name="uniACE4" unicode="&#xace4;" 
d="M62 687h438v-188h-63v125h-375v63v0zM250 562h62v-125h250v-63h-562v63h250v125v0zM62 312h63v-188h375v-62h-438v250v0z" />
    <glyph glyph-name="uniACE7" unicode="&#xace7;" 
d="M62 687h438v-188h-63v125h-375v63v0zM250 562h62v-125h250v-63h-562v63h250v125v0zM62 312h438v-63h-375v-125h375v-62h-438v250v0z" />
    <glyph glyph-name="uniACE8" unicode="&#xace8;" 
d="M62 687h438v-188h-63v125h-375v63v0zM250 562h62v-125h250v-63h-562v63h250v125v0zM62 312h438v-125h-250v-63h250v-62h-438v125h188v62h-188v63v0z" />
    <glyph glyph-name="uniACEA" unicode="&#xacea;" 
d="M62 687h438v-188h-63v125h-375v63v0zM250 562h62v-125h250v-63h-562v63h250v125v0zM62 312h188v-125h-125v-63h125v-62h-188v125h63v62h-63v63v0zM312 312h188v-250h-188v250v0zM437 249h-62v-125h62v125v0z" />
    <glyph glyph-name="uniACEC" unicode="&#xacec;" 
d="M62 687h438v-188h-63v125h-375v63v0zM250 562h62v-125h250v-63h-562v63h250v125v0zM62 312h188v-125h-125v-63h187v63h63v125h62v-125h63v-63h62v-62h-62v62h-63v63h-62v-63h-63v-62h-250v125h63v62h-63v63v0z" />
    <glyph glyph-name="uniACEF" unicode="&#xacef;" 
d="M62 687h438v-188h-63v125h-375v63v0zM250 562h62v-125h250v-63h-562v63h250v125v0zM62 312h188v-63h125v63h62v-63h125v-62h-62v-63h-63v-62h-62v62h-63v63h-187v-63h125v-62h-188v125h63v62h-63v63v0zM437 187h-62v-63h62v63v0z" />
    <glyph glyph-name="uniACF0" unicode="&#xacf0;" 
d="M62 687h438v-188h-63v125h-375v63v0zM250 562h62v-125h250v-63h-562v63h250v125v0zM62 312h438v-250h-438v250v0zM437 249h-312v-125h312v125v0z" />
    <glyph glyph-name="uniACF1" unicode="&#xacf1;" 
d="M62 687h438v-188h-63v125h-375v63v0zM250 562h62v-125h250v-63h-562v63h250v125v0zM62 312h63v-63h312v63h63v-250h-438v250v0zM437 187h-312v-63h312v63v0z" />
    <glyph glyph-name="uniACF3" unicode="&#xacf3;" 
d="M62 687h438v-188h-63v125h-375v63v0zM250 562h62v-125h250v-63h-562v63h250v125v0zM250 312h62v-125h63v-63h125v-62h-125v62h-63v63h-62v-63h-63v-62h-125v62h125v63h63v125v0z" />
    <glyph glyph-name="uniACF5" unicode="&#xacf5;" 
d="M62 687h438v-188h-63v125h-375v63v0zM250 562h62v-125h250v-63h-562v63h250v125v0zM125 312h312v-63h63v-125h-63v-62h-312v62h-63v125h63v63v0zM437 249h-312v-125h312v125v0z" />
    <glyph glyph-name="uniACF6" unicode="&#xacf6;" 
d="M62 687h438v-188h-63v125h-375v63v0zM250 562h62v-125h250v-63h-562v63h250v125v0zM62 312h438v-63h-188v-62h63v-63h125v-62h-125v62h-63v63h-62v-63h-63v-62h-125v62h125v63h63v62h-188v63v0z" />
    <glyph glyph-name="uniACFC" unicode="&#xacfc;" horiz-adv-x="687" 
d="M0 687h375v-375h-63v312h-312v63v0zM500 687h62v-250h63v-63h-63v-312h-62v625v0zM125 437h62v-250h250v-63h-437v63h125v250v0z" />
    <glyph glyph-name="uniACFD" unicode="&#xacfd;" horiz-adv-x="687" 
d="M0 687h375v-188h-63v125h-312v63v0zM500 687h62v-125h63v-63h-63v-125h-62v313v0zM125 562h62v-125h250v-63h-437v63h125v125v0zM62 312h500v-250h-62v187h-438v63v0z" />
    <glyph glyph-name="uniAD00" unicode="&#xad00;" horiz-adv-x="687" 
d="M0 687h375v-188h-63v125h-312v63v0zM500 687h62v-188h63v-62h-63v-188h-62v438v0zM125 562h62v-125h250v-63h-437v63h125v125v0zM62 312h63v-188h437v-62h-500v250v0z" />
    <glyph glyph-name="uniAD04" unicode="&#xad04;" horiz-adv-x="687" 
d="M0 687h375v-188h-63v125h-312v63v0zM500 687h62v-125h63v-63h-63v-125h-62v313v0zM125 562h62v-125h250v-63h-437v63h125v125v0zM62 312h500v-125h-250v-63h250v-62h-500v125h250v62h-250v63v0z" />
    <glyph glyph-name="uniAD06" unicode="&#xad06;" horiz-adv-x="687" 
d="M0 687h375v-188h-63v125h-312v63v0zM500 687h62v-125h63v-63h-63v-125h-62v313v0zM125 562h62v-125h250v-63h-437v63h125v125v0zM62 312h250v-125h-125v-63h125v-62h-250v125h125v62h-125v63v0zM375 312h187v-250h-187v250v0zM500 249h-63v-125h63v125v0z" />
    <glyph glyph-name="uniAD0C" unicode="&#xad0c;" horiz-adv-x="687" 
d="M0 687h375v-188h-63v125h-312v63v0zM500 687h62v-125h63v-63h-63v-125h-62v313v0zM125 562h62v-125h250v-63h-437v63h125v125v0zM62 312h500v-250h-500v250v0zM500 249h-375v-125h375v125v0z" />
    <glyph glyph-name="uniAD0D" unicode="&#xad0d;" horiz-adv-x="687" 
d="M0 687h375v-188h-63v125h-312v63v0zM500 687h62v-125h63v-63h-63v-125h-62v313v0zM125 562h62v-125h250v-63h-437v63h125v125v0zM62 312h63v-63h375v63h62v-250h-500v250v0zM500 187h-375v-63h375v63v0z" />
    <glyph glyph-name="uniAD0F" unicode="&#xad0f;" horiz-adv-x="687" 
d="M0 687h375v-188h-63v125h-312v63v0zM500 687h62v-188h63v-62h-63v-188h-62v438v0zM125 562h62v-125h250v-63h-437v63h125v125v0zM250 312h125v-125h62v-63h125v-62h-125v62h-62v63h-125v-63h-63v-62h-125v62h125v63h63v125v0z" />
    <glyph glyph-name="uniAD11" unicode="&#xad11;" horiz-adv-x="687" 
d="M0 687h375v-188h-63v125h-312v63v0zM500 687h62v-125h63v-63h-63v-125h-62v313v0zM125 562h62v-125h250v-63h-437v63h125v125v0zM125 312h375v-63h62v-125h-62v-62h-375v62h-63v125h63v63v0zM500 249h-375v-125h375v125v0z" />
    <glyph glyph-name="uniAD18" unicode="&#xad18;" horiz-adv-x="687" 
d="M0 687h312v-375h-62v312h-250v63v0zM375 687h62v-250h63v250h62v-625h-62v312h-63v-312h-62v625v0zM125 437h62v-250h125v-63h-312v63h125v250v0z" />
    <glyph glyph-name="uniAD1C" unicode="&#xad1c;" 
d="M0 687h312v-188h-62v125h-250v63v0zM375 687h62v-188h63v188h62v-438h-62v188h-63v-188h-62v438v0zM125 562h62v-125h125v-63h-312v63h125v125v0zM62 312h63v-188h437v-62h-500v250v0z" />
    <glyph glyph-name="uniAD20" unicode="&#xad20;" 
d="M0 687h312v-188h-62v125h-250v63v0zM375 687h62v-125h63v125h62v-313h-62v125h-63v-125h-62v313v0zM125 562h62v-125h125v-63h-312v63h125v125v0zM62 312h500v-125h-250v-63h250v-62h-500v125h250v62h-250v63v0z" />
    <glyph glyph-name="uniAD29" unicode="&#xad29;" 
d="M0 687h312v-188h-62v125h-250v63v0zM375 687h62v-125h63v125h62v-313h-62v125h-63v-125h-62v313v0zM125 562h62v-125h125v-63h-312v63h125v125v0zM62 312h63v-63h375v63h62v-250h-500v250v0zM500 187h-375v-63h375v63v0z" />
    <glyph glyph-name="uniAD2C" unicode="&#xad2c;" 
d="M0 687h312v-188h-62v125h-250v63v0zM375 687h62v-125h63v125h62v-313h-62v125h-63v-125h-62v313v0zM125 562h62v-125h125v-63h-312v63h125v125v0zM125 312h62v-125h63v-63h62v63h63v125h62v-125h63v-63h62v-62h-62v62h-63v63h-62v-63h-63v-62h-62v62h-63v63h-62v-63h-63
v-62h-62v62h62v63h63v125v0z" />
    <glyph glyph-name="uniAD2D" unicode="&#xad2d;" 
d="M0 687h312v-188h-62v125h-250v63v0zM375 687h62v-125h63v125h62v-313h-62v125h-63v-125h-62v313v0zM125 562h62v-125h125v-63h-312v63h125v125v0zM125 312h375v-63h62v-125h-62v-62h-375v62h-63v125h63v63v0zM500 249h-375v-125h375v125v0z" />
    <glyph glyph-name="uniAD34" unicode="&#xad34;" horiz-adv-x="687" 
d="M0 687h375v-375h-63v312h-312v63v0zM500 687h62v-625h-62v625v0zM125 437h62v-250h250v-63h-437v63h125v250v0z" />
    <glyph glyph-name="uniAD35" unicode="&#xad35;" 
d="M0 687h375v-188h-63v125h-312v63v0zM500 687h62v-313h-62v313v0zM125 562h62v-125h250v-63h-437v63h125v125v0zM62 312h500v-250h-62v187h-438v63v0z" />
    <glyph glyph-name="uniAD38" unicode="&#xad38;" 
d="M0 687h375v-188h-63v125h-312v63v0zM500 687h62v-438h-62v438v0zM125 562h62v-125h250v-63h-437v63h125v125v0zM62 312h63v-188h437v-62h-500v250v0z" />
    <glyph glyph-name="uniAD3C" unicode="&#xad3c;" 
d="M0 687h375v-188h-63v125h-312v63v0zM500 687h62v-313h-62v313v0zM125 562h62v-125h250v-63h-437v63h125v125v0zM62 312h500v-125h-250v-63h250v-62h-500v125h250v62h-250v63v0z" />
    <glyph glyph-name="uniAD44" unicode="&#xad44;" 
d="M0 687h375v-188h-63v125h-312v63v0zM500 687h62v-313h-62v313v0zM125 562h62v-125h250v-63h-437v63h125v125v0zM62 312h500v-250h-500v250v0zM500 249h-375v-125h375v125v0z" />
    <glyph glyph-name="uniAD45" unicode="&#xad45;" 
d="M0 687h375v-188h-63v125h-312v63v0zM500 687h62v-313h-62v313v0zM125 562h62v-125h250v-63h-437v63h125v125v0zM62 312h63v-63h375v63h62v-250h-500v250v0zM500 187h-375v-63h375v63v0z" />
    <glyph glyph-name="uniAD47" unicode="&#xad47;" 
d="M0 687h375v-188h-63v125h-312v63v0zM500 687h62v-438h-62v438v0zM125 562h62v-125h250v-63h-437v63h125v125v0zM250 312h125v-125h62v-63h125v-62h-125v62h-62v63h-125v-63h-63v-62h-125v62h125v63h63v125v0z" />
    <glyph glyph-name="uniAD49" unicode="&#xad49;" 
d="M0 687h375v-188h-63v125h-312v63v0zM500 687h62v-313h-62v313v0zM125 562h62v-125h250v-63h-437v63h125v125v0zM125 312h375v-63h62v-125h-62v-62h-375v62h-63v125h63v63v0zM500 249h-375v-125h375v125v0z" />
    <glyph glyph-name="uniAD50" unicode="&#xad50;" 
d="M62 687h438v-437h-63v375h-375v62v0zM125 437h62v-250h125v250h63v-250h187v-62h-562v62h125v250v0z" />
    <glyph glyph-name="uniAD54" unicode="&#xad54;" 
d="M62 687h438v-250h62v-63h-562v63h125v125h62v-125h125v125h63v-125h62v187h-375v63v0zM62 312h63v-188h375v-62h-438v250v0z" />
    <glyph glyph-name="uniAD58" unicode="&#xad58;" 
d="M62 687h438v-250h62v-63h-562v63h125v125h62v-125h125v125h63v-125h62v187h-375v63v0zM62 312h438v-125h-250v-63h250v-62h-438v125h188v62h-188v63v0z" />
    <glyph glyph-name="uniAD61" unicode="&#xad61;" 
d="M62 687h438v-250h62v-63h-562v63h125v125h62v-125h125v125h63v-125h62v187h-375v63v0zM62 312h63v-63h312v63h63v-250h-438v250v0zM437 187h-312v-63h312v63v0z" />
    <glyph glyph-name="uniAD63" unicode="&#xad63;" 
d="M62 687h438v-250h62v-63h-562v63h125v125h62v-125h125v125h63v-125h62v187h-375v63v0zM250 312h62v-125h63v-63h125v-62h-125v62h-63v63h-62v-63h-63v-62h-125v62h125v63h63v125v0z" />
    <glyph glyph-name="uniAD6C" unicode="&#xad6c;" 
d="M62 687h438v-313h62v-62h-250v-250h-62v250h-250v62h437v250h-375v63v0z" />
    <glyph glyph-name="uniAD6D" unicode="&#xad6d;" 
d="M62 687h438v-250h62v-63h-250v-62h188v-250h-63v187h-375v63h188v62h-250v63h437v187h-375v63v0z" />
    <glyph glyph-name="uniAD70" unicode="&#xad70;" 
d="M62 687h438v-250h62v-63h-250v-125h-62v125h-250v63h437v187h-375v63v0zM62 312h63v-188h375v-62h-438v250v0z" />
    <glyph glyph-name="uniAD73" unicode="&#xad73;" 
d="M62 687h438v-250h62v-63h-250v-62h188v-63h-375v-125h375v-62h-438v250h188v62h-250v63h437v187h-375v63v0z" />
    <glyph glyph-name="uniAD74" unicode="&#xad74;" 
d="M62 687h438v-250h62v-63h-250v-62h188v-125h-250v-63h250v-62h-438v125h188v62h-188v63h188v62h-250v63h437v187h-375v63v0z" />
    <glyph glyph-name="uniAD75" unicode="&#xad75;" 
d="M62 687h438v-250h62v-63h-250v-62h188v-250h-63v187h-125v63h-62v-125h-125v-63h125v-62h-188v125h63v62h-63v63h188v62h-250v63h437v187h-375v63v0z" />
    <glyph glyph-name="uniAD76" unicode="&#xad76;" 
d="M62 687h438v-250h62v-63h-250v-62h188v-250h-188v250h-62v-125h-125v-63h125v-62h-188v125h63v62h-63v63h188v62h-250v63h437v187h-375v63v0zM437 249h-62v-125h62v125v0z" />
    <glyph glyph-name="uniAD7B" unicode="&#xad7b;" 
d="M62 687h438v-250h62v-63h-250v-62h-62v-63h125v63h62v-63h125v-62h-62v-63h-63v-62h-62v62h-63v63h-187v-63h125v-62h-188v125h63v62h-63v63h188v62h-250v63h437v187h-375v63v0zM437 187h-62v-63h62v63v0z" />
    <glyph glyph-name="uniAD7C" unicode="&#xad7c;" 
d="M62 687h438v-250h62v-63h-250v-62h188v-250h-438v250h188v62h-250v63h437v187h-375v63v0zM437 249h-312v-125h312v125v0z" />
    <glyph glyph-name="uniAD7D" unicode="&#xad7d;" 
d="M62 687h438v-250h62v-63h-250v-62h-62v62h-250v63h437v187h-375v63v0zM62 312h63v-63h312v63h63v-250h-438v250v0zM437 187h-312v-63h312v63v0z" />
    <glyph glyph-name="uniAD7F" unicode="&#xad7f;" 
d="M62 687h438v-250h62v-63h-250v-62h-62v62h-250v63h437v187h-375v63v0zM250 249h62v-62h63v-63h125v-62h-125v62h-63v63h-62v-63h-63v-62h-125v62h125v63h63v62v0z" />
    <glyph glyph-name="uniAD81" unicode="&#xad81;" 
d="M62 687h438v-250h62v-63h-250v-62h125v-63h63v-125h-63v-62h-312v62h-63v125h63v63h125v62h-250v63h437v187h-375v63v0zM437 249h-312v-125h312v125v0z" />
    <glyph glyph-name="uniAD82" unicode="&#xad82;" 
d="M62 687h438v-250h62v-63h-250v-62h188v-63h-188v-62h63v-63h125v-62h-125v62h-63v63h-62v-63h-63v-62h-125v62h125v63h63v62h-188v63h188v62h-250v63h437v187h-375v63v0z" />
    <glyph glyph-name="uniAD88" unicode="&#xad88;" horiz-adv-x="687" 
d="M0 687h375v-250h62v-63h-187v-312h-63v312h-187v63h312v187h-312v63v0zM500 687h62v-625h-62v187h-125v63h125v375v0z" />
    <glyph glyph-name="uniAD89" unicode="&#xad89;" horiz-adv-x="687" 
d="M62 687h313v-188h62v-62h63v250h62v-625h-62v187h-438v63h125v125h-187v62h312v125h-250v63v0zM437 437h-187v-125h250v62h-63v63v0z" />
    <glyph glyph-name="uniAD8C" unicode="&#xad8c;" 
d="M62 687h313v-188h62v-62h63v250h62v-438h-62v125h-63v63h-187v-188h-63v188h-187v62h312v125h-250v63v0zM62 312h63v-188h437v-62h-500v250v0z" />
    <glyph glyph-name="uniAD90" unicode="&#xad90;" 
d="M62 687h313v-188h62v-62h63v250h62v-313h-125v63h-187v-63h-63v63h-187v62h312v125h-250v63v0zM62 312h500v-125h-250v-63h250v-62h-500v125h250v62h-250v63v0z" />
    <glyph glyph-name="uniAD9C" unicode="&#xad9c;" 
d="M62 687h313v-188h62v-62h63v250h62v-375h-62v62h-63v63h-187v-125h-63v-125h63v-63h62v63h63v125h62v-125h63v-63h62v-62h-62v62h-63v63h-62v-63h-63v-62h-62v62h-63v63h-62v-63h-63v-62h-62v62h62v63h63v125h62v125h-187v62h312v125h-250v63v0z" />
    <glyph glyph-name="uniAD9D" unicode="&#xad9d;" 
d="M62 687h313v-188h62v-62h63v250h62v-375h-62v-63h62v-125h-62v-62h-375v62h-63v125h63v63h62v125h-187v62h312v125h-250v63v0zM437 437h-187v-125h250v62h-63v63v0zM500 249h-375v-125h375v125v0z" />
    <glyph glyph-name="uniADA4" unicode="&#xada4;" horiz-adv-x="687" 
d="M0 687h250v-250h62v-63h-125v-312h-62v312h-125v63h187v187h-187v63v0zM375 687h62v-625h-62v187h-125v63h125v375v0zM500 687h62v-625h-62v625v0z" />
    <glyph glyph-name="uniADB7" unicode="&#xadb7;" 
d="M0 687h250v-188h62v-62h63v250h62v-438h-62v125h-63v63h-187v-125h-63v125h-62v62h187v125h-187v63v0zM500 687h62v-438h-62v438v0zM250 312h62v-125h63v-63h125v-62h-125v62h-63v63h-62v-63h-63v-62h-125v62h125v63h63v125v0z" />
    <glyph glyph-name="uniADC0" unicode="&#xadc0;" horiz-adv-x="687" 
d="M0 687h375v-250h62v-63h-187v-312h-63v312h-187v63h312v187h-312v63v0zM500 687h62v-625h-62v625v0z" />
    <glyph glyph-name="uniADC1" unicode="&#xadc1;" 
d="M0 687h375v-250h62v-63h-187v-62h312v-250h-62v187h-438v63h125v62h-187v63h312v187h-312v63v0zM500 687h62v-313h-62v313v0z" />
    <glyph glyph-name="uniADC4" unicode="&#xadc4;" 
d="M0 687h375v-250h62v-63h-187v-125h-63v125h-187v63h312v187h-312v63v0zM500 687h62v-438h-62v438v0zM62 312h63v-188h437v-62h-500v250v0z" />
    <glyph glyph-name="uniADC8" unicode="&#xadc8;" 
d="M0 687h375v-250h62v-63h-187v-62h312v-125h-250v-63h250v-62h-500v125h250v62h-250v63h125v62h-187v63h312v187h-312v63v0zM500 687h62v-313h-62v313v0z" />
    <glyph glyph-name="uniADD0" unicode="&#xadd0;" 
d="M0 687h375v-250h62v-63h-250v-62h375v-250h-500v250h63v62h-125v63h312v187h-312v63v0zM500 687h62v-313h-62v313v0zM500 249h-375v-125h375v125v0z" />
    <glyph glyph-name="uniADD1" unicode="&#xadd1;" 
d="M0 687h375v-250h62v-63h-187v-62h-63v62h-187v63h312v187h-312v63v0zM500 687h62v-313h-62v313v0zM62 312h63v-63h375v63h62v-250h-500v250v0zM500 187h-375v-63h375v63v0z" />
    <glyph glyph-name="uniADD3" unicode="&#xadd3;" 
d="M0 687h375v-250h62v-63h-187v-125h125v-62h62v-63h125v-62h-125v62h-62v63h-125v-63h-63v-62h-125v62h125v63h63v62h-63v125h-187v63h312v187h-312v63v0zM500 687h62v-438h-62v438v0z" />
    <glyph glyph-name="uniADDC" unicode="&#xaddc;" 
d="M62 687h438v-313h62v-62h-125v-250h-62v250h-188v-250h-62v250h-125v62h437v250h-375v63v0z" />
    <glyph glyph-name="uniADE0" unicode="&#xade0;" 
d="M62 687h438v-250h62v-63h-125v-187h-62v187h-125v-187h-63v187h-187v63h437v187h-375v63v0zM62 312h63v-188h375v-62h-438v250v0z" />
    <glyph glyph-name="uniADE4" unicode="&#xade4;" 
d="M62 687h438v-250h62v-63h-125v-62h63v-125h-250v-63h250v-62h-438v125h188v62h-188v63h63v62h-125v63h437v187h-375v63v0zM375 374h-188v-62h188v62v0z" />
    <glyph glyph-name="uniADF8" unicode="&#xadf8;" 
d="M62 687h438v-437h-63v375h-375v62v0zM0 187h562v-62h-562v62v0z" />
    <glyph glyph-name="uniADF9" unicode="&#xadf9;" 
d="M62 687h438v-250h62v-63h-562v63h437v187h-375v63v0zM62 312h438v-250h-63v187h-375v63v0z" />
    <glyph glyph-name="uniADFC" unicode="&#xadfc;" 
d="M62 687h438v-250h62v-63h-562v63h437v187h-375v63v0zM62 312h63v-188h375v-62h-438v250v0z" />
    <glyph glyph-name="uniADFF" unicode="&#xadff;" 
d="M62 687h438v-250h62v-63h-562v63h437v187h-375v63v0zM62 312h438v-63h-375v-125h375v-62h-438v250v0z" />
    <glyph glyph-name="uniAE00" unicode="&#xae00;" 
d="M62 687h438v-250h62v-63h-562v63h437v187h-375v63v0zM62 312h438v-125h-250v-63h250v-62h-438v125h188v62h-188v63v0z" />
    <glyph glyph-name="uniAE01" unicode="&#xae01;" 
d="M62 687h438v-250h62v-63h-562v63h437v187h-375v63v0zM62 312h188v-125h-125v-63h125v-62h-188v125h63v62h-63v63v0zM312 312h188v-250h-63v187h-125v63v0z" />
    <glyph glyph-name="uniAE08" unicode="&#xae08;" 
d="M62 687h438v-250h62v-63h-562v63h437v187h-375v63v0zM62 312h438v-250h-438v250v0zM437 249h-312v-125h312v125v0z" />
    <glyph glyph-name="uniAE09" unicode="&#xae09;" 
d="M62 687h438v-250h62v-63h-562v63h437v187h-375v63v0zM62 312h63v-63h312v63h63v-250h-438v250v0zM437 187h-312v-63h312v63v0z" />
    <glyph glyph-name="uniAE0B" unicode="&#xae0b;" 
d="M62 687h438v-250h62v-63h-562v63h437v187h-375v63v0zM250 312h62v-125h63v-63h125v-62h-125v62h-63v63h-62v-63h-63v-62h-125v62h125v63h63v125v0z" />
    <glyph glyph-name="uniAE0D" unicode="&#xae0d;" 
d="M62 687h438v-250h62v-63h-562v63h437v187h-375v63v0zM125 312h312v-63h63v-125h-63v-62h-312v62h-63v125h63v63v0zM437 249h-312v-125h312v125v0z" />
    <glyph glyph-name="uniAE14" unicode="&#xae14;" horiz-adv-x="687" 
d="M0 687h375v-438h-63v375h-312v63v0zM500 687h62v-625h-62v625v0zM0 187h437v-63h-437v63v0z" />
    <glyph glyph-name="uniAE30" unicode="&#xae30;" horiz-adv-x="687" 
d="M0 687h312v-313h-62v-125h-63v-62h-62v-63h-125v63h125v62h62v125h63v250h-250v63v0zM500 687h62v-625h-62v625v0z" />
    <glyph glyph-name="uniAE31" unicode="&#xae31;" 
d="M0 687h312v-188h-62v-62h-63v-63h-187v63h187v62h63v125h-250v63v0zM500 687h62v-313h-62v313v0zM62 312h500v-250h-62v187h-438v63v0z" />
    <glyph glyph-name="uniAE34" unicode="&#xae34;" 
d="M0 687h312v-188h-62v-62h-63v-63h-187v63h187v62h63v125h-250v63v0zM500 687h62v-438h-62v438v0zM62 312h63v-188h437v-62h-500v250v0z" />
    <glyph glyph-name="uniAE37" unicode="&#xae37;" 
d="M0 687h312v-188h-62v-62h-63v-63h-187v63h187v62h63v125h-250v63v0zM500 687h62v-313h-62v313v0zM62 312h500v-63h-437v-125h437v-62h-500v250v0z" />
    <glyph glyph-name="uniAE38" unicode="&#xae38;" 
d="M0 687h312v-188h-62v-62h-63v-63h-187v63h187v62h63v125h-250v63v0zM500 687h62v-313h-62v313v0zM62 312h500v-125h-250v-63h250v-62h-500v125h250v62h-250v63v0z" />
    <glyph glyph-name="uniAE3A" unicode="&#xae3a;" 
d="M0 687h312v-188h-62v-62h-63v-63h-187v63h187v62h63v125h-250v63v0zM500 687h62v-313h-62v313v0zM62 312h250v-125h-125v-63h125v-62h-250v125h125v62h-125v63v0zM375 312h187v-250h-187v250v0zM500 249h-63v-125h63v125v0z" />
    <glyph glyph-name="uniAE40" unicode="&#xae40;" 
d="M0 687h312v-188h-62v-62h-63v-63h-187v63h187v62h63v125h-250v63v0zM500 687h62v-313h-62v313v0zM62 312h500v-250h-500v250v0zM500 249h-375v-125h375v125v0z" />
    <glyph glyph-name="uniAE41" unicode="&#xae41;" 
d="M0 687h312v-188h-62v-62h-63v-63h-187v63h187v62h63v125h-250v63v0zM500 687h62v-313h-62v313v0zM62 312h63v-63h375v63h62v-250h-500v250v0zM500 187h-375v-63h375v63v0z" />
    <glyph glyph-name="uniAE43" unicode="&#xae43;" 
d="M0 687h312v-188h-62v-62h-63v-63h-187v63h187v62h63v125h-250v63v0zM500 687h62v-438h-62v438v0zM250 312h125v-125h62v-63h125v-62h-125v62h-62v63h-125v-63h-63v-62h-125v62h125v63h63v125v0z" />
    <glyph glyph-name="uniAE45" unicode="&#xae45;" 
d="M0 687h312v-188h-62v-62h-63v-63h-187v63h187v62h63v125h-250v63v0zM500 687h62v-313h-62v313v0zM125 312h375v-63h62v-125h-62v-62h-375v62h-63v125h63v63v0zM500 249h-375v-125h375v125v0z" />
    <glyph glyph-name="uniAE46" unicode="&#xae46;" 
d="M0 687h312v-188h-62v-62h-63v-63h-187v63h187v62h63v125h-250v63v0zM500 687h62v-313h-62v313v0zM62 312h500v-63h-187v-62h62v-63h125v-62h-125v62h-62v63h-125v-63h-63v-62h-125v62h125v63h63v62h-188v63v0z" />
    <glyph glyph-name="uniAE4A" unicode="&#xae4a;" 
d="M0 687h312v-188h-62v-62h-63v-63h-187v63h187v62h63v125h-250v63v0zM500 687h62v-313h-62v313v0zM62 312h500v-63h-62v-125h62v-62h-500v62h63v125h-63v63v0zM437 249h-250v-125h250v125v0z" />
    <glyph glyph-name="uniAE4C" unicode="&#xae4c;" horiz-adv-x="687" 
d="M0 687h375v-438h-63v-125h-62v125h62v375h-125v-375h-62v-125h-63v125h63v375h-125v63v0zM500 687h62v-250h63v-63h-63v-312h-62v625v0z" />
    <glyph glyph-name="uniAE4D" unicode="&#xae4d;" horiz-adv-x="687" 
d="M0 687h375v-250h-63v-63h-62v63h62v187h-125v-187h-62v-63h-63v63h63v187h-125v63v0zM500 687h62v-125h63v-63h-63v-125h-62v313v0zM62 312h500v-250h-62v187h-438v63v0z" />
    <glyph glyph-name="uniAE4E" unicode="&#xae4e;" horiz-adv-x="687" 
d="M0 687h375v-250h-63v-63h-62v63h62v187h-125v-187h-62v-63h-63v63h63v187h-125v63v0zM500 687h62v-125h63v-63h-63v-125h-62v313v0zM62 312h500v-250h-62v187h-188v-187h-62v187h-188v63v0z" />
    <glyph glyph-name="uniAE50" unicode="&#xae50;" horiz-adv-x="687" 
d="M0 687h375v-250h-63v-63h-62v63h62v187h-125v-187h-62v-63h-63v63h63v187h-125v63v0zM500 687h62v-125h63v-63h-63v-250h-62v438v0zM62 312h63v-188h437v-62h-500v250v0z" />
    <glyph glyph-name="uniAE54" unicode="&#xae54;" horiz-adv-x="687" 
d="M0 687h375v-250h-63v-63h-62v63h62v187h-125v-187h-62v-63h-63v63h63v187h-125v63v0zM500 687h62v-125h63v-63h-63v-125h-62v313v0zM62 312h500v-125h-250v-63h250v-62h-500v125h250v62h-250v63v0z" />
    <glyph glyph-name="uniAE56" unicode="&#xae56;" horiz-adv-x="687" 
d="M0 687h375v-250h-63v-63h-62v63h62v187h-125v-187h-62v-63h-63v63h63v187h-125v63v0zM500 687h62v-125h63v-63h-63v-125h-62v313v0zM62 312h250v-125h-125v-63h125v-62h-250v125h125v62h-125v63v0zM375 312h187v-250h-187v250v0zM500 249h-63v-125h63v125v0z" />
    <glyph glyph-name="uniAE5C" unicode="&#xae5c;" horiz-adv-x="687" 
d="M0 687h375v-250h-63v-63h-62v63h62v187h-125v-187h-62v-63h-63v63h63v187h-125v63v0zM500 687h62v-125h63v-63h-63v-125h-62v313v0zM62 312h500v-250h-500v250v0zM500 249h-375v-125h375v125v0z" />
    <glyph glyph-name="uniAE5D" unicode="&#xae5d;" horiz-adv-x="687" 
d="M0 687h375v-250h-63v-63h-62v63h62v187h-125v-187h-62v-63h-63v63h63v187h-125v63v0zM500 687h62v-125h63v-63h-63v-125h-62v313v0zM62 312h63v-63h375v63h62v-250h-500v250v0zM500 187h-375v-63h375v63v0z" />
    <glyph glyph-name="uniAE5F" unicode="&#xae5f;" horiz-adv-x="687" 
d="M0 687h375v-250h-63v-63h-62v63h62v187h-125v-187h-62v-63h-63v63h63v187h-125v63v0zM500 687h62v-188h63v-62h-63v-188h-62v438v0zM250 312h125v-125h62v-63h125v-62h-125v62h-62v63h-125v-63h-63v-62h-125v62h125v63h63v125v0z" />
    <glyph glyph-name="uniAE60" unicode="&#xae60;" horiz-adv-x="687" 
d="M0 687h375v-250h-63v-63h-62v63h62v187h-125v-187h-62v-63h-63v63h63v187h-125v63v0zM500 687h62v-125h63v-63h-63v-187h-62v375v0zM125 312h62v-125h63v-63h62v63h63v125h62v-125h63v-63h62v-62h-62v62h-63v63h-62v-63h-63v-62h-62v62h-63v63h-62v-63h-63v-62h-62v62h62
v63h63v125v0z" />
    <glyph glyph-name="uniAE61" unicode="&#xae61;" horiz-adv-x="687" 
d="M0 687h375v-250h-63v-63h-62v63h62v187h-125v-187h-62v-63h-63v63h63v187h-125v63v0zM500 687h62v-125h63v-63h-63v-125h-62v313v0zM125 312h375v-63h62v-125h-62v-62h-375v62h-63v125h63v63v0zM500 249h-375v-125h375v125v0z" />
    <glyph glyph-name="uniAE65" unicode="&#xae65;" horiz-adv-x="687" 
d="M0 687h375v-250h-63v-63h188v313h62v-125h63v-63h-63v-187h-437v-63h375v-62h-375v-63h437v-62h-500v375h63v187h-125v63v0zM312 624h-125v-187h-62v-63h125v63h62v187v0z" />
    <glyph glyph-name="uniAE68" unicode="&#xae68;" horiz-adv-x="687" 
d="M0 687h312v-438h-62v-125h-63v125h63v375h-125v-375h-63v-125h-62v125h62v375h-62v63v0zM375 687h62v-250h63v250h62v-625h-62v312h-63v-312h-62v625v0z" />
    <glyph glyph-name="uniAE69" unicode="&#xae69;" 
d="M0 687h312v-250h-62v-63h-63v63h63v187h-125v-187h-63v-63h-62v63h62v187h-62v63v0zM375 687h62v-125h63v125h62v-313h-62v125h-63v-125h-62v313v0zM62 312h500v-250h-62v187h-438v63v0z" />
    <glyph glyph-name="uniAE6C" unicode="&#xae6c;" 
d="M0 687h312v-250h-62v-63h-63v63h63v187h-125v-187h-63v-63h-62v63h62v187h-62v63v0zM375 687h62v-188h63v188h62v-438h-62v188h-63v-188h-62v438v0zM62 312h63v-188h437v-62h-500v250v0z" />
    <glyph glyph-name="uniAE70" unicode="&#xae70;" 
d="M0 687h312v-250h-62v-63h-63v63h63v187h-125v-187h-63v-63h-62v63h62v187h-62v63v0zM375 687h62v-125h63v125h62v-313h-62v125h-63v-125h-62v313v0zM62 312h500v-125h-250v-63h250v-62h-500v125h250v62h-250v63v0z" />
    <glyph glyph-name="uniAE78" unicode="&#xae78;" 
d="M0 687h312v-250h-62v-63h-63v63h63v187h-125v-187h-63v-63h-62v63h62v187h-62v63v0zM375 687h62v-125h63v125h62v-313h-62v125h-63v-125h-62v313v0zM62 312h500v-250h-500v250v0zM500 249h-375v-125h375v125v0z" />
    <glyph glyph-name="uniAE79" unicode="&#xae79;" 
d="M0 687h312v-250h-62v-63h-63v63h63v187h-125v-187h-63v-63h-62v63h62v187h-62v63v0zM375 687h62v-125h63v125h62v-313h-62v125h-63v-125h-62v313v0zM62 312h63v-63h375v63h62v-250h-500v250v0zM500 187h-375v-63h375v63v0z" />
    <glyph glyph-name="uniAE7B" unicode="&#xae7b;" 
d="M0 687h312v-250h-62v-63h-63v63h63v187h-125v-187h-63v-63h-62v63h62v187h-62v63v0zM375 687h62v-188h63v188h62v-438h-62v188h-63v-188h-62v438v0zM250 312h62v-125h63v-63h125v-62h-125v62h-63v63h-62v-63h-63v-62h-125v62h125v63h63v125v0z" />
    <glyph glyph-name="uniAE7C" unicode="&#xae7c;" 
d="M0 687h312v-250h-62v-63h-63v63h63v187h-125v-187h-63v-63h-62v63h62v187h-62v63v0zM375 687h62v-125h63v125h62v-313h-62v125h-63v-125h-62v313v0zM125 312h62v-125h63v-63h62v63h63v125h62v-125h63v-63h62v-62h-62v62h-63v63h-62v-63h-63v-62h-62v62h-63v63h-62v-63
h-63v-62h-62v62h62v63h63v125v0z" />
    <glyph glyph-name="uniAE7D" unicode="&#xae7d;" 
d="M0 687h312v-250h-62v-63h-63v63h63v187h-125v-187h-63v-63h-62v63h62v187h-62v63v0zM375 687h62v-125h63v125h62v-313h-62v125h-63v-125h-62v313v0zM125 312h375v-63h62v-125h-62v-62h-375v62h-63v125h63v63v0zM500 249h-375v-125h375v125v0z" />
    <glyph glyph-name="uniAE84" unicode="&#xae84;" horiz-adv-x="687" 
d="M0 687h375v-438h-63v-125h-62v125h62v375h-125v-375h-62v-125h-63v125h63v375h-125v63v0zM500 687h62v-188h63v-62h-63v-125h63v-63h-63v-187h-62v625v0z" />
    <glyph glyph-name="uniAE85" unicode="&#xae85;" horiz-adv-x="687" 
d="M0 687h375v-250h-63v-63h-62v63h62v187h-125v-187h-62v-63h-63v63h63v187h-125v63v0zM500 687h62v-63h63v-62h-63v-63h63v-62h-63v-63h-62v313v0zM62 312h500v-250h-62v187h-438v63v0z" />
    <glyph glyph-name="uniAE8C" unicode="&#xae8c;" horiz-adv-x="687" 
d="M0 687h375v-250h-63v-63h-62v63h62v187h-125v-187h-62v-63h-63v63h63v187h-125v63v0zM500 687h62v-63h63v-62h-63v-63h63v-62h-63v-63h-62v313v0zM62 312h500v-125h-250v-63h250v-62h-500v125h250v62h-250v63v0z" />
    <glyph glyph-name="uniAEBC" unicode="&#xaebc;" horiz-adv-x="687" 
d="M0 687h375v-250h125v250h62v-625h-62v312h-125v-125h-63v-125h-62v125h62v375h-125v-375h-62v-125h-63v125h63v375h-125v63v0z" />
    <glyph glyph-name="uniAEBD" unicode="&#xaebd;" 
d="M0 687h375v-125h125v125h62v-313h-62v125h-125v-62h-63v-63h-62v63h62v187h-125v-187h-62v-63h-63v63h63v187h-125v63v0zM62 312h500v-250h-62v187h-438v63v0z" />
    <glyph glyph-name="uniAEBE" unicode="&#xaebe;" 
d="M0 687h375v-125h125v125h62v-313h-62v125h-125v-62h-63v-63h-62v63h62v187h-125v-187h-62v-63h-63v63h63v187h-125v63v0zM62 312h500v-250h-62v187h-188v-187h-62v187h-188v63v0z" />
    <glyph glyph-name="uniAEC0" unicode="&#xaec0;" 
d="M0 687h375v-188h125v188h62v-438h-62v188h-188v-63h-62v63h62v187h-125v-187h-62v-63h-63v63h63v187h-125v63v0zM62 312h63v-188h437v-62h-500v250v0z" />
    <glyph glyph-name="uniAEC4" unicode="&#xaec4;" 
d="M0 687h375v-125h125v125h62v-313h-62v125h-125v-62h-63v-63h-62v63h62v187h-125v-187h-62v-63h-63v63h63v187h-125v63v0zM62 312h500v-125h-250v-63h250v-62h-500v125h250v62h-250v63v0z" />
    <glyph glyph-name="uniAECC" unicode="&#xaecc;" 
d="M0 687h375v-125h125v125h62v-313h-62v125h-125v-62h-63v-63h-62v63h62v187h-125v-187h-62v-63h-63v63h63v187h-125v63v0zM62 312h500v-250h-500v250v0zM500 249h-375v-125h375v125v0z" />
    <glyph glyph-name="uniAECD" unicode="&#xaecd;" 
d="M0 687h375v-125h125v125h62v-313h-62v125h-125v-62h-63v-63h-62v63h62v187h-125v-187h-62v-63h-63v63h63v187h-125v63v0zM62 312h63v-63h375v63h62v-250h-500v250v0zM500 187h-375v-63h375v63v0z" />
    <glyph glyph-name="uniAECF" unicode="&#xaecf;" 
d="M0 687h375v-188h125v188h62v-438h-62v188h-188v-63h-62v63h62v187h-125v-187h-62v-63h-63v63h63v187h-125v63v0zM250 312h125v-125h62v-63h125v-62h-125v62h-62v63h-125v-63h-63v-62h-125v62h125v63h63v125v0z" />
    <glyph glyph-name="uniAED0" unicode="&#xaed0;" 
d="M0 687h375v-125h125v125h62v-375h-62v187h-125v-62h-63v-63h-62v63h62v187h-125v-187h-62v-63h-63v63h63v187h-125v63v0zM125 312h62v-125h63v-63h62v63h63v125h62v-125h63v-63h62v-62h-62v62h-63v63h-62v-63h-63v-62h-62v62h-63v63h-62v-63h-63v-62h-62v62h62v63h63v125
v0z" />
    <glyph glyph-name="uniAED1" unicode="&#xaed1;" 
d="M0 687h375v-125h125v125h62v-313h-62v125h-125v-62h-63v-63h-62v63h62v187h-125v-187h-62v-63h-63v63h63v187h-125v63v0zM125 312h375v-63h62v-125h-62v-62h-375v62h-63v125h63v63v0zM500 249h-375v-125h375v125v0z" />
    <glyph glyph-name="uniAED8" unicode="&#xaed8;" horiz-adv-x="687" 
d="M0 687h312v-250h63v250h62v-625h-62v312h-63v-125h-62v-125h-63v125h63v375h-125v-375h-63v-125h-62v125h62v375h-62v63v0zM500 687h62v-625h-62v625v0z" />
    <glyph glyph-name="uniAED9" unicode="&#xaed9;" 
d="M0 687h312v-125h63v125h62v-313h-62v125h-63v-62h-62v-63h-63v63h63v187h-125v-187h-63v-63h-62v63h62v187h-62v63v0zM500 687h62v-313h-62v313v0zM62 312h500v-250h-62v187h-438v63v0z" />
    <glyph glyph-name="uniAEDC" unicode="&#xaedc;" 
d="M0 687h312v-188h63v188h62v-438h-62v188h-125v-63h-63v63h63v187h-125v-187h-63v-63h-62v63h62v187h-62v63v0zM500 687h62v-438h-62v438v0zM62 312h63v-188h437v-62h-500v250v0z" />
    <glyph glyph-name="uniAEE8" unicode="&#xaee8;" 
d="M0 687h312v-125h63v125h62v-313h-62v125h-63v-62h-62v-63h-63v63h63v187h-125v-187h-63v-63h-62v63h62v187h-62v63v0zM500 687h62v-313h-62v313v0zM62 312h500v-250h-500v250v0zM500 249h-375v-125h375v125v0z" />
    <glyph glyph-name="uniAEEB" unicode="&#xaeeb;" 
d="M0 687h312v-188h63v188h62v-438h-62v188h-125v-63h-63v63h63v187h-125v-187h-63v-63h-62v63h62v187h-62v63v0zM500 687h62v-438h-62v438v0zM250 312h62v-125h63v-63h125v-62h-125v62h-63v63h-62v-63h-63v-62h-125v62h125v63h63v125v0z" />
    <glyph glyph-name="uniAEED" unicode="&#xaeed;" 
d="M0 687h312v-125h63v125h62v-313h-62v125h-63v-62h-62v-63h-63v63h63v187h-125v-187h-63v-63h-62v63h62v187h-62v63v0zM500 687h62v-313h-62v313v0zM125 312h375v-63h62v-125h-62v-62h-375v62h-63v125h63v63v0zM500 249h-375v-125h375v125v0z" />
    <glyph glyph-name="uniAEF4" unicode="&#xaef4;" horiz-adv-x="687" 
d="M0 687h375v-188h125v188h62v-625h-62v187h-188v-125h-62v125h62v375h-125v-375h-62v-125h-63v125h63v375h-125v63v0zM500 437h-125v-125h125v125v0z" />
    <glyph glyph-name="uniAEF8" unicode="&#xaef8;" 
d="M0 687h375v-125h125v125h62v-438h-62v125h-125v63h-63v-63h-62v63h62v187h-125v-187h-62v-63h-63v63h63v187h-125v63v0zM500 499h-125v-62h125v62v0zM62 312h63v-188h437v-62h-500v250v0z" />
    <glyph glyph-name="uniAEFC" unicode="&#xaefc;" 
d="M0 687h375v-63h125v63h62v-313h-62v63h-188v-63h-62v63h62v187h-125v-187h-62v-63h-63v63h63v187h-125v63v0zM500 562h-125v-63h125v63v0zM62 312h500v-125h-250v-63h250v-62h-500v125h250v62h-250v63v0z" />
    <glyph glyph-name="uniAF07" unicode="&#xaf07;" 
d="M0 687h375v-125h125v125h62v-438h-62v125h-125v63h-63v-63h-62v63h62v187h-125v-187h-62v-63h-63v63h63v187h-125v63v0zM500 499h-125v-62h125v62v0zM250 312h125v-125h62v-63h125v-62h-125v62h-62v63h-125v-63h-63v-62h-125v62h125v63h63v125v0z" />
    <glyph glyph-name="uniAF08" unicode="&#xaf08;" 
d="M0 687h375v-63h125v63h62v-375h-62v125h-188v-63h-62v63h62v187h-125v-187h-62v-63h-63v63h63v187h-125v63v0zM500 562h-125v-63h125v63v0zM125 312h62v-125h63v-63h62v63h63v125h62v-125h63v-63h62v-62h-62v62h-63v63h-62v-63h-63v-62h-62v62h-63v63h-62v-63h-63v-62
h-62v62h62v63h63v125v0z" />
    <glyph glyph-name="uniAF0D" unicode="&#xaf0d;" 
d="M0 687h375v-188h-63v-62h-62v62h62v125h-125v-125h-62v-62h-63v62h63v125h-125v63v0zM500 687h62v-375h-437v-63h375v-62h-375v-63h437v-62h-500v312h438v63h-63v62h63v63h-63v62h63v63v0z" />
    <glyph glyph-name="uniAF10" unicode="&#xaf10;" horiz-adv-x="687" 
d="M0 687h312v-188h63v188h62v-625h-62v187h-125v-125h-63v125h63v375h-125v-375h-63v-125h-62v125h62v375h-62v63v0zM500 687h62v-625h-62v625v0zM375 437h-63v-125h63v125v0z" />
    <glyph glyph-name="uniAF2C" unicode="&#xaf2c;" 
d="M0 687h500v-250h-63v-62h-62v62h62v188h-187v-188h-63v-62h-62v62h62v188h-187v62v0zM250 375h62v-188h250v-62h-562v62h250v188v0z" />
    <glyph glyph-name="uniAF2D" unicode="&#xaf2d;" 
d="M0 687h187v-188h-62v125h-125v63v0zM312 687h188v-188h-63v125h-125v63v0zM250 562h62v-125h250v-63h-562v63h250v125v0zM62 312h438v-250h-63v187h-375v63v0z" />
    <glyph glyph-name="uniAF30" unicode="&#xaf30;" 
d="M0 687h187v-188h-62v125h-125v63v0zM312 687h188v-188h-63v125h-125v63v0zM250 562h62v-125h250v-63h-562v63h250v125v0zM62 312h63v-188h375v-62h-438v250v0z" />
    <glyph glyph-name="uniAF32" unicode="&#xaf32;" 
d="M0 687h187v-188h-62v125h-125v63v0zM312 687h188v-188h-63v125h-125v63v0zM250 562h62v-125h250v-63h-562v63h250v125v0zM62 312h63v-188h125v-62h-188v250v0zM375 312h62v-63h125v-62h-62v-63h-63v-62h-62v62h-63v63h-62v62h125v63v0zM437 187h-62v-63h62v63v0z" />
    <glyph glyph-name="uniAF34" unicode="&#xaf34;" 
d="M0 687h187v-188h-62v125h-125v63v0zM312 687h188v-188h-63v125h-125v63v0zM250 562h62v-125h250v-63h-562v63h250v125v0zM62 312h438v-125h-250v-63h250v-62h-438v125h188v62h-188v63v0z" />
    <glyph glyph-name="uniAF3C" unicode="&#xaf3c;" 
d="M0 687h187v-188h-62v125h-125v63v0zM312 687h188v-188h-63v125h-125v63v0zM250 562h62v-125h250v-63h-562v63h250v125v0zM62 312h438v-250h-438v250v0zM437 249h-312v-125h312v125v0z" />
    <glyph glyph-name="uniAF3D" unicode="&#xaf3d;" 
d="M0 687h187v-188h-62v125h-125v63v0zM312 687h188v-188h-63v125h-125v63v0zM250 562h62v-125h250v-63h-562v63h250v125v0zM62 312h63v-63h312v63h63v-250h-438v250v0zM437 187h-312v-63h312v63v0z" />
    <glyph glyph-name="uniAF3F" unicode="&#xaf3f;" 
d="M0 687h187v-188h-62v125h-125v63v0zM312 687h188v-188h-63v125h-125v63v0zM250 562h62v-125h250v-63h-562v63h250v125v0zM250 312h62v-125h63v-63h125v-62h-125v62h-63v63h-62v-63h-63v-62h-125v62h125v63h63v125v0z" />
    <glyph glyph-name="uniAF41" unicode="&#xaf41;" 
d="M0 687h187v-188h-62v125h-125v63v0zM312 687h188v-188h-63v125h-125v63v0zM250 562h62v-125h250v-63h-562v63h250v125v0zM125 312h312v-63h63v-125h-63v-62h-312v62h-63v125h63v63v0zM437 249h-312v-125h312v125v0z" />
    <glyph glyph-name="uniAF42" unicode="&#xaf42;" 
d="M0 687h187v-188h-62v125h-125v63v0zM312 687h188v-188h-63v125h-125v63v0zM250 562h62v-125h250v-63h-562v63h250v125v0zM62 312h438v-63h-188v-62h63v-63h125v-62h-125v62h-63v63h-62v-63h-63v-62h-125v62h125v63h63v62h-188v63v0z" />
    <glyph glyph-name="uniAF43" unicode="&#xaf43;" 
d="M0 687h187v-188h-62v125h-125v63v0zM312 687h188v-188h-63v125h-125v63v0zM250 562h62v-125h250v-63h-562v63h250v125v0zM250 312h62v-63h188v-62h-125v-63h125v-62h-125v62h-63v63h-62v-63h-63v-62h-125v62h125v63h-125v62h188v63v0z" />
    <glyph glyph-name="uniAF48" unicode="&#xaf48;" horiz-adv-x="687" 
d="M0 687h375v-313h-63v250h-125v-250h-62v250h-125v63v0zM500 687h62v-250h63v-63h-63v-312h-62v625v0zM187 312h63v-125h187v-63h-437v63h187v125v0z" />
    <glyph glyph-name="uniAF49" unicode="&#xaf49;" horiz-adv-x="687" 
d="M0 687h375v-188h-63v125h-125v-125h63v-62h187v-63h-437v63h187v62h-62v125h-125v63v0zM500 687h62v-125h63v-63h-63v-125h-62v313v0zM62 312h500v-250h-62v187h-438v63v0z" />
    <glyph glyph-name="uniAF50" unicode="&#xaf50;" horiz-adv-x="687" 
d="M0 687h375v-188h-63v125h-125v-125h63v-62h187v-63h-437v63h187v62h-62v125h-125v63v0zM500 687h62v-125h63v-63h-63v-125h-62v313v0zM62 312h500v-125h-250v-63h250v-62h-500v125h250v62h-250v63v0z" />
    <glyph glyph-name="uniAF5C" unicode="&#xaf5c;" horiz-adv-x="687" 
d="M0 687h375v-188h-63v125h-125v-125h63v-62h187v-63h-437v63h187v62h-62v125h-125v63v0zM500 687h62v-125h63v-63h-63v-187h-62v375v0zM125 312h62v-125h63v-63h62v63h63v125h62v-125h63v-63h62v-62h-62v62h-63v63h-62v-63h-63v-62h-62v62h-63v63h-62v-63h-63v-62h-62v62
h62v63h63v125v0z" />
    <glyph glyph-name="uniAF5D" unicode="&#xaf5d;" horiz-adv-x="687" 
d="M0 687h375v-188h-63v125h-125v-125h63v-62h187v-63h-437v63h187v62h-62v125h-125v63v0zM500 687h62v-125h63v-63h-63v-125h-62v313v0zM125 312h375v-63h62v-125h-62v-62h-375v62h-63v125h63v63v0zM500 249h-375v-125h375v125v0z" />
    <glyph glyph-name="uniAF64" unicode="&#xaf64;" horiz-adv-x="687" 
d="M0 687h312v-313h-62v250h-125v-250h-63v250h-62v63v0zM375 687h62v-250h63v250h62v-625h-62v312h-63v-312h-62v625v0zM125 312h62v-125h125v-63h-312v63h125v125v0z" />
    <glyph glyph-name="uniAF65" unicode="&#xaf65;" 
d="M0 687h312v-188h-62v125h-125v-125h62v-62h125v-63h-312v63h125v62h-63v125h-62v63v0zM375 687h62v-125h63v125h62v-313h-62v125h-63v-125h-62v313v0zM62 312h500v-250h-62v187h-438v63v0z" />
    <glyph glyph-name="uniAF79" unicode="&#xaf79;" 
d="M0 687h312v-188h-62v125h-125v-125h62v-62h125v-63h-312v63h125v62h-63v125h-62v63v0zM375 687h62v-125h63v125h62v-313h-62v125h-63v-125h-62v313v0zM125 312h375v-63h62v-125h-62v-62h-375v62h-63v125h63v63v0zM500 249h-375v-125h375v125v0z" />
    <glyph glyph-name="uniAF80" unicode="&#xaf80;" horiz-adv-x="687" 
d="M0 687h375v-313h-63v250h-125v-250h-62v250h-125v63v0zM500 687h62v-625h-62v625v0zM187 312h63v-125h187v-63h-437v63h187v125v0z" />
    <glyph glyph-name="uniAF84" unicode="&#xaf84;" 
d="M0 687h187v-188h63v-62h187v-63h-437v63h187v62h-62v125h-125v63v0zM250 687h187v-188h-62v125h-125v63v0zM500 687h62v-438h-62v438v0zM62 312h63v-188h437v-62h-500v250v0z" />
    <glyph glyph-name="uniAF88" unicode="&#xaf88;" 
d="M0 687h187v-188h63v-62h187v-63h-437v63h187v62h-62v125h-125v63v0zM250 687h187v-188h-62v125h-125v63v0zM500 687h62v-313h-62v313v0zM62 312h500v-125h-250v-63h250v-62h-500v125h250v62h-250v63v0z" />
    <glyph glyph-name="uniAF90" unicode="&#xaf90;" 
d="M0 687h187v-188h63v-62h187v-63h-437v63h187v62h-62v125h-125v63v0zM250 687h187v-188h-62v125h-125v63v0zM500 687h62v-313h-62v313v0zM62 312h500v-250h-500v250v0zM500 249h-375v-125h375v125v0z" />
    <glyph glyph-name="uniAF91" unicode="&#xaf91;" 
d="M0 687h187v-188h63v-62h187v-63h-437v63h187v62h-62v125h-125v63v0zM250 687h187v-188h-62v125h-125v63v0zM500 687h62v-313h-62v313v0zM62 312h63v-63h375v63h62v-250h-500v250v0zM500 187h-375v-63h375v63v0z" />
    <glyph glyph-name="uniAF95" unicode="&#xaf95;" 
d="M0 687h187v-188h63v-62h187v-63h-437v63h187v62h-62v125h-125v63v0zM250 687h187v-188h-62v125h-125v63v0zM500 687h62v-313h-62v313v0zM125 312h375v-63h62v-125h-62v-62h-375v62h-63v125h63v63v0zM500 249h-375v-125h375v125v0z" />
    <glyph glyph-name="uniAF9C" unicode="&#xaf9c;" 
d="M0 687h500v-250h-63v-62h-62v62h62v188h-187v-188h-63v-62h-62v62h62v188h-187v62v0zM125 312h62v-125h188v125h62v-125h125v-62h-562v62h125v125v0z" />
    <glyph glyph-name="uniAFB8" unicode="&#xafb8;" 
d="M0 687h500v-188h-63v-62h-62v62h62v125h-187v-125h-63v-62h-62v62h62v125h-187v63v0zM0 374h562v-62h-250v-250h-62v250h-250v62v0z" />
    <glyph glyph-name="uniAFB9" unicode="&#xafb9;" 
d="M62 687h188v-188h-63v125h-125v63v0zM312 687h188v-188h-63v125h-125v63v0zM0 437h562v-63h-250v-62h188v-250h-63v187h-375v63h188v62h-250v63v0z" />
    <glyph glyph-name="uniAFBC" unicode="&#xafbc;" 
d="M62 687h188v-188h-63v125h-125v63v0zM312 687h188v-188h-63v125h-125v63v0zM0 437h562v-63h-250v-125h-62v125h-250v63v0zM62 312h63v-188h375v-62h-438v250v0z" />
    <glyph glyph-name="uniAFC0" unicode="&#xafc0;" 
d="M62 687h188v-188h-63v125h-125v63v0zM312 687h188v-188h-63v125h-125v63v0zM0 437h562v-63h-250v-62h188v-125h-250v-63h250v-62h-438v125h188v62h-188v63h188v62h-250v63v0z" />
    <glyph glyph-name="uniAFC7" unicode="&#xafc7;" 
d="M62 687h188v-188h-63v125h-125v63v0zM312 687h188v-188h-63v125h-125v63v0zM0 437h562v-63h-250v-62h-62v-63h125v63h62v-63h125v-62h-62v-63h-63v-62h-62v62h-63v63h-187v-63h125v-62h-188v125h63v62h-63v63h188v62h-250v63v0zM437 187h-62v-63h62v63v0z" />
    <glyph glyph-name="uniAFC8" unicode="&#xafc8;" 
d="M62 687h188v-188h-63v125h-125v63v0zM312 687h188v-188h-63v125h-125v63v0zM0 437h562v-63h-250v-62h188v-250h-438v250h188v62h-250v63v0zM437 249h-312v-125h312v125v0z" />
    <glyph glyph-name="uniAFC9" unicode="&#xafc9;" 
d="M62 687h188v-188h-63v125h-125v63v0zM312 687h188v-188h-63v125h-125v63v0zM0 437h562v-63h-250v-62h-62v62h-250v63v0zM62 312h63v-63h312v63h63v-250h-438v250v0zM437 187h-312v-63h312v63v0z" />
    <glyph glyph-name="uniAFCB" unicode="&#xafcb;" 
d="M62 687h188v-188h-63v125h-125v63v0zM312 687h188v-188h-63v125h-125v63v0zM0 437h562v-63h-250v-62h-62v62h-250v63v0zM250 249h62v-62h63v-63h125v-62h-125v62h-63v63h-62v-63h-63v-62h-125v62h125v63h63v62v0z" />
    <glyph glyph-name="uniAFCD" unicode="&#xafcd;" 
d="M62 687h188v-188h-63v125h-125v63v0zM312 687h188v-188h-63v125h-125v63v0zM0 437h562v-63h-250v-62h125v-63h63v-125h-63v-62h-312v62h-63v125h63v63h125v62h-250v63v0zM437 249h-312v-125h312v125v0z" />
    <glyph glyph-name="uniAFCE" unicode="&#xafce;" 
d="M62 687h188v-188h-63v125h-125v63v0zM312 687h188v-188h-63v125h-125v63v0zM0 437h562v-63h-250v-62h-62v62h-250v63v0zM62 249h438v-62h-125v-63h125v-62h-125v62h-63v63h-62v-63h-63v-62h-125v62h125v63h-125v62v0z" />
    <glyph glyph-name="uniAFD4" unicode="&#xafd4;" horiz-adv-x="687" 
d="M0 687h187v-250h-62v187h-125v63v0zM250 687h187v-250h-62v187h-125v63v0zM500 687h62v-625h-62v125h-125v62h125v438v0zM0 374h437v-62h-187v-250h-63v250h-187v62v0z" />
    <glyph glyph-name="uniAFDC" unicode="&#xafdc;" 
d="M0 687h187v-188h188v125h-125v63h187v-250h63v250h62v-500h-250v-63h250v-62h-500v125h250v62h-250v63h125v125h-187v62h125v125h-125v63v0zM437 437h-187v-125h250v62h-63v63v0z" />
    <glyph glyph-name="uniAFE8" unicode="&#xafe8;" 
d="M0 687h187v-188h188v125h-125v63h187v-250h63v250h62v-375h-62v62h-63v63h-187v-125h-63v-125h63v-63h62v63h63v125h62v-125h63v-63h62v-62h-62v62h-63v63h-62v-63h-63v-62h-62v62h-63v63h-62v-63h-63v-62h-62v62h62v63h63v125h62v125h-187v62h125v125h-125v63v0z" />
    <glyph glyph-name="uniAFE9" unicode="&#xafe9;" 
d="M0 687h187v-188h188v125h-125v63h187v-250h63v250h62v-375h-62v-63h62v-125h-62v-62h-375v62h-63v125h63v63h62v125h-187v62h125v125h-125v63v0zM437 437h-187v-125h250v62h-63v63v0zM500 249h-375v-125h375v125v0z" />
    <glyph glyph-name="uniAFF0" unicode="&#xaff0;" horiz-adv-x="687" 
d="M0 687h312v-313h-125v-312h-62v312h-125v63h62v187h-62v63v0zM375 687h62v-625h-62v187h-125v63h125v375v0zM500 687h62v-625h-62v625v0zM250 624h-125v-187h125v187v0z" />
    <glyph glyph-name="uniAFF1" unicode="&#xaff1;" horiz-adv-x="687" 
d="M0 687h312v-250h63v250h62v-375h63v375h62v-625h-62v187h-438v63h63v125h-125v62h62v125h-62v63v0zM250 624h-125v-125h125v125v0zM312 437h-125v-125h188v62h-63v63v0z" />
    <glyph glyph-name="uniAFF4" unicode="&#xaff4;" 
d="M0 687h312v-250h63v250h62v-438h-62v125h-63v63h-125v-125h-62v-188h437v-62h-500v250h63v125h-125v62h62v125h-62v63v0zM500 687h62v-438h-62v438v0zM250 624h-125v-125h125v125v0z" />
    <glyph glyph-name="uniAFF8" unicode="&#xaff8;" 
d="M0 687h312v-250h63v250h62v-375h63v375h62v-500h-250v-63h250v-62h-500v125h250v62h-250v63h63v125h-125v62h62v125h-62v63v0zM250 624h-125v-125h125v125v0zM312 437h-125v-125h188v62h-63v63v0z" />
    <glyph glyph-name="uniB000" unicode="&#xb000;" horiz-adv-x="687" 
d="M0 687h312v-250h63v250h62v-375h63v375h62v-625h-500v250h63v125h-125v62h62v125h-62v63v0zM250 624h-125v-125h125v125v0zM312 437h-125v-125h188v62h-63v63v0zM500 249h-375v-125h375v125v0z" />
    <glyph glyph-name="uniB001" unicode="&#xb001;" horiz-adv-x="687" 
d="M0 687h312v-250h63v250h62v-375h-62v62h-63v63h-125v-63h-62v-125h375v438h62v-625h-500v312h63v63h-125v62h62v125h-62v63v0zM250 624h-125v-125h125v125v0zM500 187h-375v-63h375v63v0z" />
    <glyph glyph-name="uniB004" unicode="&#xb004;" 
d="M0 687h312v-250h63v250h62v-500h63v-63h62v-62h-62v62h-63v63h-62v-63h-63v-62h-62v62h-63v63h-62v-63h-63v-62h-62v62h62v63h63v125h62v-125h63v-63h62v63h63v187h-63v63h-125v-63h-62v63h-125v62h62v125h-62v63v0zM500 687h62v-375h-62v375v0zM250 624h-125v-125h125
v125v0z" />
    <glyph glyph-name="uniB00C" unicode="&#xb00c;" horiz-adv-x="687" 
d="M0 687h187v-250h-62v187h-125v63v0zM250 687h187v-250h-62v187h-125v63v0zM500 687h62v-625h-62v625v0zM0 374h437v-62h-187v-250h-63v250h-187v62v0z" />
    <glyph glyph-name="uniB010" unicode="&#xb010;" 
d="M0 687h187v-188h-62v125h-125v63v0zM250 687h187v-188h-62v125h-125v63v0zM500 687h62v-438h-62v438v0zM0 437h437v-63h-187v-125h-63v125h-187v63v0zM62 312h63v-188h437v-62h-500v250v0z" />
    <glyph glyph-name="uniB014" unicode="&#xb014;" 
d="M0 687h187v-188h-62v125h-125v63v0zM250 687h187v-188h-62v125h-125v63v0zM500 687h62v-313h-62v313v0zM0 437h437v-63h-187v-62h312v-125h-250v-63h250v-62h-500v125h250v62h-250v63h125v62h-187v63v0z" />
    <glyph glyph-name="uniB01C" unicode="&#xb01c;" 
d="M0 687h187v-188h-62v125h-125v63v0zM250 687h187v-188h-62v125h-125v63v0zM500 687h62v-313h-62v313v0zM0 437h437v-63h-187v-62h312v-250h-500v250h125v62h-187v63v0zM500 249h-375v-125h375v125v0z" />
    <glyph glyph-name="uniB01D" unicode="&#xb01d;" 
d="M0 687h187v-188h-62v125h-125v63v0zM250 687h187v-188h-62v125h-125v63v0zM500 687h62v-313h-62v313v0zM0 437h437v-63h-187v-62h-63v62h-187v63v0zM62 312h63v-63h375v63h62v-250h-500v250v0zM500 187h-375v-63h375v63v0z" />
    <glyph glyph-name="uniB028" unicode="&#xb028;" 
d="M0 687h500v-188h-63v-62h-62v62h62v125h-187v-125h-63v-62h-62v62h62v125h-187v63v0zM0 374h562v-62h-125v-250h-62v250h-188v-250h-62v250h-125v62v0z" />
    <glyph glyph-name="uniB044" unicode="&#xb044;" 
d="M62 687h188v-312h-63v-125h-62v125h62v250h-125v62v0zM312 687h188v-312h-63v-125h-62v125h62v250h-125v62v0zM0 187h562v-62h-562v62v0z" />
    <glyph glyph-name="uniB045" unicode="&#xb045;" 
d="M62 687h188v-188h-63v125h-125v63v0zM312 687h188v-188h-63v125h-125v63v0zM0 437h562v-63h-562v63v0zM62 312h438v-250h-63v187h-375v63v0z" />
    <glyph glyph-name="uniB048" unicode="&#xb048;" 
d="M62 687h188v-188h-63v125h-125v63v0zM312 687h188v-188h-63v125h-125v63v0zM0 437h562v-63h-562v63v0zM62 312h63v-188h375v-62h-438v250v0z" />
    <glyph glyph-name="uniB04A" unicode="&#xb04a;" 
d="M62 687h188v-188h-63v125h-125v63v0zM312 687h188v-188h-63v125h-125v63v0zM0 437h562v-63h-562v63v0zM62 312h63v-188h125v-62h-188v250v0zM375 312h62v-63h125v-62h-62v-63h-63v-62h-62v62h-63v63h-62v62h125v63v0zM437 187h-62v-63h62v63v0z" />
    <glyph glyph-name="uniB04C" unicode="&#xb04c;" 
d="M62 687h188v-188h-63v125h-125v63v0zM312 687h188v-188h-63v125h-125v63v0zM0 437h562v-63h-562v63v0zM62 312h438v-125h-250v-63h250v-62h-438v125h188v62h-188v63v0z" />
    <glyph glyph-name="uniB04E" unicode="&#xb04e;" 
d="M62 687h188v-188h-63v125h-125v63v0zM312 687h188v-188h-63v125h-125v63v0zM0 437h562v-63h-562v63v0zM62 312h188v-125h-125v-63h125v-62h-188v125h63v62h-63v63v0zM312 312h188v-250h-188v250v0zM437 249h-62v-125h62v125v0z" />
    <glyph glyph-name="uniB053" unicode="&#xb053;" 
d="M62 687h188v-188h-63v125h-125v63v0zM312 687h188v-188h-63v125h-125v63v0zM0 437h562v-63h-562v63v0zM62 312h188v-63h125v63h62v-63h125v-62h-62v-63h-63v-62h-62v62h-63v63h-187v-63h125v-62h-188v125h63v62h-63v63v0zM437 187h-62v-63h62v63v0z" />
    <glyph glyph-name="uniB054" unicode="&#xb054;" 
d="M62 687h188v-188h-63v125h-125v63v0zM312 687h188v-188h-63v125h-125v63v0zM0 437h562v-63h-562v63v0zM62 312h438v-250h-438v250v0zM437 249h-312v-125h312v125v0z" />
    <glyph glyph-name="uniB055" unicode="&#xb055;" 
d="M62 687h188v-188h-63v125h-125v63v0zM312 687h188v-188h-63v125h-125v63v0zM0 437h562v-63h-562v63v0zM62 312h63v-63h312v63h63v-250h-438v250v0zM437 187h-312v-63h312v63v0z" />
    <glyph glyph-name="uniB057" unicode="&#xb057;" 
d="M62 687h188v-188h-63v125h-125v63v0zM312 687h188v-188h-63v125h-125v63v0zM0 437h562v-63h-562v63v0zM250 312h62v-125h63v-63h125v-62h-125v62h-63v63h-62v-63h-63v-62h-125v62h125v63h63v125v0z" />
    <glyph glyph-name="uniB059" unicode="&#xb059;" 
d="M62 687h188v-188h-63v125h-125v63v0zM312 687h188v-188h-63v125h-125v63v0zM0 437h562v-63h-562v63v0zM125 312h312v-63h63v-125h-63v-62h-312v62h-63v125h63v63v0zM437 249h-312v-125h312v125v0z" />
    <glyph glyph-name="uniB05D" unicode="&#xb05d;" 
d="M62 687h188v-188h187v125h-125v63h188v-188h62v-62h-562v62h187v125h-125v63v0zM62 374h438v-62h-375v-63h312v-62h-312v-63h375v-62h-438v312v0z" />
    <glyph glyph-name="uniB07C" unicode="&#xb07c;" horiz-adv-x="687" 
d="M0 687h375v-438h-63v-125h-62v125h62v375h-125v-375h-62v-125h-63v125h63v375h-125v63v0zM500 687h62v-625h-62v625v0z" />
    <glyph glyph-name="uniB07D" unicode="&#xb07d;" 
d="M0 687h375v-250h-63v-63h-62v63h62v187h-125v-187h-62v-63h-63v63h63v187h-125v63v0zM500 687h62v-313h-62v313v0zM62 312h500v-250h-62v187h-438v63v0z" />
    <glyph glyph-name="uniB080" unicode="&#xb080;" 
d="M0 687h375v-250h-63v-63h-62v63h62v187h-125v-187h-62v-63h-63v63h63v187h-125v63v0zM500 687h62v-438h-62v438v0zM62 312h63v-188h437v-62h-500v250v0z" />
    <glyph glyph-name="uniB084" unicode="&#xb084;" 
d="M0 687h375v-250h-63v-63h-62v63h62v187h-125v-187h-62v-63h-63v63h63v187h-125v63v0zM500 687h62v-313h-62v313v0zM62 312h500v-125h-250v-63h250v-62h-500v125h250v62h-250v63v0z" />
    <glyph glyph-name="uniB08C" unicode="&#xb08c;" 
d="M0 687h375v-250h-63v-63h-62v63h62v187h-125v-187h-62v-63h-63v63h63v187h-125v63v0zM500 687h62v-313h-62v313v0zM62 312h500v-250h-500v250v0zM500 249h-375v-125h375v125v0z" />
    <glyph glyph-name="uniB08D" unicode="&#xb08d;" 
d="M0 687h375v-250h-63v-63h-62v63h62v187h-125v-187h-62v-63h-63v63h63v187h-125v63v0zM500 687h62v-313h-62v313v0zM62 312h63v-63h375v63h62v-250h-500v250v0zM500 187h-375v-63h375v63v0z" />
    <glyph glyph-name="uniB08F" unicode="&#xb08f;" 
d="M0 687h375v-250h-63v-63h-62v63h62v187h-125v-187h-62v-63h-63v63h63v187h-125v63v0zM500 687h62v-438h-62v438v0zM250 312h125v-125h62v-63h125v-62h-125v62h-62v63h-125v-63h-63v-62h-125v62h125v63h63v125v0z" />
    <glyph glyph-name="uniB091" unicode="&#xb091;" 
d="M0 687h375v-250h-63v-63h-62v63h62v187h-125v-187h-62v-63h-63v63h63v187h-125v63v0zM500 687h62v-313h-62v313v0zM125 312h375v-63h62v-125h-62v-62h-375v62h-63v125h63v63v0zM500 249h-375v-125h375v125v0z" />
    <glyph glyph-name="uniB098" unicode="&#xb098;" horiz-adv-x="687" 
d="M0 687h62v-500h313v-63h-375v563v0zM500 687h62v-250h63v-63h-63v-312h-62v625v0z" />
    <glyph glyph-name="uniB099" unicode="&#xb099;" horiz-adv-x="687" 
d="M0 687h62v-250h375v-63h-437v313v0zM500 687h62v-125h63v-63h-63v-125h-62v313v0zM62 312h500v-250h-62v187h-438v63v0z" />
    <glyph glyph-name="uniB09A" unicode="&#xb09a;" horiz-adv-x="687" 
d="M0 687h62v-250h375v-63h-437v313v0zM500 687h62v-125h63v-63h-63v-125h-62v313v0zM62 312h500v-250h-62v187h-188v-187h-62v187h-188v63v0z" />
    <glyph glyph-name="uniB09C" unicode="&#xb09c;" horiz-adv-x="687" 
d="M0 687h62v-250h375v-63h-437v313v0zM500 687h62v-188h63v-62h-63v-188h-62v438v0zM62 312h63v-188h437v-62h-500v250v0z" />
    <glyph glyph-name="uniB09F" unicode="&#xb09f;" horiz-adv-x="687" 
d="M0 687h62v-250h375v-63h-437v313v0zM500 687h62v-125h63v-63h-63v-125h-62v313v0zM62 312h500v-63h-437v-125h437v-62h-500v250v0z" />
    <glyph glyph-name="uniB0A0" unicode="&#xb0a0;" horiz-adv-x="687" 
d="M0 687h62v-250h375v-63h-437v313v0zM500 687h62v-125h63v-63h-63v-125h-62v313v0zM62 312h500v-125h-250v-63h250v-62h-500v125h250v62h-250v63v0z" />
    <glyph glyph-name="uniB0A1" unicode="&#xb0a1;" horiz-adv-x="687" 
d="M0 687h62v-250h375v-63h-437v313v0zM500 687h62v-125h63v-63h-63v-125h-62v313v0zM62 312h250v-125h-125v-63h125v-62h-250v125h125v62h-125v63v0zM375 312h187v-250h-62v187h-125v63v0z" />
    <glyph glyph-name="uniB0A2" unicode="&#xb0a2;" horiz-adv-x="687" 
d="M0 687h62v-250h375v-63h-437v313v0zM500 687h62v-125h63v-63h-63v-125h-62v313v0zM62 312h250v-125h-125v-63h125v-62h-250v125h125v62h-125v63v0zM375 312h187v-250h-187v250v0zM500 249h-63v-125h63v125v0z" />
    <glyph glyph-name="uniB0A8" unicode="&#xb0a8;" horiz-adv-x="687" 
d="M0 687h62v-250h375v-63h-437v313v0zM500 687h62v-125h63v-63h-63v-125h-62v313v0zM62 312h500v-250h-500v250v0zM500 249h-375v-125h375v125v0z" />
    <glyph glyph-name="uniB0A9" unicode="&#xb0a9;" horiz-adv-x="687" 
d="M0 687h62v-250h375v-63h-437v313v0zM500 687h62v-125h63v-63h-63v-125h-62v313v0zM62 312h63v-63h375v63h62v-250h-500v250v0zM500 187h-375v-63h375v63v0z" />
    <glyph glyph-name="uniB0AB" unicode="&#xb0ab;" horiz-adv-x="687" 
d="M0 687h62v-250h375v-63h-437v313v0zM500 687h62v-188h63v-62h-63v-188h-62v438v0zM250 312h125v-125h62v-63h125v-62h-125v62h-62v63h-125v-63h-63v-62h-125v62h125v63h63v125v0z" />
    <glyph glyph-name="uniB0AC" unicode="&#xb0ac;" horiz-adv-x="687" 
d="M0 687h62v-250h375v-63h-437v313v0zM500 687h62v-125h63v-63h-63v-187h-62v375v0zM125 312h62v-125h63v-63h62v63h63v125h62v-125h63v-63h62v-62h-62v62h-63v63h-62v-63h-63v-62h-62v62h-63v63h-62v-63h-63v-62h-62v62h62v63h63v125v0z" />
    <glyph glyph-name="uniB0AD" unicode="&#xb0ad;" horiz-adv-x="687" 
d="M0 687h62v-250h375v-63h-437v313v0zM500 687h62v-125h63v-63h-63v-125h-62v313v0zM125 312h375v-63h62v-125h-62v-62h-375v62h-63v125h63v63v0zM500 249h-375v-125h375v125v0z" />
    <glyph glyph-name="uniB0AE" unicode="&#xb0ae;" horiz-adv-x="687" 
d="M0 687h62v-250h375v-63h-437v313v0zM500 687h62v-125h63v-63h-63v-125h-62v313v0zM62 312h500v-63h-187v-62h62v-63h125v-62h-125v62h-62v63h-125v-63h-63v-62h-125v62h125v63h63v62h-188v63v0z" />
    <glyph glyph-name="uniB0AF" unicode="&#xb0af;" horiz-adv-x="687" 
d="M0 687h62v-250h375v-63h-437v313v0zM500 687h62v-125h63v-63h-63v-125h-62v313v0zM250 312h125v-63h187v-62h-125v-63h125v-62h-125v62h-62v63h-125v-63h-63v-62h-125v62h125v63h-125v62h188v63v0z" />
    <glyph glyph-name="uniB0B1" unicode="&#xb0b1;" horiz-adv-x="687" 
d="M0 687h62v-188h375v-62h-437v250v0zM500 687h62v-125h63v-63h-63v-62h-62v250v0zM62 374h500v-62h-437v-63h375v-62h-375v-63h437v-62h-500v312v0z" />
    <glyph glyph-name="uniB0B3" unicode="&#xb0b3;" horiz-adv-x="687" 
d="M0 687h62v-250h375v-63h-62v-62h187v-63h-125v-62h63v-63h-63v-62h-250v62h-62v63h62v62h-125v63h188v62h-250v313v0zM500 687h62v-125h63v-63h-63v-125h-62v313v0zM437 187h-250v-63h250v63v0z" />
    <glyph glyph-name="uniB0B4" unicode="&#xb0b4;" horiz-adv-x="687" 
d="M0 687h62v-500h250v-63h-312v563v0zM375 687h62v-250h63v250h62v-625h-62v312h-63v-312h-62v625v0z" />
    <glyph glyph-name="uniB0B5" unicode="&#xb0b5;" 
d="M0 687h62v-250h250v-63h-312v313v0zM375 687h62v-125h63v125h62v-313h-62v125h-63v-125h-62v313v0zM62 312h500v-250h-62v187h-438v63v0z" />
    <glyph glyph-name="uniB0B8" unicode="&#xb0b8;" 
d="M0 687h62v-250h250v-63h-312v313v0zM375 687h62v-188h63v188h62v-438h-62v188h-63v-188h-62v438v0zM62 312h63v-188h437v-62h-500v250v0z" />
    <glyph glyph-name="uniB0BC" unicode="&#xb0bc;" 
d="M0 687h62v-250h250v-63h-312v313v0zM375 687h62v-125h63v125h62v-313h-62v125h-63v-125h-62v313v0zM62 312h500v-125h-250v-63h250v-62h-500v125h250v62h-250v63v0z" />
    <glyph glyph-name="uniB0C4" unicode="&#xb0c4;" 
d="M0 687h62v-250h250v-63h-312v313v0zM375 687h62v-125h63v125h62v-313h-62v125h-63v-125h-62v313v0zM62 312h500v-250h-500v250v0zM500 249h-375v-125h375v125v0z" />
    <glyph glyph-name="uniB0C5" unicode="&#xb0c5;" 
d="M0 687h62v-250h250v-63h-312v313v0zM375 687h62v-125h63v125h62v-313h-62v125h-63v-125h-62v313v0zM62 312h63v-63h375v63h62v-250h-500v250v0zM500 187h-375v-63h375v63v0z" />
    <glyph glyph-name="uniB0C7" unicode="&#xb0c7;" 
d="M0 687h62v-250h250v-63h-312v313v0zM375 687h62v-188h63v188h62v-438h-62v188h-63v-188h-62v438v0zM250 312h62v-125h63v-63h125v-62h-125v62h-63v63h-62v-63h-63v-62h-125v62h125v63h63v125v0z" />
    <glyph glyph-name="uniB0C8" unicode="&#xb0c8;" 
d="M0 687h62v-250h250v-63h-312v313v0zM375 687h62v-125h63v125h62v-313h-62v125h-63v-125h-62v313v0zM125 312h62v-125h63v-63h62v63h63v125h62v-125h63v-63h62v-62h-62v62h-63v63h-62v-63h-63v-62h-62v62h-63v63h-62v-63h-63v-62h-62v62h62v63h63v125v0z" />
    <glyph glyph-name="uniB0C9" unicode="&#xb0c9;" 
d="M0 687h62v-250h250v-63h-312v313v0zM375 687h62v-125h63v125h62v-313h-62v125h-63v-125h-62v313v0zM125 312h375v-63h62v-125h-62v-62h-375v62h-63v125h63v63v0zM500 249h-375v-125h375v125v0z" />
    <glyph glyph-name="uniB0D0" unicode="&#xb0d0;" horiz-adv-x="687" 
d="M0 687h62v-500h375v-63h-437v563v0zM500 687h62v-188h63v-62h-63v-125h63v-63h-63v-187h-62v625v0z" />
    <glyph glyph-name="uniB0D1" unicode="&#xb0d1;" horiz-adv-x="687" 
d="M0 687h62v-250h375v-63h-437v313v0zM500 687h62v-63h63v-62h-63v-63h63v-62h-63v-63h-62v313v0zM62 312h500v-250h-62v187h-438v63v0z" />
    <glyph glyph-name="uniB0D4" unicode="&#xb0d4;" horiz-adv-x="687" 
d="M0 687h62v-250h375v-63h-437v313v0zM500 687h62v-125h63v-63h-63v-62h63v-63h-63v-125h-62v438v0zM62 312h63v-188h437v-62h-500v250v0z" />
    <glyph glyph-name="uniB0D8" unicode="&#xb0d8;" horiz-adv-x="687" 
d="M0 687h62v-250h375v-63h-437v313v0zM500 687h62v-63h63v-62h-63v-63h63v-62h-63v-63h-62v313v0zM62 312h500v-125h-250v-63h250v-62h-500v125h250v62h-250v63v0z" />
    <glyph glyph-name="uniB0E0" unicode="&#xb0e0;" horiz-adv-x="687" 
d="M0 687h62v-250h375v-63h-437v313v0zM500 687h62v-63h63v-62h-63v-63h63v-62h-63v-63h-62v313v0zM62 312h500v-250h-500v250v0zM500 249h-375v-125h375v125v0z" />
    <glyph glyph-name="uniB0E5" unicode="&#xb0e5;" horiz-adv-x="687" 
d="M0 687h62v-250h375v-63h-437v313v0zM500 687h62v-63h63v-62h-63v-63h63v-62h-63v-63h-62v313v0zM125 312h375v-63h62v-125h-62v-62h-375v62h-63v125h63v63v0zM500 249h-375v-125h375v125v0z" />
    <glyph glyph-name="uniB108" unicode="&#xb108;" horiz-adv-x="687" 
d="M0 687h62v-500h313v-63h-375v563v0zM500 687h62v-625h-62v312h-188v63h188v250v0z" />
    <glyph glyph-name="uniB109" unicode="&#xb109;" 
d="M0 687h62v-250h313v-63h-375v313v0zM500 687h62v-313h-62v125h-188v63h188v125v0zM62 312h500v-250h-62v187h-438v63v0z" />
    <glyph glyph-name="uniB10B" unicode="&#xb10b;" 
d="M0 687h62v-250h313v-63h-375v313v0zM500 687h62v-375h-62v187h-188v63h188v125v0zM62 312h188v-188h62v63h63v125h62v-125h63v-63h62v-62h-62v62h-63v63h-62v-63h-63v-62h-125v187h-125v63v0z" />
    <glyph glyph-name="uniB10C" unicode="&#xb10c;" 
d="M0 687h62v-250h313v-63h-375v313v0zM500 687h62v-438h-62v250h-188v63h188v125v0zM62 312h63v-188h437v-62h-500v250v0z" />
    <glyph glyph-name="uniB110" unicode="&#xb110;" 
d="M0 687h62v-250h313v-63h-375v313v0zM500 687h62v-313h-62v125h-188v63h188v125v0zM62 312h500v-125h-250v-63h250v-62h-500v125h250v62h-250v63v0z" />
    <glyph glyph-name="uniB112" unicode="&#xb112;" 
d="M0 687h62v-250h313v-63h-375v313v0zM500 687h62v-313h-62v125h-188v63h188v125v0zM62 312h250v-125h-125v-63h125v-62h-250v125h125v62h-125v63v0zM375 312h187v-250h-187v250v0zM500 249h-63v-125h63v125v0z" />
    <glyph glyph-name="uniB113" unicode="&#xb113;" 
d="M0 687h62v-250h313v-63h-375v313v0zM500 687h62v-313h-62v125h-188v63h188v125v0zM62 312h250v-125h-125v-63h125v-62h-250v125h125v62h-125v63v0zM375 312h62v-63h63v63h62v-250h-187v250v0zM500 187h-63v-63h63v63v0z" />
    <glyph glyph-name="uniB118" unicode="&#xb118;" 
d="M0 687h62v-250h313v-63h-375v313v0zM500 687h62v-313h-62v125h-188v63h188v125v0zM62 312h500v-250h-500v250v0zM500 249h-375v-125h375v125v0z" />
    <glyph glyph-name="uniB119" unicode="&#xb119;" 
d="M0 687h62v-250h313v-63h-375v313v0zM500 687h62v-313h-62v125h-188v63h188v125v0zM62 312h63v-63h375v63h62v-250h-500v250v0zM500 187h-375v-63h375v63v0z" />
    <glyph glyph-name="uniB11B" unicode="&#xb11b;" 
d="M0 687h62v-250h313v-63h-375v313v0zM500 687h62v-438h-62v250h-188v63h188v125v0zM250 312h125v-125h62v-63h125v-62h-125v62h-62v63h-125v-63h-63v-62h-125v62h125v63h63v125v0z" />
    <glyph glyph-name="uniB11C" unicode="&#xb11c;" 
d="M0 687h62v-250h313v-63h-375v313v0zM500 687h62v-375h-62v187h-188v63h188v125v0zM125 312h62v-125h63v-63h62v63h63v125h62v-125h63v-63h62v-62h-62v62h-63v63h-62v-63h-63v-62h-62v62h-63v63h-62v-63h-63v-62h-62v62h62v63h63v125v0z" />
    <glyph glyph-name="uniB11D" unicode="&#xb11d;" 
d="M0 687h62v-250h313v-63h-375v313v0zM500 687h62v-313h-62v125h-188v63h188v125v0zM125 312h375v-63h62v-125h-62v-62h-375v62h-63v125h63v63v0zM500 249h-375v-125h375v125v0z" />
    <glyph glyph-name="uniB123" unicode="&#xb123;" 
d="M0 687h62v-250h313v-125h187v-63h-125v-62h63v-63h-63v-62h-250v62h-62v63h62v62h-125v63h188v62h-250v313v0zM500 687h62v-313h-62v125h-188v63h188v125v0zM437 187h-250v-63h250v63v0z" />
    <glyph glyph-name="uniB124" unicode="&#xb124;" horiz-adv-x="687" 
d="M0 687h62v-500h250v-63h-312v563v0zM375 687h62v-625h-62v312h-188v63h188v250v0zM500 687h62v-625h-62v625v0z" />
    <glyph glyph-name="uniB125" unicode="&#xb125;" 
d="M0 687h62v-250h250v-63h-312v313v0zM375 687h62v-313h-62v125h-125v63h125v125v0zM500 687h62v-313h-62v313v0zM62 312h500v-250h-62v187h-438v63v0z" />
    <glyph glyph-name="uniB128" unicode="&#xb128;" 
d="M0 687h62v-250h250v-63h-312v313v0zM375 687h62v-438h-62v250h-125v63h125v125v0zM500 687h62v-438h-62v438v0zM62 312h63v-188h437v-62h-500v250v0z" />
    <glyph glyph-name="uniB12C" unicode="&#xb12c;" 
d="M0 687h62v-250h250v-63h-312v313v0zM375 687h62v-313h-62v125h-125v63h125v125v0zM500 687h62v-313h-62v313v0zM62 312h500v-125h-250v-63h250v-62h-500v125h250v62h-250v63v0z" />
    <glyph glyph-name="uniB134" unicode="&#xb134;" 
d="M0 687h62v-250h250v-63h-312v313v0zM375 687h62v-313h-62v125h-125v63h125v125v0zM500 687h62v-313h-62v313v0zM62 312h500v-250h-500v250v0zM500 249h-375v-125h375v125v0z" />
    <glyph glyph-name="uniB135" unicode="&#xb135;" 
d="M0 687h62v-250h250v-63h-312v313v0zM375 687h62v-313h-62v125h-125v63h125v125v0zM500 687h62v-313h-62v313v0zM62 312h63v-63h375v63h62v-250h-500v250v0zM500 187h-375v-63h375v63v0z" />
    <glyph glyph-name="uniB137" unicode="&#xb137;" 
d="M0 687h62v-250h250v-63h-312v313v0zM375 687h62v-438h-62v250h-125v63h125v125v0zM500 687h62v-438h-62v438v0zM250 312h62v-125h63v-63h125v-62h-125v62h-63v63h-62v-63h-63v-62h-125v62h125v63h63v125v0z" />
    <glyph glyph-name="uniB138" unicode="&#xb138;" 
d="M0 687h62v-250h250v-63h-312v313v0zM375 687h62v-313h-62v125h-125v63h125v125v0zM500 687h62v-313h-62v313v0zM125 312h62v-125h63v-63h62v63h63v125h62v-125h63v-63h62v-62h-62v62h-63v63h-62v-63h-63v-62h-62v62h-63v63h-62v-63h-63v-62h-62v62h62v63h63v125v0z" />
    <glyph glyph-name="uniB139" unicode="&#xb139;" 
d="M0 687h62v-250h250v-63h-312v313v0zM375 687h62v-313h-62v125h-125v63h125v125v0zM500 687h62v-313h-62v313v0zM125 312h375v-63h62v-125h-62v-62h-375v62h-63v125h63v63v0zM500 249h-375v-125h375v125v0z" />
    <glyph glyph-name="uniB140" unicode="&#xb140;" horiz-adv-x="687" 
d="M0 687h62v-500h313v-63h-375v563v0zM500 687h62v-625h-62v187h-188v63h188v125h-188v62h188v188v0z" />
    <glyph glyph-name="uniB141" unicode="&#xb141;" 
d="M0 687h62v-250h250v-63h-312v313v0zM500 687h62v-313h-62v63h-125v62h125v63h-125v62h125v63v0zM62 312h500v-250h-62v187h-438v63v0z" />
    <glyph glyph-name="uniB144" unicode="&#xb144;" 
d="M0 687h62v-250h250v-63h-312v313v0zM500 687h62v-438h-62v188h-125v62h125v63h-125v62h125v63v0zM62 312h63v-188h437v-62h-500v250v0z" />
    <glyph glyph-name="uniB148" unicode="&#xb148;" 
d="M0 687h62v-250h250v-63h-312v313v0zM500 687h62v-313h-62v63h-125v62h125v63h-125v62h125v63v0zM62 312h500v-125h-250v-63h250v-62h-500v125h250v62h-250v63v0z" />
    <glyph glyph-name="uniB150" unicode="&#xb150;" 
d="M0 687h62v-250h250v-63h-312v313v0zM500 687h62v-313h-62v63h-125v62h125v63h-125v62h125v63v0zM62 312h500v-250h-500v250v0zM500 249h-375v-125h375v125v0z" />
    <glyph glyph-name="uniB151" unicode="&#xb151;" 
d="M0 687h62v-250h250v-63h-312v313v0zM500 687h62v-313h-62v63h-125v62h125v63h-125v62h125v63v0zM62 312h63v-63h375v63h62v-250h-500v250v0zM500 187h-375v-63h375v63v0z" />
    <glyph glyph-name="uniB154" unicode="&#xb154;" 
d="M0 687h62v-250h250v-63h-312v313v0zM500 687h62v-375h-62v125h-125v62h125v63h-125v62h125v63v0zM125 312h62v-125h63v-63h62v63h63v125h62v-125h63v-63h62v-62h-62v62h-63v63h-62v-63h-63v-62h-62v62h-63v63h-62v-63h-63v-62h-62v62h62v63h63v125v0z" />
    <glyph glyph-name="uniB155" unicode="&#xb155;" 
d="M0 687h62v-250h250v-63h-312v313v0zM500 687h62v-313h-62v63h-125v62h125v63h-125v62h125v63v0zM125 312h375v-63h62v-125h-62v-62h-375v62h-63v125h63v63v0zM500 249h-375v-125h375v125v0z" />
    <glyph glyph-name="uniB158" unicode="&#xb158;" 
d="M0 687h62v-250h250v-63h-312v313v0zM500 687h62v-313h-62v63h-125v62h125v63h-125v62h125v63v0zM62 312h500v-250h-62v62h-438v63h438v62h-438v63v0z" />
    <glyph glyph-name="uniB15C" unicode="&#xb15c;" horiz-adv-x="687" 
d="M0 687h62v-500h250v-63h-312v563v0zM375 687h62v-625h-62v187h-125v63h125v125h-125v62h125v188v0zM500 687h62v-625h-62v625v0z" />
    <glyph glyph-name="uniB160" unicode="&#xb160;" 
d="M0 687h62v-250h188v62h125v63h-125v62h125v63h62v-438h-62v188h-125v-63h-250v313v0zM500 687h62v-438h-62v438v0zM62 312h63v-188h437v-62h-500v250v0z" />
    <glyph glyph-name="uniB178" unicode="&#xb178;" 
d="M62 687h63v-250h375v-62h-438v312v0zM250 312h62v-125h250v-62h-562v62h250v125v0z" />
    <glyph glyph-name="uniB179" unicode="&#xb179;" 
d="M62 687h63v-188h375v-62h-188v-63h250v-62h-562v62h250v63h-188v250v0zM62 249h438v-187h-63v125h-375v62v0z" />
    <glyph glyph-name="uniB17C" unicode="&#xb17c;" 
d="M62 687h63v-188h375v-62h-188v-63h250v-62h-562v62h250v63h-188v250v0zM62 249h63v-125h375v-62h-438v187v0z" />
    <glyph glyph-name="uniB180" unicode="&#xb180;" 
d="M62 687h63v-125h375v-63h-188v-62h250v-63h-562v63h250v62h-188v188v0zM62 312h438v-125h-250v-63h250v-62h-438v125h188v62h-188v63v0z" />
    <glyph glyph-name="uniB182" unicode="&#xb182;" 
d="M62 687h63v-125h375v-63h-188v-62h250v-63h-562v63h250v62h-188v188v0zM62 312h188v-125h-125v-63h125v-62h-188v125h63v62h-63v63v0zM312 312h188v-250h-188v250v0zM437 249h-62v-125h62v125v0z" />
    <glyph glyph-name="uniB188" unicode="&#xb188;" 
d="M62 687h63v-188h375v-62h-188v-63h250v-62h-562v62h250v63h-188v250v0zM62 249h438v-187h-438v187v0zM437 187h-312v-63h312v63v0z" />
    <glyph glyph-name="uniB189" unicode="&#xb189;" 
d="M62 687h63v-125h375v-63h-188v-62h250v-63h-562v63h250v62h-188v188v0zM62 312h63v-63h312v63h63v-250h-438v250v0zM437 187h-312v-63h312v63v0z" />
    <glyph glyph-name="uniB18B" unicode="&#xb18b;" 
d="M62 687h63v-188h375v-62h-188v-63h250v-62h-562v62h250v63h-188v250v0zM250 249h62v-62h63v-63h125v-62h-125v62h-63v63h-62v-63h-63v-62h-125v62h125v63h63v62v0z" />
    <glyph glyph-name="uniB18D" unicode="&#xb18d;" 
d="M62 687h63v-188h375v-62h-188v-63h250v-62h-562v62h250v63h-188v250v0zM125 249h312v-62h63v-63h-63v-62h-312v62h-63v63h63v62v0zM437 187h-312v-63h312v63v0z" />
    <glyph glyph-name="uniB192" unicode="&#xb192;" 
d="M62 687h63v-188h375v-62h-188v-63h250v-62h-562v62h250v63h-188v250v0zM62 249h438v-62h-63v-63h63v-62h-438v62h63v63h-63v62v0zM375 187h-188v-63h188v63v0z" />
    <glyph glyph-name="uniB193" unicode="&#xb193;" 
d="M62 687h63v-188h375v-62h-188v-63h250v-62h-250v-63h188v-62h-63v-63h-62v-62h-188v62h-62v63h-63v62h188v63h-250v62h250v63h-188v250v0zM375 187h-188v-63h188v63v0z" />
    <glyph glyph-name="uniB194" unicode="&#xb194;" horiz-adv-x="687" 
d="M0 687h62v-313h313v-62h-125v-125h187v-63h-437v63h187v125h-187v375v0zM500 687h62v-250h63v-63h-63v-312h-62v625v0z" />
    <glyph glyph-name="uniB198" unicode="&#xb198;" horiz-adv-x="687" 
d="M62 687h63v-188h250v-62h-125v-63h187v-62h-437v62h187v63h-125v250v0zM500 687h62v-188h63v-62h-63v-188h-62v438v0zM62 249h63v-125h437v-62h-500v187v0z" />
    <glyph glyph-name="uniB19C" unicode="&#xb19c;" horiz-adv-x="687" 
d="M62 687h63v-125h250v-63h-125v-62h187v-63h-437v63h187v62h-125v188v0zM500 687h62v-125h63v-63h-63v-125h-62v313v0zM62 312h500v-125h-250v-63h250v-62h-500v125h250v62h-250v63v0z" />
    <glyph glyph-name="uniB1A8" unicode="&#xb1a8;" horiz-adv-x="687" 
d="M62 687h63v-188h250v-62h-125v-63h187v-62h-437v62h187v63h-125v250v0zM500 687h62v-188h63v-62h-63v-188h-62v438v0zM125 249h62v-62h63v-63h62v63h63v62h62v-62h63v-63h62v-62h-62v62h-63v63h-62v-63h-63v-62h-62v62h-63v63h-62v-63h-63v-62h-62v62h62v63h63v62v0z" />
    <glyph glyph-name="uniB1CC" unicode="&#xb1cc;" horiz-adv-x="687" 
d="M0 687h62v-313h313v-62h-125v-125h187v-63h-437v63h187v125h-187v375v0zM500 687h62v-625h-62v625v0z" />
    <glyph glyph-name="uniB1D0" unicode="&#xb1d0;" 
d="M62 687h63v-188h250v-62h-125v-63h187v-62h-437v62h187v63h-125v250v0zM500 687h62v-500h-62v500v0zM62 249h63v-125h437v-62h-500v187v0z" />
    <glyph glyph-name="uniB1D4" unicode="&#xb1d4;" 
d="M62 687h63v-125h250v-63h-125v-62h187v-63h-437v63h187v62h-125v188v0zM500 687h62v-313h-62v313v0zM62 312h500v-125h-250v-63h250v-62h-500v125h250v62h-250v63v0z" />
    <glyph glyph-name="uniB1DC" unicode="&#xb1dc;" 
d="M62 687h63v-188h250v-62h-125v-63h187v-62h-437v62h187v63h-125v250v0zM500 687h62v-375h-62v375v0zM62 249h500v-187h-500v187v0zM500 187h-375v-63h375v63v0z" />
    <glyph glyph-name="uniB1DD" unicode="&#xb1dd;" 
d="M62 687h63v-125h250v-63h-125v-62h187v-63h-437v63h187v62h-125v188v0zM500 687h62v-313h-62v313v0zM62 312h63v-63h375v63h62v-250h-500v250v0zM500 187h-375v-63h375v63v0z" />
    <glyph glyph-name="uniB1DF" unicode="&#xb1df;" 
d="M62 687h63v-188h250v-62h-125v-63h187v-62h-437v62h187v63h-125v250v0zM500 687h62v-438h-62v438v0zM250 249h125v-62h62v-63h125v-62h-125v62h-62v63h-125v-63h-63v-62h-125v62h125v63h63v62v0z" />
    <glyph glyph-name="uniB1E8" unicode="&#xb1e8;" 
d="M62 687h63v-250h375v-62h-438v312v0zM125 312h62v-125h188v125h62v-125h125v-62h-562v62h125v125v0z" />
    <glyph glyph-name="uniB1E9" unicode="&#xb1e9;" 
d="M62 687h63v-188h375v-62h-63v-63h125v-62h-562v62h125v63h-63v250v0zM375 437h-188v-63h188v63v0zM62 249h438v-187h-63v125h-375v62v0z" />
    <glyph glyph-name="uniB1EC" unicode="&#xb1ec;" 
d="M62 687h63v-188h375v-62h-63v-63h125v-62h-562v62h125v63h-63v250v0zM375 437h-188v-63h188v63v0zM62 249h63v-125h375v-62h-438v187v0z" />
    <glyph glyph-name="uniB1F0" unicode="&#xb1f0;" 
d="M62 687h63v-125h375v-63h-63v-62h125v-63h-562v63h125v62h-63v188v0zM375 499h-188v-62h188v62v0zM62 312h438v-125h-250v-63h250v-62h-438v125h188v62h-188v63v0z" />
    <glyph glyph-name="uniB1F9" unicode="&#xb1f9;" 
d="M62 687h63v-125h375v-63h-63v-62h125v-63h-562v63h125v62h-63v188v0zM375 499h-188v-62h188v62v0zM62 312h63v-63h312v63h63v-250h-438v250v0zM437 187h-312v-63h312v63v0z" />
    <glyph glyph-name="uniB1FB" unicode="&#xb1fb;" 
d="M62 687h63v-188h375v-62h-63v-63h125v-62h-562v62h125v63h-63v250v0zM375 437h-188v-63h188v63v0zM250 249h62v-62h63v-63h125v-62h-125v62h-63v63h-62v-63h-63v-62h-125v62h125v63h63v62v0z" />
    <glyph glyph-name="uniB1FD" unicode="&#xb1fd;" 
d="M62 687h63v-188h375v-62h-63v-63h125v-62h-562v62h125v63h-63v250v0zM375 437h-188v-63h188v63v0zM125 249h312v-62h63v-63h-63v-62h-312v62h-63v63h63v62v0zM437 187h-312v-63h312v63v0z" />
    <glyph glyph-name="uniB204" unicode="&#xb204;" 
d="M62 687h63v-188h375v-62h-438v250v0zM0 374h562v-62h-250v-250h-62v250h-250v62v0z" />
    <glyph glyph-name="uniB205" unicode="&#xb205;" 
d="M62 687h63v-188h375v-62h-438v250v0zM0 374h562v-62h-250v-63h188v-187h-63v125h-375v62h188v63h-250v62v0z" />
    <glyph glyph-name="uniB208" unicode="&#xb208;" 
d="M62 687h63v-188h375v-62h-438v250v0zM0 374h562v-62h-250v-125h-62v125h-250v62v0zM62 249h63v-125h375v-62h-438v187v0z" />
    <glyph glyph-name="uniB20B" unicode="&#xb20b;" 
d="M62 687h63v-188h375v-62h-438v250v0zM0 374h562v-62h-250v-63h188v-62h-375v-63h375v-62h-438v187h188v63h-250v62v0z" />
    <glyph glyph-name="uniB20C" unicode="&#xb20c;" 
d="M62 687h63v-125h375v-63h-438v188v0zM0 437h562v-63h-250v-62h188v-125h-250v-63h250v-62h-438v125h188v62h-188v63h188v62h-250v63v0z" />
    <glyph glyph-name="uniB214" unicode="&#xb214;" 
d="M62 687h63v-188h375v-62h-438v250v0zM0 374h562v-62h-250v-63h188v-187h-438v187h188v63h-250v62v0zM437 187h-312v-63h312v63v0z" />
    <glyph glyph-name="uniB215" unicode="&#xb215;" 
d="M62 687h63v-125h375v-63h-438v188v0zM0 437h562v-63h-250v-62h-62v62h-250v63v0zM62 312h63v-63h312v63h63v-250h-438v250v0zM437 187h-312v-63h312v63v0z" />
    <glyph glyph-name="uniB217" unicode="&#xb217;" 
d="M62 687h63v-188h375v-62h-438v250v0zM0 374h562v-62h-250v-125h63v-63h125v-62h-125v62h-63v63h-62v-63h-63v-62h-125v62h125v63h63v125h-250v62v0z" />
    <glyph glyph-name="uniB219" unicode="&#xb219;" 
d="M62 687h63v-188h375v-62h-438v250v0zM0 374h562v-62h-250v-63h125v-62h63v-63h-63v-62h-312v62h-63v63h63v62h125v63h-250v62v0zM437 187h-312v-63h312v63v0z" />
    <glyph glyph-name="uniB220" unicode="&#xb220;" horiz-adv-x="687" 
d="M62 687h63v-188h250v-62h-313v250v0zM500 687h62v-625h-62v125h-125v62h125v438v0zM0 374h437v-62h-187v-250h-63v250h-187v62v0z" />
    <glyph glyph-name="uniB234" unicode="&#xb234;" 
d="M62 687h63v-125h250v-63h-313v188v0zM500 687h62v-438h-62v63h-125v62h-125v-125h-63v-62h63v-63h62v63h63v62h62v-62h63v-63h62v-62h-62v62h-63v63h-62v-63h-63v-62h-62v62h-63v63h-62v-63h-63v-62h-62v62h62v63h63v62h62v125h-187v63h437v-63h63v313v0z" />
    <glyph glyph-name="uniB23C" unicode="&#xb23c;" horiz-adv-x="687" 
d="M0 687h62v-188h250v-62h-312v250v0zM375 687h62v-625h-62v125h-125v62h125v438v0zM500 687h62v-625h-62v625v0zM0 374h312v-62h-125v-250h-62v250h-125v62v0z" />
    <glyph glyph-name="uniB258" unicode="&#xb258;" horiz-adv-x="687" 
d="M62 687h63v-188h250v-62h-313v250v0zM500 687h62v-625h-62v625v0zM0 374h437v-62h-187v-250h-63v250h-187v62v0z" />
    <glyph glyph-name="uniB25C" unicode="&#xb25c;" 
d="M62 687h63v-188h250v-62h-313v250v0zM500 687h62v-500h-62v500v0zM0 374h437v-62h-187v-125h-63v125h-187v62v0zM62 249h63v-125h437v-62h-500v187v0z" />
    <glyph glyph-name="uniB260" unicode="&#xb260;" 
d="M62 687h63v-125h250v-63h-313v188v0zM500 687h62v-313h-62v313v0zM0 437h437v-63h-187v-62h312v-125h-250v-63h250v-62h-500v125h250v62h-250v63h125v62h-187v63v0z" />
    <glyph glyph-name="uniB268" unicode="&#xb268;" 
d="M62 687h63v-188h250v-62h-313v250v0zM500 687h62v-375h-62v375v0zM0 374h437v-62h-187v-63h312v-187h-500v187h125v63h-187v62v0zM500 187h-375v-63h375v63v0z" />
    <glyph glyph-name="uniB269" unicode="&#xb269;" 
d="M62 687h63v-125h250v-63h-313v188v0zM500 687h62v-313h-62v313v0zM0 437h437v-63h-187v-62h-63v62h-187v63v0zM62 312h63v-63h375v63h62v-250h-500v250v0zM500 187h-375v-63h375v63v0z" />
    <glyph glyph-name="uniB274" unicode="&#xb274;" 
d="M62 687h63v-188h375v-62h-438v250v0zM0 374h562v-62h-125v-250h-62v250h-188v-250h-62v250h-125v62v0z" />
    <glyph glyph-name="uniB275" unicode="&#xb275;" 
d="M62 687h63v-188h375v-62h-438v250v0zM0 374h562v-62h-125v-63h63v-187h-63v125h-375v62h63v63h-125v62v0zM375 312h-188v-63h188v63v0z" />
    <glyph glyph-name="uniB27C" unicode="&#xb27c;" 
d="M62 687h63v-125h375v-63h-438v188v0zM0 437h562v-63h-125v-62h63v-125h-250v-63h250v-62h-438v125h188v62h-188v63h63v62h-125v63v0zM375 374h-188v-62h188v62v0z" />
    <glyph glyph-name="uniB284" unicode="&#xb284;" 
d="M62 687h63v-188h375v-62h-438v250v0zM0 374h562v-62h-125v-63h63v-187h-438v187h63v63h-125v62v0zM375 312h-188v-63h188v63v0zM437 187h-312v-63h312v63v0z" />
    <glyph glyph-name="uniB285" unicode="&#xb285;" 
d="M62 687h63v-125h375v-63h-438v188v0zM0 437h562v-63h-125v-62h63v-250h-438v250h63v62h-125v63v0zM375 374h-188v-62h-62v-63h312v63h-62v62v0zM437 187h-312v-63h312v63v0z" />
    <glyph glyph-name="uniB289" unicode="&#xb289;" 
d="M62 687h63v-188h375v-62h-438v250v0zM0 374h562v-62h-125v-125h63v-63h-63v-62h-312v62h-63v63h63v125h-125v62v0zM375 312h-188v-63h188v63v0zM437 187h-312v-63h312v63v0z" />
    <glyph glyph-name="uniB290" unicode="&#xb290;" 
d="M62 687h63v-312h375v-63h-438v375v0zM0 187h562v-62h-562v62v0z" />
    <glyph glyph-name="uniB291" unicode="&#xb291;" 
d="M62 687h63v-188h375v-62h-438v250v0zM0 374h562v-62h-562v62v0zM62 249h438v-187h-63v125h-375v62v0z" />
    <glyph glyph-name="uniB294" unicode="&#xb294;" 
d="M62 687h63v-188h375v-62h-438v250v0zM0 374h562v-62h-562v62v0zM62 249h63v-125h375v-62h-438v187v0z" />
    <glyph glyph-name="uniB298" unicode="&#xb298;" 
d="M62 687h63v-125h375v-63h-438v188v0zM0 437h562v-63h-562v63v0zM62 312h438v-125h-250v-63h250v-62h-438v125h188v62h-188v63v0z" />
    <glyph glyph-name="uniB299" unicode="&#xb299;" 
d="M62 687h63v-125h375v-63h-438v188v0zM0 437h562v-63h-562v63v0zM62 312h188v-125h-125v-63h125v-62h-188v125h63v62h-63v63v0zM312 312h188v-250h-63v187h-125v63v0z" />
    <glyph glyph-name="uniB29A" unicode="&#xb29a;" 
d="M62 687h63v-125h375v-63h-438v188v0zM0 437h562v-63h-562v63v0zM62 312h188v-125h-125v-63h125v-62h-188v125h63v62h-63v63v0zM312 312h188v-250h-188v250v0zM437 249h-62v-125h62v125v0z" />
    <glyph glyph-name="uniB2A0" unicode="&#xb2a0;" 
d="M62 687h63v-188h375v-62h-438v250v0zM0 374h562v-62h-562v62v0zM62 249h438v-187h-438v187v0zM437 187h-312v-63h312v63v0z" />
    <glyph glyph-name="uniB2A1" unicode="&#xb2a1;" 
d="M62 687h63v-125h375v-63h-438v188v0zM0 437h562v-63h-562v63v0zM62 312h63v-63h312v63h63v-250h-438v250v0zM437 187h-312v-63h312v63v0z" />
    <glyph glyph-name="uniB2A3" unicode="&#xb2a3;" 
d="M62 687h63v-188h375v-62h-438v250v0zM0 374h562v-62h-562v62v0zM250 249h62v-62h63v-63h125v-62h-125v62h-63v63h-62v-63h-63v-62h-125v62h125v63h63v62v0z" />
    <glyph glyph-name="uniB2A5" unicode="&#xb2a5;" 
d="M62 687h63v-188h375v-62h-438v250v0zM0 374h562v-62h-562v62v0zM125 249h312v-62h63v-63h-63v-62h-312v62h-63v63h63v62v0zM437 187h-312v-63h312v63v0z" />
    <glyph glyph-name="uniB2A6" unicode="&#xb2a6;" 
d="M62 687h63v-188h375v-62h-438v250v0zM0 374h562v-62h-562v62v0zM62 249h438v-62h-125v-63h125v-62h-125v62h-63v63h-62v-63h-63v-62h-125v62h125v63h-125v62v0z" />
    <glyph glyph-name="uniB2AA" unicode="&#xb2aa;" 
d="M62 687h63v-188h375v-62h-438v250v0zM0 374h562v-62h-562v62v0zM62 249h438v-62h-63v-63h63v-62h-438v62h63v63h-63v62v0zM375 187h-188v-63h188v63v0z" />
    <glyph glyph-name="uniB2AC" unicode="&#xb2ac;" horiz-adv-x="687" 
d="M62 687h63v-313h250v-62h-313v375v0zM500 687h62v-625h-62v625v0zM0 187h437v-63h-437v63v0z" />
    <glyph glyph-name="uniB2B0" unicode="&#xb2b0;" 
d="M62 687h63v-188h250v-62h-313v250v0zM500 687h62v-438h-62v438v0zM0 374h437v-62h-437v62v0zM62 249h63v-125h437v-62h-500v187v0z" />
    <glyph glyph-name="uniB2B4" unicode="&#xb2b4;" 
d="M62 687h63v-125h250v-63h-313v188v0zM500 687h62v-313h-62v313v0zM0 437h437v-63h-437v63v0zM62 312h500v-125h-250v-63h250v-62h-500v125h250v62h-250v63v0z" />
    <glyph glyph-name="uniB2C8" unicode="&#xb2c8;" horiz-adv-x="687" 
d="M0 687h62v-500h313v-63h-375v563v0zM500 687h62v-625h-62v625v0z" />
    <glyph glyph-name="uniB2C9" unicode="&#xb2c9;" 
d="M0 687h62v-250h313v-63h-375v313v0zM500 687h62v-313h-62v313v0zM62 312h500v-250h-62v187h-438v63v0z" />
    <glyph glyph-name="uniB2CC" unicode="&#xb2cc;" 
d="M0 687h62v-250h313v-63h-375v313v0zM500 687h62v-438h-62v438v0zM62 312h63v-188h437v-62h-500v250v0z" />
    <glyph glyph-name="uniB2D0" unicode="&#xb2d0;" 
d="M0 687h62v-250h313v-63h-375v313v0zM500 687h62v-313h-62v313v0zM62 312h500v-125h-250v-63h250v-62h-500v125h250v62h-250v63v0z" />
    <glyph glyph-name="uniB2D2" unicode="&#xb2d2;" 
d="M0 687h62v-250h313v-63h-375v313v0zM500 687h62v-313h-62v313v0zM62 312h250v-125h-125v-63h125v-62h-250v125h125v62h-125v63v0zM375 312h187v-250h-187v250v0zM500 249h-63v-125h63v125v0z" />
    <glyph glyph-name="uniB2D8" unicode="&#xb2d8;" 
d="M0 687h62v-250h313v-63h-375v313v0zM500 687h62v-313h-62v313v0zM62 312h500v-250h-500v250v0zM500 249h-375v-125h375v125v0z" />
    <glyph glyph-name="uniB2D9" unicode="&#xb2d9;" 
d="M0 687h62v-250h313v-63h-375v313v0zM500 687h62v-313h-62v313v0zM62 312h63v-63h375v63h62v-250h-500v250v0zM500 187h-375v-63h375v63v0z" />
    <glyph glyph-name="uniB2DB" unicode="&#xb2db;" 
d="M0 687h62v-250h313v-63h-375v313v0zM500 687h62v-438h-62v438v0zM250 312h125v-125h62v-63h125v-62h-125v62h-62v63h-125v-63h-63v-62h-125v62h125v63h63v125v0z" />
    <glyph glyph-name="uniB2DD" unicode="&#xb2dd;" 
d="M0 687h62v-250h313v-63h-375v313v0zM500 687h62v-313h-62v313v0zM125 312h375v-63h62v-125h-62v-62h-375v62h-63v125h63v63v0zM500 249h-375v-125h375v125v0z" />
    <glyph glyph-name="uniB2E2" unicode="&#xb2e2;" 
d="M0 687h62v-250h313v-63h-375v313v0zM500 687h62v-313h-62v313v0zM62 312h500v-63h-62v-125h62v-62h-500v62h63v125h-63v63v0zM437 249h-250v-125h250v125v0z" />
    <glyph glyph-name="uniB2E4" unicode="&#xb2e4;" horiz-adv-x="687" 
d="M0 687h375v-63h-313v-437h313v-63h-375v563v0zM500 687h62v-250h63v-63h-63v-312h-62v625v0z" />
    <glyph glyph-name="uniB2E5" unicode="&#xb2e5;" horiz-adv-x="687" 
d="M0 687h375v-63h-313v-187h313v-63h-375v313v0zM500 687h62v-125h63v-63h-63v-125h-62v313v0zM62 312h500v-250h-62v187h-438v63v0z" />
    <glyph glyph-name="uniB2E6" unicode="&#xb2e6;" horiz-adv-x="687" 
d="M0 687h375v-63h-313v-187h313v-63h-375v313v0zM500 687h62v-125h63v-63h-63v-125h-62v313v0zM62 312h500v-250h-62v187h-188v-187h-62v187h-188v63v0z" />
    <glyph glyph-name="uniB2E8" unicode="&#xb2e8;" horiz-adv-x="687" 
d="M0 687h375v-63h-313v-187h313v-63h-375v313v0zM500 687h62v-188h63v-62h-63v-188h-62v438v0zM62 312h63v-188h437v-62h-500v250v0z" />
    <glyph glyph-name="uniB2EB" unicode="&#xb2eb;" horiz-adv-x="687" 
d="M0 687h375v-63h-313v-187h313v-63h-375v313v0zM500 687h62v-125h63v-63h-63v-125h-62v313v0zM62 312h500v-63h-437v-125h437v-62h-500v250v0z" />
    <glyph glyph-name="uniB2EC" unicode="&#xb2ec;" horiz-adv-x="687" 
d="M0 687h375v-63h-313v-187h313v-63h-375v313v0zM500 687h62v-125h63v-63h-63v-125h-62v313v0zM62 312h500v-125h-250v-63h250v-62h-500v125h250v62h-250v63v0z" />
    <glyph glyph-name="uniB2ED" unicode="&#xb2ed;" horiz-adv-x="687" 
d="M0 687h375v-63h-313v-187h313v-63h-375v313v0zM500 687h62v-125h63v-63h-63v-125h-62v313v0zM62 312h250v-125h-125v-63h125v-62h-250v125h125v62h-125v63v0zM375 312h187v-250h-62v187h-125v63v0z" />
    <glyph glyph-name="uniB2EE" unicode="&#xb2ee;" horiz-adv-x="687" 
d="M0 687h375v-63h-313v-187h313v-63h-375v313v0zM500 687h62v-125h63v-63h-63v-125h-62v313v0zM62 312h250v-125h-125v-63h125v-62h-250v125h125v62h-125v63v0zM375 312h187v-250h-187v250v0zM500 249h-63v-125h63v125v0z" />
    <glyph glyph-name="uniB2EF" unicode="&#xb2ef;" horiz-adv-x="687" 
d="M0 687h375v-63h-313v-187h313v-63h-375v313v0zM500 687h62v-125h63v-63h-63v-125h-62v313v0zM62 312h250v-125h-125v-63h125v-62h-250v125h125v62h-125v63v0zM375 312h62v-63h63v63h62v-250h-187v250v0zM500 187h-63v-63h63v63v0z" />
    <glyph glyph-name="uniB2F3" unicode="&#xb2f3;" horiz-adv-x="687" 
d="M0 687h375v-63h-313v-187h313v-63h-375v313v0zM500 687h62v-125h63v-63h-63v-125h-62v313v0zM62 312h250v-63h125v63h63v-63h125v-62h-63v-63h-62v-62h-63v62h-62v63h-188v-63h125v-62h-250v125h125v62h-125v63v0zM500 187h-63v-63h63v63v0z" />
    <glyph glyph-name="uniB2F4" unicode="&#xb2f4;" horiz-adv-x="687" 
d="M0 687h375v-63h-313v-187h313v-63h-375v313v0zM500 687h62v-125h63v-63h-63v-125h-62v313v0zM62 312h500v-250h-500v250v0zM500 249h-375v-125h375v125v0z" />
    <glyph glyph-name="uniB2F5" unicode="&#xb2f5;" horiz-adv-x="687" 
d="M0 687h375v-63h-313v-187h313v-63h-375v313v0zM500 687h62v-125h63v-63h-63v-125h-62v313v0zM62 312h63v-63h375v63h62v-250h-500v250v0zM500 187h-375v-63h375v63v0z" />
    <glyph glyph-name="uniB2F7" unicode="&#xb2f7;" horiz-adv-x="687" 
d="M0 687h375v-63h-313v-187h313v-63h-375v313v0zM500 687h62v-188h63v-62h-63v-188h-62v438v0zM250 312h125v-125h62v-63h125v-62h-125v62h-62v63h-125v-63h-63v-62h-125v62h125v63h63v125v0z" />
    <glyph glyph-name="uniB2F8" unicode="&#xb2f8;" horiz-adv-x="687" 
d="M0 687h375v-63h-313v-187h313v-63h-375v313v0zM500 687h62v-125h63v-63h-63v-187h-62v375v0zM125 312h62v-125h63v-63h62v63h63v125h62v-125h63v-63h62v-62h-62v62h-63v63h-62v-63h-63v-62h-62v62h-63v63h-62v-63h-63v-62h-62v62h62v63h63v125v0z" />
    <glyph glyph-name="uniB2F9" unicode="&#xb2f9;" horiz-adv-x="687" 
d="M0 687h375v-63h-313v-187h313v-63h-375v313v0zM500 687h62v-125h63v-63h-63v-125h-62v313v0zM125 312h375v-63h62v-125h-62v-62h-375v62h-63v125h63v63v0zM500 249h-375v-125h375v125v0z" />
    <glyph glyph-name="uniB2FA" unicode="&#xb2fa;" horiz-adv-x="687" 
d="M0 687h375v-63h-313v-187h313v-63h-375v313v0zM500 687h62v-125h63v-63h-63v-125h-62v313v0zM62 312h500v-63h-187v-62h62v-63h125v-62h-125v62h-62v63h-125v-63h-63v-62h-125v62h125v63h63v62h-188v63v0z" />
    <glyph glyph-name="uniB2FB" unicode="&#xb2fb;" horiz-adv-x="687" 
d="M0 687h375v-63h-313v-187h313v-63h-375v313v0zM500 687h62v-125h63v-63h-63v-125h-62v313v0zM250 312h125v-63h187v-62h-125v-63h125v-62h-125v62h-62v63h-125v-63h-63v-62h-125v62h125v63h-125v62h188v63v0z" />
    <glyph glyph-name="uniB2FF" unicode="&#xb2ff;" horiz-adv-x="687" 
d="M0 687h375v-63h-313v-187h313v-125h187v-63h-125v-62h63v-63h-63v-62h-250v62h-62v63h62v62h-125v63h188v62h-250v313v0zM500 687h62v-125h63v-63h-63v-125h-62v313v0zM437 187h-250v-63h250v63v0z" />
    <glyph glyph-name="uniB300" unicode="&#xb300;" horiz-adv-x="687" 
d="M0 687h312v-63h-250v-437h250v-63h-312v563v0zM375 687h62v-250h63v250h62v-625h-62v312h-63v-312h-62v625v0z" />
    <glyph glyph-name="uniB301" unicode="&#xb301;" 
d="M0 687h312v-63h-250v-187h250v-63h-312v313v0zM375 687h62v-125h63v125h62v-313h-62v125h-63v-125h-62v313v0zM62 312h500v-250h-62v187h-438v63v0z" />
    <glyph glyph-name="uniB304" unicode="&#xb304;" 
d="M0 687h312v-63h-250v-187h250v-63h-312v313v0zM375 687h62v-188h63v188h62v-438h-62v188h-63v-188h-62v438v0zM62 312h63v-188h437v-62h-500v250v0z" />
    <glyph glyph-name="uniB308" unicode="&#xb308;" 
d="M0 687h312v-63h-250v-187h250v-63h-312v313v0zM375 687h62v-125h63v125h62v-313h-62v125h-63v-125h-62v313v0zM62 312h500v-125h-250v-63h250v-62h-500v125h250v62h-250v63v0z" />
    <glyph glyph-name="uniB310" unicode="&#xb310;" 
d="M0 687h312v-63h-250v-187h250v-63h-312v313v0zM375 687h62v-125h63v125h62v-313h-62v125h-63v-125h-62v313v0zM62 312h500v-250h-500v250v0zM500 249h-375v-125h375v125v0z" />
    <glyph glyph-name="uniB311" unicode="&#xb311;" 
d="M0 687h312v-63h-250v-187h250v-63h-312v313v0zM375 687h62v-125h63v125h62v-313h-62v125h-63v-125h-62v313v0zM62 312h63v-63h375v63h62v-250h-500v250v0zM500 187h-375v-63h375v63v0z" />
    <glyph glyph-name="uniB313" unicode="&#xb313;" 
d="M0 687h312v-63h-250v-187h250v-63h-312v313v0zM375 687h62v-188h63v188h62v-438h-62v188h-63v-188h-62v438v0zM250 312h62v-125h63v-63h125v-62h-125v62h-63v63h-62v-63h-63v-62h-125v62h125v63h63v125v0z" />
    <glyph glyph-name="uniB314" unicode="&#xb314;" 
d="M0 687h312v-63h-250v-187h250v-63h-312v313v0zM375 687h62v-125h63v125h62v-313h-62v125h-63v-125h-62v313v0zM125 312h62v-125h63v-63h62v63h63v125h62v-125h63v-63h62v-62h-62v62h-63v63h-62v-63h-63v-62h-62v62h-63v63h-62v-63h-63v-62h-62v62h62v63h63v125v0z" />
    <glyph glyph-name="uniB315" unicode="&#xb315;" 
d="M0 687h312v-63h-250v-187h250v-63h-312v313v0zM375 687h62v-125h63v125h62v-313h-62v125h-63v-125h-62v313v0zM125 312h375v-63h62v-125h-62v-62h-375v62h-63v125h63v63v0zM500 249h-375v-125h375v125v0z" />
    <glyph glyph-name="uniB31C" unicode="&#xb31c;" horiz-adv-x="687" 
d="M0 687h375v-63h-313v-437h313v-63h-375v563v0zM500 687h62v-188h63v-62h-63v-125h63v-63h-63v-187h-62v625v0z" />
    <glyph glyph-name="uniB354" unicode="&#xb354;" horiz-adv-x="687" 
d="M0 687h375v-63h-313v-437h313v-63h-375v563v0zM500 687h62v-625h-62v312h-188v63h188v250v0z" />
    <glyph glyph-name="uniB355" unicode="&#xb355;" 
d="M0 687h312v-63h-250v-187h250v-63h-312v313v0zM500 687h62v-313h-62v125h-188v63h188v125v0zM62 312h500v-250h-62v187h-438v63v0z" />
    <glyph glyph-name="uniB356" unicode="&#xb356;" 
d="M0 687h312v-63h-250v-187h250v-63h-312v313v0zM500 687h62v-313h-62v125h-188v63h188v125v0zM62 312h500v-250h-62v187h-188v-187h-62v187h-188v63v0z" />
    <glyph glyph-name="uniB358" unicode="&#xb358;" 
d="M0 687h312v-63h-250v-187h250v-63h-312v313v0zM500 687h62v-438h-62v250h-188v63h188v125v0zM62 312h63v-188h437v-62h-500v250v0z" />
    <glyph glyph-name="uniB35B" unicode="&#xb35b;" 
d="M0 687h312v-63h-250v-187h250v-63h-312v313v0zM500 687h62v-313h-62v125h-188v63h188v125v0zM62 312h500v-63h-437v-125h437v-62h-500v250v0z" />
    <glyph glyph-name="uniB35C" unicode="&#xb35c;" 
d="M0 687h312v-63h-250v-187h250v-63h-312v313v0zM500 687h62v-313h-62v125h-188v63h188v125v0zM62 312h500v-125h-250v-63h250v-62h-500v125h250v62h-250v63v0z" />
    <glyph glyph-name="uniB35E" unicode="&#xb35e;" 
d="M0 687h312v-63h-250v-187h250v-63h-312v313v0zM500 687h62v-313h-62v125h-188v63h188v125v0zM62 312h250v-125h-125v-63h125v-62h-250v125h125v62h-125v63v0zM375 312h187v-250h-187v250v0zM500 249h-63v-125h63v125v0z" />
    <glyph glyph-name="uniB35F" unicode="&#xb35f;" 
d="M0 687h312v-63h-250v-187h250v-63h-312v313v0zM500 687h62v-313h-62v125h-188v63h188v125v0zM62 312h250v-125h-125v-63h125v-62h-250v125h125v62h-125v63v0zM375 312h62v-63h63v63h62v-250h-187v250v0zM500 187h-63v-63h63v63v0z" />
    <glyph glyph-name="uniB364" unicode="&#xb364;" 
d="M0 687h312v-63h-250v-187h250v-63h-312v313v0zM500 687h62v-313h-62v125h-188v63h188v125v0zM62 312h500v-250h-500v250v0zM500 249h-375v-125h375v125v0z" />
    <glyph glyph-name="uniB365" unicode="&#xb365;" 
d="M0 687h312v-63h-250v-187h250v-63h-312v313v0zM500 687h62v-313h-62v125h-188v63h188v125v0zM62 312h63v-63h375v63h62v-250h-500v250v0zM500 187h-375v-63h375v63v0z" />
    <glyph glyph-name="uniB367" unicode="&#xb367;" 
d="M0 687h312v-63h-250v-187h250v-63h-312v313v0zM500 687h62v-438h-62v250h-188v63h188v125v0zM250 312h125v-125h62v-63h125v-62h-125v62h-62v63h-125v-63h-63v-62h-125v62h125v63h63v125v0z" />
    <glyph glyph-name="uniB369" unicode="&#xb369;" 
d="M0 687h312v-63h-250v-187h250v-63h-312v313v0zM500 687h62v-313h-62v125h-188v63h188v125v0zM125 312h375v-63h62v-125h-62v-62h-375v62h-63v125h63v63v0zM500 249h-375v-125h375v125v0z" />
    <glyph glyph-name="uniB36B" unicode="&#xb36b;" 
d="M0 687h312v-63h-250v-187h250v-63h-312v313v0zM500 687h62v-313h-62v125h-188v63h188v125v0zM250 312h125v-63h187v-62h-125v-63h125v-62h-125v62h-62v63h-125v-63h-63v-62h-125v62h125v63h-125v62h188v63v0z" />
    <glyph glyph-name="uniB36E" unicode="&#xb36e;" 
d="M0 687h312v-63h-250v-187h250v-63h-312v313v0zM500 687h62v-313h-62v125h-188v63h188v125v0zM62 312h500v-63h-62v-125h62v-62h-500v62h63v125h-63v63v0zM437 249h-250v-125h250v125v0z" />
    <glyph glyph-name="uniB370" unicode="&#xb370;" horiz-adv-x="687" 
d="M0 687h312v-63h-250v-437h250v-63h-312v563v0zM375 687h62v-625h-62v312h-125v63h125v250v0zM500 687h62v-625h-62v625v0z" />
    <glyph glyph-name="uniB371" unicode="&#xb371;" 
d="M0 687h312v-63h-250v-187h250v-63h-312v313v0zM375 687h62v-313h-62v125h-125v63h125v125v0zM500 687h62v-313h-62v313v0zM62 312h500v-250h-62v187h-438v63v0z" />
    <glyph glyph-name="uniB374" unicode="&#xb374;" 
d="M0 687h312v-63h-250v-187h250v-63h-312v313v0zM375 687h62v-438h-62v250h-125v63h125v125v0zM500 687h62v-438h-62v438v0zM62 312h63v-188h437v-62h-500v250v0z" />
    <glyph glyph-name="uniB378" unicode="&#xb378;" 
d="M0 687h312v-63h-250v-187h250v-63h-312v313v0zM375 687h62v-313h-62v125h-125v63h125v125v0zM500 687h62v-313h-62v313v0zM62 312h500v-125h-250v-63h250v-62h-500v125h250v62h-250v63v0z" />
    <glyph glyph-name="uniB380" unicode="&#xb380;" 
d="M0 687h312v-63h-250v-187h250v-63h-312v313v0zM375 687h62v-313h-62v125h-125v63h125v125v0zM500 687h62v-313h-62v313v0zM62 312h500v-250h-500v250v0zM500 249h-375v-125h375v125v0z" />
    <glyph glyph-name="uniB381" unicode="&#xb381;" 
d="M0 687h312v-63h-250v-187h250v-63h-312v313v0zM375 687h62v-313h-62v125h-125v63h125v125v0zM500 687h62v-313h-62v313v0zM62 312h63v-63h375v63h62v-250h-500v250v0zM500 187h-375v-63h375v63v0z" />
    <glyph glyph-name="uniB383" unicode="&#xb383;" 
d="M0 687h312v-63h-250v-187h250v-63h-312v313v0zM375 687h62v-438h-62v250h-125v63h125v125v0zM500 687h62v-438h-62v438v0zM250 312h62v-125h63v-63h125v-62h-125v62h-63v63h-62v-63h-63v-62h-125v62h125v63h63v125v0z" />
    <glyph glyph-name="uniB384" unicode="&#xb384;" 
d="M0 687h312v-63h-250v-187h250v-63h-312v313v0zM375 687h62v-313h-62v125h-125v63h125v125v0zM500 687h62v-313h-62v313v0zM125 312h62v-125h63v-63h62v63h63v125h62v-125h63v-63h62v-62h-62v62h-63v63h-62v-63h-63v-62h-62v62h-63v63h-62v-63h-63v-62h-62v62h62v63h63
v125v0z" />
    <glyph glyph-name="uniB385" unicode="&#xb385;" 
d="M0 687h312v-63h-250v-187h250v-63h-312v313v0zM375 687h62v-313h-62v125h-125v63h125v125v0zM500 687h62v-313h-62v313v0zM125 312h375v-63h62v-125h-62v-62h-375v62h-63v125h63v63v0zM500 249h-375v-125h375v125v0z" />
    <glyph glyph-name="uniB38C" unicode="&#xb38c;" horiz-adv-x="687" 
d="M0 687h375v-63h-313v-437h313v-63h-375v563v0zM500 687h62v-625h-62v187h-125v63h125v125h-125v62h125v188v0z" />
    <glyph glyph-name="uniB390" unicode="&#xb390;" 
d="M0 687h312v-63h-250v-187h250v-63h-312v313v0zM500 687h62v-438h-62v125h-125v63h125v62h-125v63h125v125v0zM62 312h63v-188h437v-62h-500v250v0z" />
    <glyph glyph-name="uniB394" unicode="&#xb394;" 
d="M0 687h312v-63h-250v-187h250v-63h-312v313v0zM500 687h62v-313h-62v63h-125v62h125v63h-125v62h125v63v0zM62 312h500v-125h-250v-63h250v-62h-500v125h250v62h-250v63v0z" />
    <glyph glyph-name="uniB3A0" unicode="&#xb3a0;" 
d="M0 687h312v-63h-250v-187h250v-63h-312v313v0zM500 687h62v-375h-62v125h-125v62h125v63h-125v62h125v63v0zM125 312h62v-125h63v-63h62v63h63v125h62v-125h63v-63h62v-62h-62v62h-63v63h-62v-63h-63v-62h-62v62h-63v63h-62v-63h-63v-62h-62v62h62v63h63v125v0z" />
    <glyph glyph-name="uniB3A1" unicode="&#xb3a1;" 
d="M0 687h312v-63h-250v-187h250v-63h-312v313v0zM500 687h62v-313h-62v63h-125v62h125v63h-125v62h125v63v0zM125 312h375v-63h62v-125h-62v-62h-375v62h-63v125h63v63v0zM500 249h-375v-125h375v125v0z" />
    <glyph glyph-name="uniB3A8" unicode="&#xb3a8;" horiz-adv-x="687" 
d="M0 687h312v-63h-250v-437h250v-63h-312v563v0zM375 687h62v-625h-62v187h-125v63h125v125h-125v62h125v188v0zM500 687h62v-625h-62v625v0z" />
    <glyph glyph-name="uniB3AC" unicode="&#xb3ac;" 
d="M0 687h250v-63h125v63h62v-438h-62v188h-125v-63h-250v313v0zM500 687h62v-438h-62v438v0zM250 624h-188v-187h188v62h125v63h-125v62v0zM62 312h63v-188h437v-62h-500v250v0z" />
    <glyph glyph-name="uniB3C4" unicode="&#xb3c4;" 
d="M62 687h438v-62h-375v-250h375v-63h-188v-125h250v-62h-562v62h250v125h-188v375v0z" />
    <glyph glyph-name="uniB3C5" unicode="&#xb3c5;" 
d="M62 687h438v-63h-375v-125h375v-62h-188v-63h250v-62h-562v62h250v63h-188v250v0zM62 249h438v-187h-63v125h-375v62v0z" />
    <glyph glyph-name="uniB3C8" unicode="&#xb3c8;" 
d="M62 687h438v-63h-375v-125h375v-62h-188v-63h250v-62h-562v62h250v63h-188v250v0zM62 249h63v-125h375v-62h-438v187v0z" />
    <glyph glyph-name="uniB3CB" unicode="&#xb3cb;" 
d="M62 687h438v-63h-375v-125h375v-62h-188v-63h250v-62h-562v62h250v63h-188v250v0zM62 249h438v-62h-375v-63h375v-62h-438v187v0z" />
    <glyph glyph-name="uniB3CC" unicode="&#xb3cc;" 
d="M62 687h438v-63h-375v-62h375v-63h-188v-62h250v-63h-562v63h250v62h-188v188v0zM62 312h438v-125h-250v-63h250v-62h-438v125h188v62h-188v63v0z" />
    <glyph glyph-name="uniB3CE" unicode="&#xb3ce;" 
d="M62 687h438v-63h-375v-62h375v-63h-188v-62h250v-63h-562v63h250v62h-188v188v0zM62 312h188v-125h-125v-63h125v-62h-188v125h63v62h-63v63v0zM312 312h188v-250h-188v250v0zM437 249h-62v-125h62v125v0z" />
    <glyph glyph-name="uniB3D0" unicode="&#xb3d0;" 
d="M62 687h438v-63h-375v-62h375v-63h-188v-62h250v-63h-562v63h250v62h-188v188v0zM62 312h188v-125h-125v-63h187v63h63v125h62v-125h63v-63h62v-62h-62v62h-63v63h-62v-63h-63v-62h-250v125h63v62h-63v63v0z" />
    <glyph glyph-name="uniB3D4" unicode="&#xb3d4;" 
d="M62 687h438v-63h-375v-125h375v-62h-188v-63h250v-62h-562v62h250v63h-188v250v0zM62 249h438v-187h-438v187v0zM437 187h-312v-63h312v63v0z" />
    <glyph glyph-name="uniB3D5" unicode="&#xb3d5;" 
d="M62 687h438v-63h-375v-62h375v-63h-188v-62h250v-63h-562v63h250v62h-188v188v0zM62 312h63v-63h312v63h63v-250h-438v250v0zM437 187h-312v-63h312v63v0z" />
    <glyph glyph-name="uniB3D7" unicode="&#xb3d7;" 
d="M62 687h438v-63h-375v-125h375v-62h-188v-63h250v-62h-562v62h250v63h-188v250v0zM250 249h62v-62h63v-63h125v-62h-125v62h-63v63h-62v-63h-63v-62h-125v62h125v63h63v62v0z" />
    <glyph glyph-name="uniB3D9" unicode="&#xb3d9;" 
d="M62 687h438v-63h-375v-125h375v-62h-188v-63h250v-62h-562v62h250v63h-188v250v0zM125 249h312v-62h63v-63h-63v-62h-312v62h-63v63h63v62v0zM437 187h-312v-63h312v63v0z" />
    <glyph glyph-name="uniB3DB" unicode="&#xb3db;" 
d="M62 687h438v-63h-375v-125h375v-62h-188v-63h250v-62h-250v-63h188v-62h-125v-63h125v-62h-125v62h-63v63h-62v-63h-63v-62h-125v62h125v63h-125v62h188v63h-250v62h250v63h-188v250v0z" />
    <glyph glyph-name="uniB3DD" unicode="&#xb3dd;" 
d="M62 687h438v-63h-375v-62h375v-63h-188v-62h250v-63h-62v-62h-375v-63h312v-62h-312v-63h375v-62h-438v312h-62v63h250v62h-188v188v0z" />
    <glyph glyph-name="uniB3E0" unicode="&#xb3e0;" horiz-adv-x="687" 
d="M0 687h375v-63h-313v-250h313v-62h-125v-125h187v-63h-437v63h187v125h-187v375v0zM500 687h62v-250h63v-63h-63v-312h-62v625v0z" />
    <glyph glyph-name="uniB3E4" unicode="&#xb3e4;" horiz-adv-x="687" 
d="M62 687h313v-63h-250v-125h250v-62h-125v-63h187v-62h-437v62h187v63h-125v250v0zM500 687h62v-188h63v-62h-63v-188h-62v438v0zM62 249h63v-125h437v-62h-500v187v0z" />
    <glyph glyph-name="uniB3E8" unicode="&#xb3e8;" horiz-adv-x="687" 
d="M62 687h313v-63h-250v-62h250v-63h-125v-62h187v-63h-437v63h187v62h-125v188v0zM500 687h62v-125h63v-63h-63v-125h-62v313v0zM62 312h500v-125h-250v-63h250v-62h-500v125h250v62h-250v63v0z" />
    <glyph glyph-name="uniB3FC" unicode="&#xb3fc;" horiz-adv-x="687" 
d="M0 687h312v-63h-250v-250h250v-62h-125v-125h188v500h62v-250h63v250h62v-625h-62v312h-63v-312h-62v62h-375v63h125v125h-125v375v0z" />
    <glyph glyph-name="uniB410" unicode="&#xb410;" 
d="M0 687h312v-63h-250v-125h250v-62h-125v-63h188v313h62v-125h63v125h62v-375h-62v187h-63v-187h-437v62h125v63h-125v250v0zM125 249h62v-62h63v-63h62v63h63v62h62v-62h63v-63h62v-62h-62v62h-63v63h-62v-63h-63v-62h-62v62h-63v63h-62v-63h-63v-62h-62v62h62v63h63v62
v0z" />
    <glyph glyph-name="uniB418" unicode="&#xb418;" horiz-adv-x="687" 
d="M0 687h437v-63h-375v-250h375v-62h-187v-125h187v-63h-437v63h187v125h-187v375v0zM500 687h62v-625h-62v625v0z" />
    <glyph glyph-name="uniB41C" unicode="&#xb41c;" 
d="M62 687h313v-63h-250v-125h250v-62h-125v-63h187v-62h-437v62h187v63h-125v250v0zM500 687h62v-438h-62v438v0zM62 249h63v-125h437v-62h-500v187v0z" />
    <glyph glyph-name="uniB420" unicode="&#xb420;" 
d="M62 687h313v-63h-250v-62h250v-63h-125v-62h187v-63h-437v63h187v62h-125v188v0zM500 687h62v-313h-62v313v0zM62 312h500v-125h-250v-63h250v-62h-500v125h250v62h-250v63v0z" />
    </font>
</defs>
</svg>
